<?xml version="1.0" encoding="utf-8"?>
<!-- Generator: Adobe Illustrator 17.1.0, SVG Export Plug-In . SVG Version: 6.00 Build 0)  -->
<!DOCTYPE svg PUBLIC "-//W3C//DTD SVG 1.1//EN" "http://www.w3.org/Graphics/SVG/1.1/DTD/svg11.dtd">
<svg version="1.1" xmlns="http://www.w3.org/2000/svg" xmlns:xlink="http://www.w3.org/1999/xlink" x="0px" y="0px" width="164.2px"
	 height="99.3px" viewBox="0 0 164.2 99.3" enable-background="new 0 0 164.2 99.3" xml:space="preserve">
<g id="Web">
	<g>
		<path fill-rule="evenodd" clip-rule="evenodd" fill="#918D8D" d="M83.7,2.9c0,0-41.3-1.2-71.8,33.5c0,0-3.4,5.4,0.2,8
			c4.7,3.3,7.4,1,7.4,1s24-30.8,64.1-30.9c0,0,37-2,64.7,30.6c0,0,4.1,3.1,7.5-0.5c3.4-3.6,0.7-8.6,0.7-8.6S130.1,3.1,83.7,2.9
			L83.7,2.9z"/>
		<path fill-rule="evenodd" clip-rule="evenodd" fill="#FFFFFF" d="M83.7,1.5c0,0-41.3-1.2-71.8,33.5c0,0-3.4,5.4,0.2,8
			c4.7,3.3,7.4,1,7.4,1s24-30.8,64.1-30.9c0,0,37-2,64.7,30.6c0,0,4.1,3.1,7.5-0.5c3.4-3.6,0.7-8.6,0.7-8.6S130.1,1.6,83.7,1.5
			L83.7,1.5z"/>
		<path fill-rule="evenodd" clip-rule="evenodd" fill="#918D8D" d="M83.7,0c0,0-41.3-1.2-71.8,33.5c0,0-3.4,5.4,0.2,8
			c4.7,3.3,7.4,1,7.4,1s24-30.8,64.1-30.9c0,0,37-2,64.7,30.6c0,0,4.1,3.1,7.5-0.5c3.4-3.6,0.7-8.6,0.7-8.6S130.1,0.2,83.7,0L83.7,0
			z"/>
		<path fill-rule="evenodd" clip-rule="evenodd" fill="#FFFFFF" d="M116.2,16.1l3.3-8l2.4,1.1c0.9,0.4,1.4,0.8,1.7,1.4
			c0.3,0.5,0.3,1.1,0,1.8c-0.2,0.5-0.5,0.8-0.9,1c-0.4,0.2-0.8,0.2-1.4,0.1c0.5,0.4,0.8,0.8,1,1.2c0.1,0.4,0.1,0.9-0.1,1.5
			c-0.3,0.7-0.8,1.2-1.4,1.4c-0.6,0.2-1.4,0-2.3-0.4L116.2,16.1L116.2,16.1L116.2,16.1z M119,15.3l0.1,0c0.3,0.1,0.5,0.1,0.7,0.1
			c0.2-0.1,0.3-0.2,0.5-0.5c0.1-0.3,0.1-0.5,0-0.7c-0.1-0.2-0.3-0.4-0.6-0.5L119,15.3L119,15.3L119,15.3z M120.3,12.2
			c0.3,0.1,0.5,0.2,0.7,0.1c0.2-0.1,0.3-0.2,0.4-0.4c0.1-0.2,0.1-0.4,0-0.6c-0.1-0.2-0.2-0.3-0.5-0.4l-0.1-0.1L120.3,12.2
			L120.3,12.2z"/>
		<path fill-rule="evenodd" clip-rule="evenodd" fill="#FFFFFF" d="M122.7,19.1l5.6-6.7l2.3,1.3l-2.4,8.5l-2-1.1l0.4-1.2l-1.2-0.7
			l-0.7,1L122.7,19.1L122.7,19.1L122.7,19.1z M126.5,17.8l0.8,0.5l1.1-3.1L126.5,17.8L126.5,17.8z"/>
		<polygon fill-rule="evenodd" clip-rule="evenodd" fill="#FFFFFF" points="129.8,23.2 134.4,16 136.4,17.3 134.4,20.3 137.4,18.1 
			139.4,19.4 135.9,21.8 134.8,26.7 132.7,25.2 133.9,21.3 131.7,24.5 129.8,23.2 		"/>
		<polygon fill-rule="evenodd" clip-rule="evenodd" fill="#FFFFFF" points="136.2,27.8 141.4,21 144.7,23.7 143.4,25.3 142,24.2 
			141.4,25.1 142.6,26.1 141.4,27.7 140.1,26.6 139.4,27.6 140.8,28.7 139.5,30.5 136.2,27.8 		"/>
		<path fill-rule="evenodd" clip-rule="evenodd" fill="#FFFFFF" d="M141.2,32l5.7-6.3l2,1.9c0.7,0.6,1,1.3,1.1,2
			c0.1,0.7-0.2,1.4-0.7,2c-0.3,0.4-0.7,0.6-1.1,0.7c-0.4,0.1-0.9,0.1-1.3-0.1l-1.3,4l-1.8-1.8l1.5-3.2l-2.2,2.5L141.2,32L141.2,32
			L141.2,32z M147.4,28.6l-1.4,1.5c0.2,0.2,0.5,0.3,0.7,0.3c0.2,0,0.4-0.2,0.7-0.4c0.2-0.3,0.3-0.5,0.4-0.7
			C147.8,29.1,147.7,28.9,147.4,28.6L147.4,28.6L147.4,28.6z"/>
		<polygon fill-rule="evenodd" clip-rule="evenodd" fill="#FFFFFF" points="152.5,31.2 154.1,33.1 152.6,35.3 155,34.1 156.6,35.9 
			151.6,37.9 149.1,40.3 147.5,38.5 150,36.1 152.5,31.2 		"/>
		<path fill-rule="evenodd" clip-rule="evenodd" fill="#FFFFFF" d="M65.3,12.2l-1.7-8.3l2.6-0.5c0.9-0.2,1.7-0.2,2.2,0.1
			c0.5,0.2,0.9,0.7,1,1.4c0.1,0.5,0.1,0.9-0.1,1.3c-0.2,0.4-0.5,0.7-1.1,0.9c0.6,0,1.1,0.1,1.5,0.4c0.4,0.3,0.6,0.7,0.7,1.2
			c0.2,0.8,0,1.4-0.4,1.9c-0.4,0.5-1.1,0.8-2.1,1.1L65.3,12.2L65.3,12.2L65.3,12.2z M66.5,6.7c0.3-0.1,0.5-0.2,0.7-0.4
			c0.1-0.2,0.2-0.4,0.1-0.6c0-0.2-0.2-0.4-0.3-0.5c-0.2-0.1-0.4-0.1-0.6-0.1l-0.1,0L66.5,6.7L66.5,6.7L66.5,6.7z M67.2,9.9l0.1,0
			c0.3-0.1,0.5-0.2,0.6-0.4C68,9.3,68,9.1,68,8.8c-0.1-0.3-0.2-0.4-0.4-0.6c-0.2-0.1-0.5-0.1-0.8-0.1L67.2,9.9L67.2,9.9z"/>
		<path fill-rule="evenodd" clip-rule="evenodd" fill="#FFFFFF" d="M72.4,7.8l-0.6-5.4l2.3-0.3l0.6,5.6c0,0.2,0.1,0.4,0.2,0.5
			c0.1,0.1,0.2,0.2,0.4,0.1c0.2,0,0.3-0.1,0.4-0.2c0.1-0.1,0.1-0.3,0.1-0.6L75.2,2l2.4-0.3l0.6,5.4c0.1,1.1,0,1.9-0.4,2.5
			c-0.4,0.6-1.1,0.9-2.1,1c-1,0.1-1.8-0.1-2.3-0.5C72.8,9.6,72.5,8.9,72.4,7.8L72.4,7.8z"/>
		<polygon fill-rule="evenodd" clip-rule="evenodd" fill="#FFFFFF" points="80.5,10 80.4,1.6 84.5,1.5 84.6,3.5 82.7,3.6 82.8,4.8 
			84.4,4.8 84.4,6.8 82.8,6.8 82.9,10 80.5,10 		"/>
		<polygon fill-rule="evenodd" clip-rule="evenodd" fill="#FFFFFF" points="86.5,10 87,1.5 91.2,1.8 91.1,3.8 89.3,3.7 89.2,4.9 
			90.8,5 90.7,7 89.1,6.9 88.9,10.1 86.5,10 		"/>
		<polygon fill-rule="evenodd" clip-rule="evenodd" fill="#FFFFFF" points="92.5,10.4 93.7,2.1 97.9,2.7 97.6,4.7 95.8,4.4 
			95.6,5.5 97.2,5.7 97,7.7 95.3,7.5 95.2,8.6 97,8.9 96.7,11 92.5,10.4 		"/>
		<polygon fill-rule="evenodd" clip-rule="evenodd" fill="#FFFFFF" points="101.9,12.1 99.6,11.6 100.9,5.4 99.6,5.1 100,3 
			105.1,4.1 104.6,6.2 103.2,5.9 101.9,12.1 		"/>
		<path fill-rule="evenodd" clip-rule="evenodd" fill="#FFFFFF" d="M19.6,36.6c0.4-0.1,0.8-0.1,1.1-0.2c0.3-0.1,0.5-0.2,0.7-0.4
			c0.1-0.1,0.2-0.3,0.2-0.5c0-0.2-0.1-0.3-0.2-0.4c-0.1-0.1-0.5-0.2-1.1-0.2l0,0c-1,0-1.6,0-2-0.1c-0.4-0.1-0.7-0.3-1-0.6
			c-0.5-0.5-0.8-1.1-0.8-1.8c0-0.7,0.3-1.3,0.8-1.8c0.2-0.2,0.5-0.4,0.7-0.6c0.3-0.2,0.6-0.3,0.9-0.5l1.6,1.5
			c-0.4,0-0.7,0.1-0.9,0.2c-0.3,0.1-0.5,0.2-0.6,0.4c-0.1,0.1-0.2,0.3-0.2,0.4c0,0.1,0,0.3,0.2,0.4c0.2,0.2,0.5,0.2,1,0.1l0.1,0
			c0.9-0.1,1.5-0.1,1.9,0c0.4,0.1,0.8,0.3,1.1,0.7c0.6,0.6,0.9,1.2,0.9,1.9c0,0.7-0.3,1.4-0.9,2c-0.2,0.2-0.5,0.4-0.8,0.6
			c-0.3,0.2-0.6,0.3-1,0.4L19.6,36.6L19.6,36.6z"/>
		<polygon fill-rule="evenodd" clip-rule="evenodd" fill="#FFFFFF" points="28.9,31.6 27.1,33.1 22.9,28.4 21.9,29.3 20.4,27.8 
			24.3,24.3 25.7,25.9 24.7,26.8 28.9,31.6 		"/>
		<polygon fill-rule="evenodd" clip-rule="evenodd" fill="#FFFFFF" points="31.4,29.5 26.2,22.8 29.5,20.2 30.7,21.8 29.3,22.9 
			30,23.8 31.3,22.8 32.5,24.4 31.2,25.4 31.9,26.3 33.3,25.2 34.7,26.9 31.4,29.5 		"/>
		<path fill-rule="evenodd" clip-rule="evenodd" fill="#FFFFFF" d="M35.9,26l-3.1-8.1l2.2-1.5l6.2,6l-1.9,1.3l-0.8-0.9l-1.2,0.8
			l0.5,1.1L35.9,26L35.9,26L35.9,26z M36.5,22l0.8-0.5l-2.1-2.4L36.5,22L36.5,22z"/>
		<polygon fill-rule="evenodd" clip-rule="evenodd" fill="#FFFFFF" points="42.6,21.6 38.5,14.2 40.6,13 42.3,16.1 41.8,12.4 
			43.9,11.3 44.2,15.5 48,18.6 45.8,19.9 42.9,17.1 44.7,20.5 42.6,21.6 		"/>
		<path fill-rule="evenodd" clip-rule="evenodd" fill="#FFFFFF" d="M48.1,15.5c0.4,0.1,0.8,0.2,1.1,0.2c0.3,0,0.6,0,0.8-0.1
			c0.2-0.1,0.3-0.2,0.4-0.3c0.1-0.2,0.1-0.3,0-0.5c-0.1-0.2-0.4-0.4-0.9-0.6l0,0c-0.9-0.3-1.5-0.6-1.9-0.8c-0.3-0.2-0.6-0.6-0.8-0.9
			c-0.3-0.7-0.3-1.3-0.1-1.9c0.3-0.6,0.7-1.1,1.4-1.4C48.4,9,48.7,8.9,49,8.8c0.3-0.1,0.7-0.1,1-0.1l0.9,2c-0.4-0.1-0.7-0.1-0.9-0.1
			c-0.3,0-0.5,0-0.7,0.1c-0.2,0.1-0.3,0.2-0.3,0.3c-0.1,0.1-0.1,0.3,0,0.4c0.1,0.2,0.4,0.4,0.9,0.5l0.1,0c0.9,0.2,1.5,0.5,1.8,0.7
			c0.3,0.2,0.6,0.6,0.8,1c0.3,0.8,0.4,1.5,0.1,2.1c-0.3,0.7-0.8,1.2-1.6,1.5c-0.3,0.1-0.6,0.2-1,0.3c-0.3,0-0.7,0-1.1,0L48.1,15.5
			L48.1,15.5z"/>
		<path fill-rule="evenodd" clip-rule="evenodd" fill="#918D8D" d="M59.5,10.1c0,1.1-0.8,2.1-1.8,2.1c-1,0-1.8-0.9-1.8-2.1
			c0-1.1,0.8-2.1,1.8-2.1C58.7,8.1,59.5,9,59.5,10.1L59.5,10.1z"/>
		<path fill-rule="evenodd" clip-rule="evenodd" fill="#918D8D" d="M112.6,10.1c0,1.1-0.8,2.1-1.8,2.1c-1,0-1.8-0.9-1.8-2.1
			c0-1.1,0.8-2.1,1.8-2.1C111.8,8.1,112.6,9,112.6,10.1L112.6,10.1z"/>
		<path fill-rule="evenodd" clip-rule="evenodd" fill="#FFFFFF" d="M71.5,19.8c0,0-2.3-2.3-3.9,0.1l-1.8,1.6c0,0-0.6,3.4-1.2,4
			c-0.6,0.6-1.9,1.6-1.2,3.1c0.7,1.5,1,1.8,1,1.8s1.5-0.4,3-0.2c1.5,0.2,3.7,1.1,4.2,4.5c0,0,1.1,2.4,2.8,2.4c0,0-1.9,1.3-1.8,2.9h4
			l0.6-1h2.4l0.5-1.1l0.1-1.8c0,0,2.7-0.9,3.5,0.2c0.7,1.2,3.4,0.8,7.1-1.3c0,0,0.4,0.9,0.2,1.2c0,0-2.4,2.9-2.4,3.8h4.3
			c0,0,0.8-1.1,1.2-1.1l0,0c0.4,0,2.9,0,2.9,0l-0.1-0.8c0,0,1.5-0.9,1.7-1.8c0.2-0.9,0.2-2.4,0.2-2.4s-0.1-2.4,0.5-3
			c0.6-0.6-0.2-5.1-0.2-5.8c0-0.7,0.8-1.2,0.9,0.1c0.1,1.3,0.5,4.9,0.3,5.7c-0.2,0.7-0.4,2.5-0.1,3.3c0.4,0.8-0.2,1.8-0.2,1.8
			s2.9-1.7,1.9-4.8c0,0-0.2-0.8-0.3-2.3c0,0,1.1-6-4.2-7.9l-18.4-0.4c0,0-1-0.6-1.5-0.7C77.2,19.9,71.5,19.8,71.5,19.8L71.5,19.8z"
			/>
		<path fill-rule="evenodd" clip-rule="evenodd" fill="#918D8D" d="M70.4,19.1c0,0,0.4,1.1-0.8,1.6c0,0,0.2-0.7-0.3-0.7l-0.9,0.1
			v2.3l0.9,0.8v0.6l0.6,0.5l0.1,0.4l-0.4,0.1l-1.2,0.8l0.8,0.7l1.5-0.9c0,0,2,1.2,2.2,3.2v1.7c0,0,1.2,1,0.2,1.3c0,0-0.2,1,0.8,1.7
			c0.9,0.7,1.4,3.3,1.4,3.3l-0.4,0.3c0,0-2.3,1.6-2.3,3h4l0.6-0.9l2.4-0.2l0.7-1.6l-1.7,1.2h-0.9l2.2-2.5l0.5-5.4l0.7-0.9l0.2-2.1
			c0,0,1.6,1,0.1,2.8l-0.1,2.4c0,0,3.1,0.8,8.8-0.4c0,0-0.8-2.6-0.4-3.8l1.7-2l0.3,0.1L91.6,27l-1.1,1.3c0,0-0.4,2.4,0.4,3.7
			c0.8,1.3,0.1,2.8,0.1,2.8l0.2,1.1c0,0-2.4,3.5-2.5,4.2l4.3-0.2l0.9-0.9l3.1,0.1l-0.1-0.8c0,0,1.7-0.6,1.8-2.4
			c0.1-1.8,0.1-4.2,0.1-4.2l0.7-1.3l-0.5-5.1c0,0-0.2-0.7,0.5-0.8c0.7-0.1,0.3,0.7,0.3,0.7l0.4,3.6l1.2,0.2c0,0,1.3-6-4.1-7.6
			l-18.4-0.4l-1.3-0.8l-6.2-0.2L70.4,19.1L70.4,19.1z"/>
		<path fill-rule="evenodd" clip-rule="evenodd" fill="#918D8D" d="M67.5,23.5c0,0-0.8,0.1-0.9,0.2c-0.1,0.2-0.7,0.3-0.7,0.3L66,25
			l0.4-0.2l1-0.1l0.1-0.8l0.3-0.2L67.5,23.5L67.5,23.5z"/>
		<path fill-rule="evenodd" clip-rule="evenodd" fill="#918D8D" d="M64.7,25.6c0,0,0.8,0.3,0.8,0.6c0,0.3,0.4,0.1,0.4,0.1l0.1-0.6
			L65.1,25L64.7,25.6L64.7,25.6z"/>
		<path fill-rule="evenodd" clip-rule="evenodd" fill="#918D8D" d="M65,26.6c0,0-0.7-0.1-0.7,0.6c-0.1,0.6,0.4,0.2,0.4,0.2l0.2-0.5
			L65,26.6L65,26.6z"/>
		<path fill-rule="evenodd" clip-rule="evenodd" fill="#918D8D" d="M102.2,31.2c0,0-0.2-0.8-0.3-2.2c0,0,0.1-0.5,0.1-1.3
			c0-1.9-0.6-5.5-4.4-6.8c0,0-0.1,0-0.1,0c0,0-18.3-0.4-18.4-0.4c-0.2-0.1-1-0.5-1.5-0.7c-0.5-0.1-5.3-0.2-6.1-0.2
			c-0.3-0.2-1.3-1.1-2.4-1c-0.7,0.1-1.3,0.5-1.8,1.2c0,0-1.8,1.6-1.8,1.6c0,0-0.1,0.1-0.1,0.1c-0.2,1.3-0.7,3.4-1.2,3.8l-0.2,0.2
			C63.8,26,63,26.7,63,27.7c0,0.3,0.1,0.6,0.2,1c0.1,0.3,0.3,0.5,0.4,0.8c0,0.1,0,0.1,0.1,0.2c0,0,0,0,0,0c0.4,0.7,0.6,0.9,0.6,1
			c0.1,0.1,0.2,0.1,0.3,0.1c0,0,1.5-0.4,2.9-0.2c1.3,0.2,3.5,0.9,4,4.3c0,0,0,0,0,0.1c0,0.1,1,2.1,2.5,2.5c-0.6,0.5-1.5,1.5-1.5,2.6
			c0,0.1,0,0.1,0,0.2c0,0.1,0.1,0.2,0.2,0.2h4c0.1,0,0.2,0,0.2-0.1c0,0,0.4-0.7,0.5-0.9c0.2,0,2.3,0,2.3,0c0.1,0,0.2-0.1,0.2-0.1
			l0.5-1.1c0,0,0-0.1,0-0.1c0,0,0.1-1.3,0.1-1.6c0.8-0.2,2.6-0.6,3,0.2c0.8,1.3,3.6,0.9,7.2-1.1c0.1,0.2,0.1,0.4,0.1,0.6
			c0,0.1,0,0.1,0,0.2c-0.2,0.3-2.4,3-2.4,4c0,0.1,0.1,0.2,0.2,0.2h4.3c0.1,0,0.2,0,0.2-0.1c0.4-0.5,0.8-1,1-1h2.9
			c0.1,0,0.1,0,0.2-0.1c0,0,0.1-0.1,0.1-0.2c0,0,0-0.5-0.1-0.7c0.4-0.2,1.5-1.1,1.7-1.9c0.2-0.9,0.2-2.4,0.2-2.5c0-0.1,0-0.3,0-0.5
			c0-0.9,0.1-2,0.4-2.3c0.2-0.2,0.3-0.6,0.3-1.3c0-0.8-0.1-2-0.3-3.5l-0.1-1.2c0-0.3,0.2-0.4,0.2-0.4c0,0,0.1,0.1,0.2,0.6L100,27
			c0.1,1.4,0.3,3.4,0.2,3.9c-0.2,0.8-0.4,2.6,0,3.5c0.3,0.7-0.2,1.6-0.2,1.6c-0.1,0.1,0,0.2,0,0.3c0.1,0.1,0.2,0.1,0.3,0
			c0,0,2.2-1.4,2.2-3.7C102.5,32.1,102.4,31.7,102.2,31.2L102.2,31.2L102.2,31.2z M100.6,35.4c0-0.2,0.1-0.3,0.1-0.5
			c0-0.2,0-0.5-0.1-0.7c-0.1-0.3-0.2-0.7-0.2-1.1c0-0.7,0.1-1.6,0.2-2c0-0.1,0.1-0.4,0.1-0.7c0-0.8-0.1-1.9-0.2-3.4l-0.1-1.7
			c0-0.9-0.5-1-0.6-1c-0.4,0-0.7,0.4-0.7,0.9l0.1,1.2c0.1,0.8,0.3,2.5,0.3,3.5c0,0.5,0,0.8-0.2,0.9c-0.5,0.5-0.6,1.9-0.6,2.7
			c0,0.3,0,0.5,0,0.5c0,0,0,1.5-0.2,2.4c-0.1,0.7-1.2,1.4-1.6,1.7c-0.1,0-0.1,0.1-0.1,0.2c0,0,0,0.3,0,0.5c-0.4,0-2.6,0-2.6,0
			c-0.4,0-0.9,0.6-1.3,1.1h-3.9c0.3-0.8,1.5-2.5,2.3-3.4c0.1-0.1,0.1-0.3,0.1-0.5c0-0.4-0.2-0.9-0.3-1c0-0.1-0.1-0.1-0.1-0.1
			c-0.1,0-0.1,0-0.2,0c-3.8,2.2-6.2,2.3-6.8,1.4c-0.8-1.3-3.6-0.4-3.8-0.3c-0.1,0-0.2,0.1-0.2,0.2c0,0-0.1,1.6-0.1,1.7
			c0,0.1-0.3,0.7-0.4,0.9c-0.3,0-2.3,0-2.3,0c-0.1,0-0.2,0-0.2,0.1c0,0-0.4,0.7-0.5,0.9H73c0.1-1.3,1.6-2.4,1.7-2.4
			c0.1,0,0.1-0.1,0.1-0.2c0,0,0-0.1,0-0.1c0-0.1-0.1-0.2-0.2-0.2c-1.5,0-2.5-2.2-2.6-2.3c-0.5-3.5-2.9-4.4-4.1-4.6c0,0,0,0,0,0v-1.5
			c0-0.1-0.1-0.2-0.2-0.2c-0.1,0-0.2,0.1-0.2,0.2v1.5c-1.2-0.1-2.3,0.1-2.7,0.2c-0.1-0.1-0.2-0.3-0.4-0.7c0.3-0.3,0.7-0.6,0.9-0.6
			c0.1,0,0.2-0.1,0.2-0.2c0-0.1-0.1-0.2-0.2-0.2c-0.4,0-0.8,0.3-1.1,0.6c-0.1-0.2-0.2-0.3-0.3-0.5c-0.1-0.3-0.2-0.5-0.2-0.8
			c0-0.8,0.6-1.4,1.1-1.9l0.2-0.2c0.6-0.6,1.2-3.5,1.3-4c0.1-0.1,1.7-1.5,1.7-1.5c0,0,0,0,0,0c0.4-0.6,0.9-0.9,1.5-1
			c1.1-0.1,2.1,0.9,2.1,0.9c0,0,0.1,0.1,0.2,0.1c2.2,0,5.7,0.2,6.1,0.2c0.4,0.1,1.1,0.5,1.4,0.6c0,0,0.1,0,0.1,0
			c0,0,18.3,0.4,18.4,0.4c3.5,1.2,4.1,4.4,4.1,6.3c0,0.7-0.1,1.3-0.1,1.3c0.1,1.5,0.3,2.3,0.3,2.4c0.1,0.4,0.2,0.8,0.2,1.2
			C102,33.9,101.2,34.8,100.6,35.4L100.6,35.4z"/>
		<path fill-rule="evenodd" clip-rule="evenodd" fill="#FFFFFF" d="M77.3,37.8c0,0-2.2-0.3-2.5,0c-0.3,0.3-1.2,1.7-1.2,1.7h2.5
			L77.3,37.8L77.3,37.8z"/>
		<path fill-rule="evenodd" clip-rule="evenodd" fill="#FFFFFF" d="M91.8,36.2l-2.4,3.2l3.1,0.1l1.2-1h0.3c0,0,0.2-2.2-0.1-2.2
			C93.7,36.2,91.8,36.2,91.8,36.2L91.8,36.2z"/>
		<path fill-rule="evenodd" clip-rule="evenodd" fill="#FFFFFF" d="M98.3,34.8c0,0-2.8-0.2-3.7,3.3h2.1c0,0,1.7-1.8,1.7-2.2
			L98.3,34.8L98.3,34.8z"/>
		<path fill-rule="evenodd" clip-rule="evenodd" fill="#918D8D" d="M37.9,42.8v4.7c0,0-3.4-2.3-5.9-2.1c-2.5,0.2-2.6,2.7-1.1,3
			c0,0,9.6,2.8,9.4,7.8c-0.2,5-5.4,6.8-9.1,6.7c0,0-6.8,0.1-8.3-1.1v-5.3c0,0,7.9,5.4,9.9,2c0,0,1.2-1.3-1.4-2.5
			c0,0-8.6-2.2-8.6-7.3C22.9,43.7,29.3,40.3,37.9,42.8L37.9,42.8z"/>
		<path fill-rule="evenodd" clip-rule="evenodd" fill="#918D8D" d="M42.6,44.1v18.8h7.5V42.6h-8.2C42.2,42.7,42.6,44.1,42.6,44.1
			L42.6,44.1z"/>
		<path fill-rule="evenodd" clip-rule="evenodd" fill="#918D8D" d="M69.3,53.8c0,0,3.9-1.1,4-5.7c0.1-4.6-6-5.4-6-5.4H53.6
			c1.3,6.7,0.4,20.3,0.4,20.3h7.6V55h0.8l3.5,7.9h8.2L69.3,53.8L69.3,53.8L69.3,53.8z M61.3,50.9v-4.4c0,0,4.2-0.4,4.1,2.2
			C65.4,51.3,61.3,50.9,61.3,50.9L61.3,50.9z"/>
		<polygon fill-rule="evenodd" clip-rule="evenodd" fill="#918D8D" points="75.5,42.6 75.5,62.9 90.1,62.9 90.1,59.2 83.5,59.2 
			83.5,42.6 75.5,42.6 		"/>
		<path fill-rule="evenodd" clip-rule="evenodd" fill="#918D8D" d="M100.6,41.7c-5.7,0-10.4,4.8-10.4,10.7c0,5.9,4.6,10.7,10.4,10.7
			c5.7,0,10.4-4.8,10.4-10.7C110.9,46.5,106.3,41.7,100.6,41.7L100.6,41.7L100.6,41.7z M100.2,59c-1.4,0-2.6-3-2.6-6.7
			c0-3.7,1.2-6.7,2.6-6.7c1.4,0,2.6,3,2.6,6.7C102.8,56,101.6,59,100.2,59L100.2,59z"/>
		<path fill-rule="evenodd" clip-rule="evenodd" fill="#918D8D" d="M113.6,44v17.9c0,0.4-0.1,0.8-0.2,1h7.8c-0.1-0.2-0.2-0.6-0.2-1
			V44c0-0.4,0.1-0.8,0.2-1h-7.8C113.5,43.2,113.6,43.6,113.6,44L113.6,44z"/>
		<path fill-rule="evenodd" clip-rule="evenodd" fill="#918D8D" d="M145.2,62.9c-0.2-0.3-0.3-0.7-0.3-1.2V47.9
			c0-1.6-0.4-2.8-1.1-3.7c-1.1-1.2-3.3-2.3-5.5-2.3c-2.5,0-4.6,0.8-6.1,2.3l-0.3-1.2H124c0.2,0.3,0.3,0.7,0.3,1.2v18.7h8.9
			c-0.2-0.3-0.3-0.7-0.3-1.2V49.6c0,0-0.3-2.7,1.8-2.7c0,0,2.3-0.3,2.4,1v15H145.2L145.2,62.9z"/>
		<path fill-rule="evenodd" clip-rule="evenodd" fill="#008997" d="M0,85.8v10.9c1.8,2.9,10.2,2.6,10.2,2.6
			c4.5,0.1,10.9-4.1,11.1-16c0,0,1.3-10.2-9-16.6c0,0-6.4-3.5-4.1-7.8c3.5-6.3,11,2.3,11,2.3l0.1-9.9C8.9,45.5,0,53.3,0,65.5
			c0,0,0.8,9.5,9.7,14c0,0,6.6,4.4,3.2,9.6C9.6,94.2,2.6,89.6,0,85.8L0,85.8z"/>
		<path fill-rule="evenodd" clip-rule="evenodd" fill="#008997" d="M60.1,81.9c0,9-4.6,16.3-10.4,16.3c-5.7,0-10.4-7.3-10.4-16.3
			c0-9,4.6-16.3,10.4-16.3C55.5,65.6,60.1,72.9,60.1,81.9L60.1,81.9L60.1,81.9z M49.4,71.6c-1.4,0-2.6,4.6-2.6,10.2
			c0,5.6,1.2,10.2,2.6,10.2c1.4,0,2.6-4.6,2.6-10.2C52,76.1,50.8,71.6,49.4,71.6L49.4,71.6z"/>
		<path fill-rule="evenodd" clip-rule="evenodd" fill="#008997" d="M22.1,66.9h16.5v5.5c-0.4-0.2-0.7-0.3-1.1-0.3h-3.7v24.7
			c0,0.7,0.1,1.2,0.2,1.6h-7.4c0.1-0.4,0.2-0.9,0.2-1.6V72.1h-3.4c-0.4,0-0.9,0.1-1.4,0.3V66.9L22.1,66.9z"/>
		<path fill-rule="evenodd" clip-rule="evenodd" fill="#008997" d="M79.2,67.6v8.6c0,0-2.3-5.1-5.2-5c-2.9,0.1-3.9,8-3.8,11.4
			c0.1,3.5,0.2,10.8,4.4,10.5c4.2-0.3,4.4-2.5,4.4-2.5l2.2,4.6c0,0-2.4,3.5-9.5,3.5c-7.1,0-9.6-11.8-9.5-16.4
			c0.2-4.6,2.2-15.8,10.7-16.5C73,65.8,76.9,65.4,79.2,67.6L79.2,67.6z"/>
		<path fill-rule="evenodd" clip-rule="evenodd" fill="#008997" d="M82.5,66.8h7.6c0,0-0.6,7.1-0.4,11.9c0,0,4.7-10.7,7.4-11.9
			c2.7-1.1,4.8-0.8,4.8-0.8v7.9c0,0-3.9-0.4-6,2.9l7,21.7h-8.4c0,0,0.3-4.8-3.3-12l-1.4,2.4v9.6h-7.3C82.5,98.5,83.4,71.6,82.5,66.8
			L82.5,66.8z"/>
		<path fill-rule="evenodd" clip-rule="evenodd" fill="#008997" d="M127.4,66.5h8.4c6.8,0,10.2,5.2,10.2,15.5
			c0,5.3-0.9,9.3-2.6,12.2c-1.6,2.6-3.5,3.8-5.9,3.8h-10.1c0.1-0.4,0.2-0.9,0.2-1.6V68.1C127.6,67.4,127.6,66.8,127.4,66.5
			L127.4,66.5L127.4,66.5z M134.2,72.4v20.1c0,0,4.7,2.6,4.8-10.7C139,81.8,139,71.8,134.2,72.4L134.2,72.4z"/>
		<path fill-rule="evenodd" clip-rule="evenodd" fill="#918D8D" d="M148.4,52.5v45.8h15.8v-8.2l-8.4,0.3V79.3h5.8v-8.1h-5.8V60.7
			c0,0,7.2-0.3,8.3,0.4v-8.7L148.4,52.5L148.4,52.5z"/>
		<path fill-rule="evenodd" clip-rule="evenodd" fill="#008997" d="M123.8,76.1v17.4c0,2,1.2,5,1.2,5h-7.2l-1.4-2
			c-2.3,2.8-5.8,2.5-5.8,2.5c-5.3,0.4-7.1-8.3-7.1-8.3c-0.6-12,12-15,12-15c-0.3-1.3-1-3.8-4.6-3.7c-3.6,0.1-6.4,3.2-6.4,3.2v-9
			C125.1,63.8,123.8,76.1,123.8,76.1L123.8,76.1L123.8,76.1z M111.6,87.7c-0.1,1.9,0.5,4.5,2.1,4.6c1.6,0.1,2.4-1.1,2.4-1.1V82
			C114.6,82.3,111.6,85.8,111.6,87.7L111.6,87.7z"/>
		<path fill-rule="evenodd" clip-rule="evenodd" fill="#918D8D" d="M0,85.8v10.9c1.8,2.9,10.2,2.6,10.2,2.6
			c4.5,0.1,10.9-4.1,11.1-16c0,0,1.3-10.2-9-16.6c0,0-6.4-3.5-4.1-7.8c3.5-6.3,11,2.3,11,2.3l0.1-9.9C8.9,45.5,0,53.3,0,65.5
			c0,0,0.8,9.5,9.7,14c0,0,6.6,4.4,3.2,9.6C9.6,94.2,2.6,89.6,0,85.8L0,85.8z"/>
		<path fill-rule="evenodd" clip-rule="evenodd" fill="#918D8D" d="M60.1,81.9c0,9-4.6,16.3-10.4,16.3c-5.7,0-10.4-7.3-10.4-16.3
			c0-9,4.6-16.3,10.4-16.3C55.5,65.6,60.1,72.9,60.1,81.9L60.1,81.9L60.1,81.9z M49.4,71.6c-1.4,0-2.6,4.6-2.6,10.2
			c0,5.6,1.2,10.2,2.6,10.2c1.4,0,2.6-4.6,2.6-10.2C52,76.1,50.8,71.6,49.4,71.6L49.4,71.6z"/>
		<path fill-rule="evenodd" clip-rule="evenodd" fill="#918D8D" d="M22.1,66.9h16.5v5.5c-0.4-0.2-0.7-0.3-1.1-0.3h-3.7v24.7
			c0,0.7,0.1,1.2,0.2,1.6h-7.4c0.1-0.4,0.2-0.9,0.2-1.6V72.1h-3.4c-0.4,0-0.9,0.1-1.4,0.3V66.9L22.1,66.9z"/>
		<path fill-rule="evenodd" clip-rule="evenodd" fill="#918D8D" d="M79.2,67.6v8.6c0,0-2.3-5.1-5.2-5c-2.9,0.1-3.9,8-3.8,11.4
			c0.1,3.5,0.2,10.8,4.4,10.5c4.2-0.3,4.4-2.5,4.4-2.5l2.2,4.6c0,0-2.4,3.5-9.5,3.5c-7.1,0-9.6-11.8-9.5-16.4
			c0.2-4.6,2.2-15.8,10.7-16.5C73,65.8,76.9,65.4,79.2,67.6L79.2,67.6z"/>
		<path fill-rule="evenodd" clip-rule="evenodd" fill="#918D8D" d="M82.5,66.8h7.6c0,0-0.6,7.1-0.4,11.9c0,0,4.7-10.7,7.4-11.9
			c2.7-1.1,4.8-0.8,4.8-0.8v7.9c0,0-3.9-0.4-6,2.9l7,21.7h-8.4c0,0,0.3-4.8-3.3-12l-1.4,2.4v9.6h-7.3C82.5,98.5,83.4,71.6,82.5,66.8
			L82.5,66.8z"/>
		<path fill-rule="evenodd" clip-rule="evenodd" fill="#918D8D" d="M127.4,66.5h8.4c6.8,0,10.2,5.2,10.2,15.5
			c0,5.3-0.9,9.3-2.6,12.2c-1.6,2.6-3.5,3.8-5.9,3.8h-10.1c0.1-0.4,0.2-0.9,0.2-1.6V68.1C127.6,67.4,127.6,66.8,127.4,66.5
			L127.4,66.5L127.4,66.5z M134.2,72.4v20.1c0,0,4.7,2.6,4.8-10.7C139,81.8,139,71.8,134.2,72.4L134.2,72.4z"/>
		<path fill-rule="evenodd" clip-rule="evenodd" fill="#918D8D" d="M123.8,76.1v17.4c0,2,1.2,5,1.2,5h-7.2l-1.4-2
			c-2.3,2.8-5.8,2.5-5.8,2.5c-5.3,0.4-7.1-8.3-7.1-8.3c-0.6-12,12-15,12-15c-0.3-1.3-1-3.8-4.6-3.7c-3.6,0.1-6.4,3.2-6.4,3.2v-9
			C125.1,63.8,123.8,76.1,123.8,76.1L123.8,76.1L123.8,76.1z M111.6,87.7c-0.1,1.9,0.5,4.5,2.1,4.6c1.6,0.1,2.4-1.1,2.4-1.1V82
			C114.6,82.3,111.6,85.8,111.6,87.7L111.6,87.7z"/>
	</g>
	<g id="Teléfono">
	</g>
</g>
<g id="Grid">
</g>
</svg>
