<?xml version="1.0" encoding="utf-8"?>
<!-- Generator: Adobe Illustrator 17.1.0, SVG Export Plug-In . SVG Version: 6.00 Build 0)  -->
<!DOCTYPE svg PUBLIC "-//W3C//DTD SVG 1.1//EN" "http://www.w3.org/Graphics/SVG/1.1/DTD/svg11.dtd">
<svg version="1.1" xmlns="http://www.w3.org/2000/svg" xmlns:xlink="http://www.w3.org/1999/xlink" x="0px" y="0px" width="180px"
	 height="142.8px" viewBox="0 0 180 142.8" enable-background="new 0 0 180 142.8" xml:space="preserve">
<g id="Web">
	<g>
		<path fill-rule="evenodd" clip-rule="evenodd" fill="#918D8D" d="M87.6,0c39.1,0,70.8,32,70.8,71.4c0,39.4-31.7,71.4-70.8,71.4
			s-70.8-32-70.8-71.4C16.8,32,48.5,0,87.6,0L87.6,0z M87.6,6.9c35.3,0,64,28.9,64,64.5c0,35.6-28.7,64.5-64,64.5s-64-28.9-64-64.5
			C23.6,35.8,52.3,6.9,87.6,6.9L87.6,6.9z"/>
		<path fill-rule="evenodd" clip-rule="evenodd" fill="#FFFFFF" d="M88,4.3c36.9,0,66.8,30.2,66.8,67.4s-29.9,67.4-66.8,67.4
			c-36.9,0-66.8-30.2-66.8-67.4S51.1,4.3,88,4.3L88,4.3z M88,7.2c35.3,0,64,28.9,64,64.5s-28.7,64.5-64,64.5s-64-28.9-64-64.5
			S52.7,7.2,88,7.2L88,7.2z"/>
		<path fill-rule="evenodd" clip-rule="evenodd" fill="#918D8D" d="M87.6,6.9c35.3,0,64,28.9,64,64.5c0,35.6-28.7,64.5-64,64.5
			s-64-28.9-64-64.5C23.6,35.8,52.3,6.9,87.6,6.9L87.6,6.9z"/>
		<path fill-rule="evenodd" clip-rule="evenodd" fill="#FFFFFF" d="M46.6,42l0.8,6.2c3.6-0.9,7.1-1.6,10.1-0.7
			c6.2,1.8,6.8,9.5,7.9,14.8l8.9,43.4c1,4.8,4.2,12-2,14.3l-5.9,2.2l0.6,3.9l62.8-16.8l-1.7-3.1c-4,0.8-7.6,0.2-9.8-3.8
			c-0.7-1.3-1.3-3-1.7-5.2c-0.8-3.4-1.6-6.8-2.3-10.1c-5.3-23.6-10.1-47.3-13.7-70.9C85.1,26.9,67.4,35.8,46.6,42L46.6,42z"/>
		
			<path fill-rule="evenodd" clip-rule="evenodd" fill="none" stroke="#918D8D" stroke-width="14" stroke-linecap="round" stroke-linejoin="round" stroke-miterlimit="10" d="
			M7.1,55.6c-1.1-4.1,7.8-2.9,9.8-1c0.4,0.3,0.6,0.7,0.6,1l0.6,19.1c0.2,2.5,2.9,1.7,3-0.2c0-0.7,0.2-1.4,0.2-2.1
			c0.5-4.4,1.3-8.7,2.3-13c0.2-1.1,0.6-2.1,1.3-2.8c1.1-1,2.5-0.6,3.9-0.4c0.9,0.2,1.8,0.4,2.8,0.7c2.4,0.8,2.2,2.5,2.3,4.6
			l0.5,13.1c0.1,2.3,2.4,2.9,3,0.2L41,57.7c0.4-1.9,0.7-4,2.5-5.2c0.7-0.4,1.4-0.6,2.4-0.5l2.5,0.7c1.4,0.4,2.2,0.9,2.4,2.5
			c0.2,2.2-1.3,5.5-1.8,7.8l-6.6,27.7c-0.3,1.2-0.4,2.6-1.8,2.9c-1.3,0.3-2.6-0.2-3.9-0.5l-4.3-1.1c-1.3-0.4-2.3-1.1-2.6-2.5
			l-0.4-10.4c0-1.3,0.1-2.9-1.8-2.9c-1.6,0-1.7,1.6-1.9,2.8l-2.7,14.4c-0.8,0.4-1.8,0.5-3.1,0.5c-3.2,0-8.2-0.5-8.5-4.7L7.1,55.6
			L7.1,55.6z"/>
		
			<path fill-rule="evenodd" clip-rule="evenodd" fill="none" stroke="#918D8D" stroke-width="14" stroke-linecap="round" stroke-linejoin="round" stroke-miterlimit="10" d="
			M52.7,75.8c1.4,0.4,3,0.4,4.8-0.1c0.4-1.2,0.8-2.3,1.6-3.4c0.9-1.3,2.1-2.9,3.8-2c0.5,0.3,0.9,1.1,1.2,1.7l-0.1,5.3
			c-2.9,0.4-5.5,0.9-7.5,1.7c-2.3,0.9-5.1,3.6-5.6,6.2c-0.6,3.7,3,7.7,6.4,8.7c1.3,0.4,2.8,0.1,4.3-0.6c2.7-0.6,2.9,0.2,3,1.3
			l6.5,0.2c0.6-0.3,1.1-0.7,1.3-1.1c0.8-1.3,0.3-4.6,0.3-6.1l0.1-13.2c0-4.7-0.6-5.8-4.9-8.2c-3.4-1.9-7.6-3-10.9-0.8
			c-1,0.7-1.7,1.7-2.2,2.9l-2.2,4.2C51.5,74.3,50.2,75.1,52.7,75.8L52.7,75.8z M63.7,84.4c-0.3-2.2-3.2-1.7-5.8-0.1
			c-0.8,0.5-1.1,0.7-1.3,1.6c-0.3,1.3,0.2,2.1,1.3,2.8c1.2,0.7,2.7,0.9,4.5,0.4c0.5-0.1,1-0.2,1.2-0.6L63.7,84.4L63.7,84.4z"/>
		
			<path fill-rule="evenodd" clip-rule="evenodd" fill="none" stroke="#918D8D" stroke-width="14" stroke-linecap="round" stroke-linejoin="round" stroke-miterlimit="10" d="
			M80.7,53l-1.1,34.4c-0.1,2.4-0.6,3.8,1.3,5.5c1.5,1.4,3.2,1.4,4.9,0.2c0.6-0.4,1.1-1,1.7-1.7l0.2-4.2L89.3,57
			c0.2-3.6,1-4.7-2.2-6.7C83.7,48.2,81.1,48.2,80.7,53L80.7,53z"/>
		
			<path fill-rule="evenodd" clip-rule="evenodd" fill="none" stroke="#918D8D" stroke-width="14" stroke-linecap="round" stroke-linejoin="round" stroke-miterlimit="10" d="
			M108.8,52.7L108.4,65c-0.7,0.4-1.5,0.8-2.9-0.4c-1.8-0.9-3.5-0.9-5.3,0c-3.1,2.2-5.2,5.1-6.5,8.5c-1.7,4.4-2.4,9.5-0.3,13.9
			c0.2,0.5,0.5,0.9,0.8,1.4c1.7,2.8,3.8,4.4,7.2,4.3c2.4-0.1,2.9-0.9,4.4-2.4c0.7-0.7,1.4-1.2,2-1.3c-0.1,1.3,0.1,2.4,1.4,3.6
			c1.5,1.4,3.2,1.4,4.9,0.2c0.6-0.4,1.1-1,1.7-1.7l0.2-4.2l1.5-30.2c0.2-3.6,1-4.7-2.2-6.7C111.7,47.9,109.2,47.9,108.8,52.7
			L108.8,52.7z M101.3,73.3c-1.1,2.3-1.8,4.7-2.3,7.1c-0.4,2.1-1,5.2,0.8,6.8c1.7,1.5,4.1,0.4,5.6-0.8c1-0.9,1.9-1.9,2.6-3.2
			c1.9-3.4,2.6-7.4,1.5-11.1c-0.6-2-2-3.8-4.4-3.3C103.1,69.2,102.1,71.7,101.3,73.3L101.3,73.3z"/>
		
			<path fill-rule="evenodd" clip-rule="evenodd" fill="none" stroke="#918D8D" stroke-width="14" stroke-linecap="round" stroke-linejoin="round" stroke-miterlimit="10" d="
			M124.7,67.5c0.9-1.4,1.9-2.6,3.4-3.3c0.9-0.4,1.8-0.7,3-0.8c3,0.6,5.6,1.5,7.7,2.9s3.6,3.4,4.3,6c0.5,2.2,0.6,4.4,0.5,6.6
			c-0.2,2.3-0.6,4.6-1.4,6.9c-1,1.8-2.1,3.4-3.4,4.6c-1,0.9-2.2,1.7-3.5,2.2c-1.7,0.1-3.4-0.1-5.1-0.4c-3.3-0.7-5.9-1.5-7.6-4.6
			c-1.2-2.1-1-4.1-1-6.4C121.7,75.8,122.6,71.1,124.7,67.5L124.7,67.5z M128.2,76c-0.9,3-2.3,11.6,2.1,12.9c1.8,0.5,3.3-1,4.2-2.3
			c0.8-1.1,1.3-2.5,1.8-4.1c1-3.9,1.8-9-0.4-12.6c-0.7-1.2-1.5-1.7-2.3-1.6C131.2,68.5,128.8,74,128.2,76L128.2,76z"/>
		
			<path fill-rule="evenodd" clip-rule="evenodd" fill="none" stroke="#918D8D" stroke-width="14" stroke-linecap="round" stroke-linejoin="round" stroke-miterlimit="10" d="
			M147.7,48.2l-1.3,11.7l-0.2,1.8c-0.2,1.3,0.5,3.3,4.9,2.6c0.6-0.1,1.2-0.3,1.8-0.5l0.4-1.6l2.8-11.6c0.3-1.4,1.2-1.7-1.9-2.8
			C150.8,46.6,148.3,46.3,147.7,48.2L147.7,48.2z"/>
		
			<path fill-rule="evenodd" clip-rule="evenodd" fill="none" stroke="#918D8D" stroke-width="14" stroke-linecap="round" stroke-linejoin="round" stroke-miterlimit="10" d="
			M167.1,71.8c1.6,2,4.4,1.3,5.9,0.3c0-1.2,0.1-2.5-0.2-3.6c-1.2-3.8-3.1-5.5-7.2-6.2c-3.5-0.6-6.5,0.5-8.9,3.1
			c-0.3,0.4-0.6,0.8-0.9,1.2c-1.5,2.5-1.7,8.2,0.2,10.3c1.5,1.6,4.5,2.6,6.6,4.2c1.3,1,1.8,2.3,1.1,4c-1.3,3-5.3-0.7-6.5-2.1
			c-1.2,0-2.1,0.2-2.7,0.7c-1.8,1.3-0.8,2.3,0.4,3.3l1.2,1.1c2.1,1.8,3.3,2.4,6.2,2.6c1.1,0,2.3,0,3.6-0.3c1-0.5,2-1.1,2.9-1.8
			c0.5-0.4,1-1,1.5-1.6c1-1.2,1.5-2,1.5-3.6c0.3-5.3-10.3-6.7-11.2-11.9c-0.3-1.5,0.4-3.1,1.8-4.4c0.9-0.9,3.3-0.7,4.2,0.9
			C167.2,68.8,167.4,70.2,167.1,71.8L167.1,71.8z"/>
		
			<path fill-rule="evenodd" clip-rule="evenodd" fill="#FFFFFF" stroke="#FFFFFF" stroke-width="0.5" stroke-miterlimit="2.6131" d="
			M7.1,55.6c-1.1-4.1,7.8-2.9,9.8-1c0.4,0.3,0.6,0.7,0.6,1l0.6,19.1c0.2,2.5,2.9,1.7,3-0.2c0-0.7,0.2-1.4,0.2-2.1
			c0.5-4.4,1.3-8.7,2.3-13c0.2-1.1,0.6-2.1,1.3-2.8c1.1-1,2.5-0.6,3.9-0.4c0.9,0.2,1.8,0.4,2.8,0.7c2.4,0.8,2.2,2.5,2.3,4.6
			l0.5,13.1c0.1,2.3,2.4,2.9,3,0.2L41,57.7c0.4-1.9,0.7-4,2.5-5.2c0.7-0.4,1.4-0.6,2.4-0.5l2.5,0.7c1.4,0.4,2.2,0.9,2.4,2.5
			c0.2,2.2-1.3,5.5-1.8,7.8l-6.6,27.7c-0.3,1.2-0.4,2.6-1.8,2.9c-1.3,0.3-2.6-0.2-3.9-0.5l-4.3-1.1c-1.3-0.4-2.3-1.1-2.6-2.5
			l-0.4-10.4c0-1.3,0.1-2.9-1.8-2.9c-1.6,0-1.7,1.6-1.9,2.8l-2.7,14.4c-0.8,0.4-1.8,0.5-3.1,0.5c-3.2,0-8.2-0.5-8.5-4.7L7.1,55.6
			L7.1,55.6z"/>
		
			<path fill-rule="evenodd" clip-rule="evenodd" fill="#FFFFFF" stroke="#FFFFFF" stroke-width="0.5" stroke-miterlimit="2.6131" d="
			M52.7,75.8c1.4,0.4,3,0.4,4.8-0.1c0.4-1.2,0.8-2.3,1.6-3.4c0.9-1.3,2.1-2.9,3.8-2c0.5,0.3,0.9,1.1,1.2,1.7l-0.1,5.3
			c-2.9,0.4-5.5,0.9-7.5,1.7c-2.3,0.9-5.1,3.6-5.6,6.2c-0.6,3.7,3,7.7,6.4,8.7c1.3,0.4,2.8,0.1,4.3-0.6c2.7-0.6,2.9,0.2,3,1.3
			l6.5,0.2c0.6-0.3,1.1-0.7,1.3-1.1c0.8-1.3,0.3-4.6,0.3-6.1l0.1-13.2c0-4.7-0.6-5.8-4.9-8.2c-3.4-1.9-7.6-3-10.9-0.8
			c-1,0.7-1.7,1.7-2.2,2.9l-2.2,4.2C51.5,74.3,50.2,75.1,52.7,75.8L52.7,75.8z M63.7,84.4c-0.3-2.2-3.2-1.7-5.8-0.1
			c-0.8,0.5-1.1,0.7-1.3,1.6c-0.3,1.3,0.2,2.1,1.3,2.8c1.2,0.7,2.7,0.9,4.5,0.4c0.5-0.1,1-0.2,1.2-0.6L63.7,84.4L63.7,84.4z"/>
		
			<path fill-rule="evenodd" clip-rule="evenodd" fill="#FFFFFF" stroke="#FFFFFF" stroke-width="0.5" stroke-miterlimit="2.6131" d="
			M80.7,53l-1.1,34.4c-0.1,2.4-0.6,3.8,1.3,5.5c1.5,1.4,3.2,1.4,4.9,0.2c0.6-0.4,1.1-1,1.7-1.7l0.2-4.2L89.3,57
			c0.2-3.6,1-4.7-2.2-6.7C83.7,48.2,81.1,48.2,80.7,53L80.7,53z"/>
		
			<path fill-rule="evenodd" clip-rule="evenodd" fill="#FFFFFF" stroke="#FFFFFF" stroke-width="0.5" stroke-miterlimit="2.6131" d="
			M108.8,52.7L108.4,65c-0.7,0.4-1.5,0.8-2.9-0.4c-1.8-0.9-3.5-0.9-5.3,0c-3.1,2.2-5.2,5.1-6.5,8.5c-1.7,4.4-2.4,9.5-0.3,13.9
			c0.2,0.5,0.5,0.9,0.8,1.4c1.7,2.8,3.8,4.4,7.2,4.3c2.4-0.1,2.9-0.9,4.4-2.4c0.7-0.7,1.4-1.2,2-1.3c-0.1,1.3,0.1,2.4,1.4,3.6
			c1.5,1.4,3.2,1.4,4.9,0.2c0.6-0.4,1.1-1,1.7-1.7l0.2-4.2l1.5-30.2c0.2-3.6,1-4.7-2.2-6.7C111.7,47.9,109.2,47.9,108.8,52.7
			L108.8,52.7z M101.3,73.3c-1.1,2.3-1.8,4.7-2.3,7.1c-0.4,2.1-1,5.2,0.8,6.8c1.7,1.5,4.1,0.4,5.6-0.8c1-0.9,1.9-1.9,2.6-3.2
			c1.9-3.4,2.6-7.4,1.5-11.1c-0.6-2-2-3.8-4.4-3.3C103.1,69.2,102.1,71.7,101.3,73.3L101.3,73.3z"/>
		
			<path fill-rule="evenodd" clip-rule="evenodd" fill="#FFFFFF" stroke="#FFFFFF" stroke-width="0.5" stroke-miterlimit="2.6131" d="
			M124.7,67.5c0.9-1.4,1.9-2.6,3.4-3.3c0.9-0.4,1.8-0.7,3-0.8c3,0.6,5.6,1.5,7.7,2.9s3.6,3.4,4.3,6c0.5,2.2,0.6,4.4,0.5,6.6
			c-0.2,2.3-0.6,4.6-1.4,6.9c-1,1.8-2.1,3.4-3.4,4.6c-1,0.9-2.2,1.7-3.5,2.2c-1.7,0.1-3.4-0.1-5.1-0.4c-3.3-0.7-5.9-1.5-7.6-4.6
			c-1.2-2.1-1-4.1-1-6.4C121.7,75.8,122.6,71.1,124.7,67.5L124.7,67.5z M128.2,76c-0.9,3-2.3,11.6,2.1,12.9c1.8,0.5,3.3-1,4.2-2.3
			c0.8-1.1,1.3-2.5,1.8-4.1c1-3.9,1.8-9-0.4-12.6c-0.7-1.2-1.5-1.7-2.3-1.6C131.2,68.5,128.8,74,128.2,76L128.2,76z"/>
		
			<path fill-rule="evenodd" clip-rule="evenodd" fill="#FFFFFF" stroke="#FFFFFF" stroke-width="0.5" stroke-miterlimit="2.6131" d="
			M147.7,48.2l-1.3,11.7l-0.2,1.8c-0.2,1.3,0.5,3.3,4.9,2.6c0.6-0.1,1.2-0.3,1.8-0.5l0.4-1.6l2.8-11.6c0.3-1.4,1.2-1.7-1.9-2.8
			C150.8,46.6,148.3,46.3,147.7,48.2L147.7,48.2z"/>
		
			<path fill-rule="evenodd" clip-rule="evenodd" fill="#FFFFFF" stroke="#FFFFFF" stroke-width="0.5" stroke-miterlimit="2.6131" d="
			M167.1,71.8c1.6,2,4.4,1.3,5.9,0.3c0-1.2,0.1-2.5-0.2-3.6c-1.2-3.8-3.1-5.5-7.2-6.2c-3.5-0.6-6.5,0.5-8.9,3.1
			c-0.3,0.4-0.6,0.8-0.9,1.2c-1.5,2.5-1.7,8.2,0.2,10.3c1.5,1.6,4.5,2.6,6.6,4.2c1.3,1,1.8,2.3,1.1,4c-1.3,3-5.3-0.7-6.5-2.1
			c-1.2,0-2.1,0.2-2.7,0.7c-1.8,1.3-0.8,2.3,0.4,3.3l1.2,1.1c2.1,1.8,3.3,2.4,6.2,2.6c1.1,0,2.3,0,3.6-0.3c1-0.5,2-1.1,2.9-1.8
			c0.5-0.4,1-1,1.5-1.6c1-1.2,1.5-2,1.5-3.6c0.3-5.3-10.3-6.7-11.2-11.9c-0.3-1.5,0.4-3.1,1.8-4.4c0.9-0.9,3.3-0.7,4.2,0.9
			C167.2,68.8,167.4,70.2,167.1,71.8L167.1,71.8z"/>
		<path fill-rule="evenodd" clip-rule="evenodd" fill="#FFFFFF" d="M53.8,24.7c18.7-17,56.5-13.2,68.1-0.3
			c-3.7-7.5-14.9-12.1-35.3-12.8C69.7,12.4,59.1,17,53.8,24.7L53.8,24.7z"/>
	</g>
	<g id="Teléfono">
	</g>
</g>
<g id="Grid">
</g>
</svg>
