<?xml version="1.0" encoding="utf-8"?>
<!-- Generator: Adobe Illustrator 17.1.0, SVG Export Plug-In . SVG Version: 6.00 Build 0)  -->
<!DOCTYPE svg PUBLIC "-//W3C//DTD SVG 1.1//EN" "http://www.w3.org/Graphics/SVG/1.1/DTD/svg11.dtd">
<svg version="1.1" xmlns="http://www.w3.org/2000/svg" xmlns:xlink="http://www.w3.org/1999/xlink" x="0px" y="0px" width="169.8px"
	 height="35.7px" viewBox="0 0 169.8 35.7" enable-background="new 0 0 169.8 35.7" xml:space="preserve">
<g id="Web">
	<g>
		<path fill-rule="evenodd" clip-rule="evenodd" fill="#918D8D" d="M17.8,0c9.9,0,17.8,8,17.8,17.8c0,9.9-8,17.8-17.8,17.8
			C8,35.7,0,27.7,0,17.8C0,8,8,0,17.8,0L17.8,0z M17.8,1.7C8.9,1.7,1.7,8.9,1.7,17.8C1.7,26.8,8.9,34,17.8,34S34,26.8,34,17.8
			C34,8.9,26.8,1.7,17.8,1.7z"/>
		<path fill-rule="evenodd" clip-rule="evenodd" fill="#918D8D" d="M18.7,21.3v5.5H17v-5.5c-0.8,0-1.9,0-2.3,0l-5.8,0
			c-0.5,0-1-0.1-1.5-0.3c-0.9-0.5-1.4-1.4-1.3-2.4c0-0.1,0-0.3,0-0.4c0.2-1.2,0.6-2.3,1.2-3.4c0.6-1.1,1.4-2,2.3-2.8
			c0.6-0.4,1.5-0.7,2.2-0.5c0.2-0.7,0.7-1.4,1.4-1.7c0.1-0.1,0.2-0.1,0.3-0.2c1.3-0.5,2.7-0.7,4.2-0.7c1.5,0,2.9,0.3,4.2,0.7
			c0.8,0.3,1.4,1,1.7,1.8c0.7-0.2,1.5,0,2.1,0.5c0.9,0.8,1.8,1.8,2.4,2.9c0.6,1.1,1,2.2,1.2,3.4c0,0.1,0,0.2,0,0.4
			c0,0.9-0.4,1.9-1.3,2.4c-0.5,0.3-1,0.4-1.5,0.3l-5.8,0C20.6,21.3,19.6,21.3,18.7,21.3L18.7,21.3z M24.9,13.4
			c-0.3-0.2-0.7-0.2-1-0.1c-0.2,0.1-0.3,0.2-0.4,0.4l-2.9,5.1c-0.1,0.1-0.1,0.3,0,0.5c0.1,0.2,0.3,0.2,0.4,0.2l5.9,0
			c0.2,0,0.4,0,0.5-0.1c0.3-0.2,0.5-0.5,0.4-0.8c0,0,0-0.1,0-0.1c-0.2-1-0.5-1.9-1-2.8C26.3,14.8,25.7,14,24.9,13.4
			C24.9,13.4,24.9,13.4,24.9,13.4L24.9,13.4z M10.8,13.4C10.8,13.4,10.8,13.4,10.8,13.4c-0.8,0.7-1.4,1.4-2,2.3
			c-0.5,0.9-0.9,1.8-1,2.8c0,0,0,0.1,0,0.1c0,0.3,0.1,0.7,0.4,0.8c0.2,0.1,0.3,0.1,0.5,0.1l5.9,0c0.2,0,0.3-0.1,0.4-0.2
			c0.1-0.2,0.1-0.3,0-0.5l-2.9-5.1c-0.1-0.2-0.2-0.3-0.4-0.4C11.5,13.1,11.1,13.2,10.8,13.4L10.8,13.4z M21.5,11.3
			C21.5,11.3,21.5,11.3,21.5,11.3c-1.2-0.4-2.4-0.7-3.7-0.7c-1.3,0-2.5,0.2-3.6,0.6c0,0-0.1,0-0.1,0c-0.4,0.2-0.6,0.6-0.6,1
			c0,0.2,0.1,0.4,0.2,0.6l3.6,6.3c0.1,0.2,0.3,0.3,0.5,0.3c0.2,0,0.4-0.1,0.5-0.3L22,13c0.1-0.2,0.2-0.4,0.2-0.6
			C22.2,11.9,21.9,11.5,21.5,11.3z"/>
		<polygon fill-rule="evenodd" clip-rule="evenodd" fill="#918D8D" points="51.2,8.5 55.6,17.4 59.9,8.5 66.5,8.5 66.5,26.3 
			59.9,26.3 59.9,17.4 55.6,26.3 51.2,17.4 51.2,26.3 44.6,26.3 44.6,8.5 		"/>
		<path fill-rule="evenodd" clip-rule="evenodd" fill="#918D8D" d="M79.6,11.2l-2.7,9.3h5.4L79.6,11.2L79.6,11.2z M68.6,26.3
			l5.1-17.8h11.6l5.1,17.8h-6.6l-0.8-2.9h-7l-0.8,2.9H68.6z"/>
		<path fill-rule="evenodd" clip-rule="evenodd" fill="#918D8D" d="M100.7,10.6c1.5,0,2.9,0.8,2.9,2.4c0,1.6-1.3,2.9-2.9,2.9h-1.4
			v-5.3H100.7L100.7,10.6z M104.9,8.5H92.6v17.8h6.6v-7.4h5.7c2.9,0,5.2-2.3,5.2-5.2C110.1,10.8,107.8,8.5,104.9,8.5z"/>
		<polygon fill-rule="evenodd" clip-rule="evenodd" fill="#918D8D" points="112.4,8.5 129.9,8.5 129.9,11.4 119,11.4 119,16 
			129.9,16 129.9,18.9 119,18.9 119,26.3 112.4,26.3 		"/>
		<polygon fill-rule="evenodd" clip-rule="evenodd" fill="#918D8D" points="158.8,23.4 169.8,23.4 169.8,26.3 152.2,26.3 152.2,8.5 
			169.8,8.5 169.8,11.4 158.8,11.4 158.8,16 169.8,16 169.8,18.9 158.8,18.9 		"/>
		<path fill-rule="evenodd" clip-rule="evenodd" fill="#918D8D" d="M140.4,10.6c1.4,0,2.9,0.8,2.9,2.4c0,1.6-1.3,2.9-2.9,2.9h-1.4
			v-5.3H140.4L140.4,10.6z M149.8,21.7v0.1C149.8,21.8,149.8,21.8,149.8,21.7L149.8,21.7z M149.8,21.9c0,0,0-0.1,0-0.1
			c-0.1-2.4-2-4.3-4.5-4.3c2.5,0,4.5-2,4.5-4.5c0-2.5-2-4.5-4.5-4.5h-5.8h-7.3v8.9v8.9l6.7,0V19h1.4c1.6,0,2.9,1.3,2.9,2.9
			c0,0,0,0.1,0,0.1v4.3h2h4.5V21.9z"/>
	</g>
	<g id="Teléfono">
	</g>
</g>
<g id="Grid">
</g>
</svg>
