<?xml version="1.0" encoding="utf-8"?>
<!-- Generator: Adobe Illustrator 17.1.0, SVG Export Plug-In . SVG Version: 6.00 Build 0)  -->
<!DOCTYPE svg PUBLIC "-//W3C//DTD SVG 1.1//EN" "http://www.w3.org/Graphics/SVG/1.1/DTD/svg11.dtd">
<svg version="1.1" xmlns="http://www.w3.org/2000/svg" xmlns:xlink="http://www.w3.org/1999/xlink" x="0px" y="0px" width="167.1px"
	 height="34.1px" viewBox="0 0 167.1 34.1" enable-background="new 0 0 167.1 34.1" xml:space="preserve">
<g id="Web">
	<g>
		<path fill-rule="evenodd" clip-rule="evenodd" fill="#918D8D" d="M5.5,4.1C4.3,5.6,4.1,7,4.9,8.5l2.2,2.8l-4.2,1.5
			c-2,0.3-2.9,1.7-2.8,4c-0.1,2.2,0.5,4.5,1.5,7c1,1.6,2,2.4,3,2.4L9,24.9v5c-0.1,1.2,0.3,2.1,1.3,2.7c1.6,1,4.2,1.5,7.9,1.5
			c2.9-0.2,4.3-1.8,4.4-4.7v-2.4l4.3,1.7c1.5,0.5,2.7,0.2,3.7-0.7c2.2-1.8,3.6-4.6,4-8.7c0.1-1.5-0.7-2.5-2.4-2.9l-3.2-1.3l2.9-3.6
			l0.8-2c0-0.7-0.4-1.5-1-2.7c-1.1-1.7-3-3.3-5.6-5.1c-1.9-1-3.4-0.7-4.5,0.9l-2.1,2.5l-3-4c-1-1.2-2.5-1.5-4.4-1
			C9.4,1.3,7.2,2.5,5.5,4.1L5.5,4.1z M11.4,8.8l-0.7-1.2c2.7-2.1,5.6-2.7,8.8-2l-1.4,1.7l-0.8,2L16.4,8C16,7.2,15.1,7,13.7,7.4
			L11.4,8.8L11.4,8.8z M10,14.7L8.9,15c-0.9,0.3-1.3,1.1-1.3,2.5c0.1,1.2,0.3,2,0.5,2.4l-1.3,0.5c-1.4-2.5-1.2-5.4,0.5-8.9l1.5,2.2
			L10,14.7L10,14.7z M15.1,13.2c1.4-1.1,2.1-2.3,2.4-3.6c0.3,2.8,2.5,4.5,6.5,5.2c-2.4,1.8-3.2,4.3-2.3,7.4c-2.6-1.6-5.3-1.6-8.1,0
			c0.8-3.7-0.2-6.2-2.8-7.6C12.2,14.8,13.6,14.3,15.1,13.2L15.1,13.2z M27.1,14.5l-2.5-0.2l1.3-1.8c0-1-0.8-2.3-2.5-3.7l0.8-1.2
			c1.4,1.1,2.3,2.1,2.8,3l1.9,4.6L27.1,14.5L27.1,14.5z M26.9,19.7l1.4,0.7c-1.1,3.2-3,5.4-5.7,6.5v-1.8c0.1-1.2-0.2-2-0.7-2.4
			l1.6,0.5c0.6,0.2,1.3-0.1,2-0.7C26.2,22,26.7,21,26.9,19.7L26.9,19.7z M11.7,24.1c0.5-0.2,1.1-0.7,1.5-1.4v1.9
			c-0.2,1.4,1.2,2.1,4.2,2.1v1.4c-2.6,0.3-5.3-0.8-8.2-3.4L11.7,24.1L11.7,24.1z"/>
		<path fill-rule="evenodd" clip-rule="evenodd" fill="#918D8D" d="M59.3,16c2.1-1.5,3.2-3.2,3.2-5.2c0-3.6-2.1-5.4-6.2-5.4h-8.6
			l-2.1,22.7h10.1c4.5,0,7-2.3,7.2-6.7c0-1.8-0.5-3.2-1.5-4.1L59.3,16L59.3,16z M52.1,9h3.4c1.6-0.1,2.3,0.7,2.3,2.3
			c-0.1,2.7-1.8,3.8-4.9,3.4l-0.3,3.6h2.2c2.2-0.1,3.3,0.8,3.3,2.5c0,2.4-1.1,3.6-3.3,3.7h-4L52.1,9L52.1,9z"/>
		<path fill-rule="evenodd" clip-rule="evenodd" fill="#918D8D" d="M78.3,16.5c0.2-2.8-1.1-4.6-3.8-5.2c-2.1-0.4-4.8,0-7.9,1.4V16
			c1.6-0.9,3.3-1.4,5.2-1.5c1.5,0,2.2,0.7,2.2,2l-0.3,5.2c-0.2,2.1-1.2,3.2-2.9,3.2c-1.5,0-2.2-0.7-2.2-2c0-1.9,1.2-2.8,3.7-2.8
			l0.4-3.4c-5.4,0-8.1,2.1-8.1,6.4c0,3.8,2,5.5,5.9,5.2h2.6c2.4,0.4,3.9-0.7,4.4-3.3L78.3,16.5L78.3,16.5z"/>
		<path fill-rule="evenodd" clip-rule="evenodd" fill="#918D8D" d="M95.1,16c0.5-3.1-0.7-4.7-3.6-4.7l-9,0.2l-1.7,16.6h4.3l1.4-12.9
			h2.2c1.2-0.1,1.8,0.5,1.8,1.5l-1.2,11.4h4.6L95.1,16L95.1,16z"/>
		<path fill-rule="evenodd" clip-rule="evenodd" fill="#918D8D" d="M107,11.3c-2.1-0.4-4.7,0-7.8,1.4V16c1.5-0.9,3.3-1.4,5.2-1.5
			c1.4,0,2.1,0.7,2.2,2l-0.5,5.2c-0.2,2.1-1.1,3.2-2.6,3.2c-1.6,0-2.4-0.7-2.4-2c0-1.9,1.3-2.8,3.8-2.8l0.2-3.4
			c-5.2,0-7.8,2.1-7.8,6.4c0,3.8,2,5.5,5.9,5.2h2.5c2.5,0.4,4.1-0.7,4.5-3.3l0.7-8.4C111,13.7,109.8,11.9,107,11.3L107,11.3z"/>
		<path fill-rule="evenodd" clip-rule="evenodd" fill="#918D8D" d="M130.3,11.3l-16.1,0.2l-1.3,16.6h4.4l1.3-12.8l1.8-0.1
			c1-0.1,1.5,0.4,1.5,1.1l-1,11.4v0.2h4.4l1-12.7l2.2-0.2c0.9-0.1,1.2,0.3,1.2,1l-1,11.9h4.5l1.2-12.9
			C134.4,12.4,133,11.2,130.3,11.3L130.3,11.3z"/>
		<path fill-rule="evenodd" clip-rule="evenodd" fill="#918D8D" d="M143.2,14.5c1.5,0,2.2,0.7,2.2,2c0,2-1.3,3-3.8,3l-0.4,3.2
			c5,0.7,7.7-1.4,7.9-6.2c0.2-3.6-1.7-5.4-5.7-5.4c-4.6,0-7.2,2.8-7.9,8.4c-0.7,5.8,1.5,8.7,7,8.7c2-0.1,3.6-0.5,4.7-1.2l0.3-3.3
			c-1.4,0.9-2.8,1.3-4.4,1.3c-2.3,0-3.4-1.5-3.3-4.5C140.3,16.5,141.4,14.5,143.2,14.5L143.2,14.5z"/>
		<path fill-rule="evenodd" clip-rule="evenodd" fill="#918D8D" d="M162.6,11.7l-3.2,4.4l-1.3-2.4c-0.8-1.4-1.7-2-2.7-2H152l4.4,8.1
			l-6.7,8.4h4.5l4.2-5l1.8,3.4c0.6,1.1,1.5,1.7,2.5,1.7h3.5l-5-8.9l5.9-7.6H162.6L162.6,11.7z"/>
	</g>
	<g id="Teléfono">
	</g>
</g>
<g id="Grid">
</g>
</svg>
