<?xml version="1.0" encoding="utf-8"?>
<!-- Generator: Adobe Illustrator 17.1.0, SVG Export Plug-In . SVG Version: 6.00 Build 0)  -->
<!DOCTYPE svg PUBLIC "-//W3C//DTD SVG 1.1//EN" "http://www.w3.org/Graphics/SVG/1.1/DTD/svg11.dtd">
<svg version="1.1" xmlns="http://www.w3.org/2000/svg" xmlns:xlink="http://www.w3.org/1999/xlink" x="0px" y="0px" width="164.6px"
	 height="45.2px" viewBox="0 0 164.6 45.2" enable-background="new 0 0 164.6 45.2" xml:space="preserve">
<g id="Web">
	<g>
		<polyline fill-rule="evenodd" clip-rule="evenodd" fill="#918D8D" points="0,44 1,42.5 24.9,43.4 24.8,43.9 0,44 		"/>
		<polyline fill-rule="evenodd" clip-rule="evenodd" fill="#918D8D" points="1.6,41.7 3.3,39.2 25.3,40.5 25.4,40.8 1.6,41.7 		"/>
		<polyline fill-rule="evenodd" clip-rule="evenodd" fill="#918D8D" points="3.9,38.4 5.5,36.1 26.4,37.2 26.2,37.8 3.9,38.4 		"/>
		<polyline fill-rule="evenodd" clip-rule="evenodd" fill="#918D8D" points="6.2,35.1 7.8,32.9 28.1,34.2 28,34.4 6.2,35.1 		"/>
		<path fill-rule="evenodd" clip-rule="evenodd" fill="#918D8D" d="M17.9,18.2L30.7,0l13.6,19.5c1.9,2.7,3,5.9,3,9.4
			c0,9-7.2,16.3-16,16.3c-2.4,0-4.4-0.4-6.5-1.4c0.4-7.6,4.9-13.7,10.3-13.7c2.7,0,4.3,0.3,6.6,4c1-1.3,1.6-3.1,1.6-5
			c0-4.3-2.4-7.6-6.3-7.4l-26.8,1.1c-0.3-0.5-0.4-0.8-0.4-1.4c0-0.6,0-0.9,0.2-1.4l2.3,1.7L14,22l-0.3-1.5l19.9,0.7
			c0.7,0.2,1.5,0.3,1.5-0.4c0-0.7-0.9-1.5-2-2c-1.2-0.5-3-0.2-6.2-0.1c-5.8,0.3-13.6,1-13.6,1s-0.5-1.5-0.5-2.1c0-0.6,0-1.2,0.3-1.9
			c0.6,0.8,1,1.1,1.9,1.6C16.3,18.2,17.9,18.2,17.9,18.2"/>
		<path fill-rule="evenodd" clip-rule="evenodd" fill="#918D8D" d="M33.9,24.4c-0.1-0.1-0.7-0.1-0.7-0.5c0-0.9-0.7-1.6-1.6-1.6
			l-5.4,0.4l0.9,0.8c0.2,0,0.3,0.2,0.3,0.4c0,0.2-0.3,0.3-0.5,0.3l-16.8-0.6c0,0,0.3,1.1,0.4,1.4c0.1,0.3,0.5,0.8,0.8,0.9
			c0.4,0.1,9.2-0.3,9.9-0.2c0.7,0,20.7-0.5,20.7-0.5s0.3,0,0.4,0.1c0.1,0.1-0.4-0.9-0.4-0.9s-0.1,0.3-0.5,0.4
			C41.2,24.7,34,24.4,33.9,24.4"/>
		<path fill-rule="evenodd" clip-rule="evenodd" fill="#918D8D" d="M42.8,28.4c-4.4,0.1-31.2,0.7-32.3,0.7c-1.2-0.1-2.6,0.2-2.6,0.2
			s-0.9-1.9-1-2.4c-0.4-1.5,0.3-2.5,0.3-2.5s2.3,2.5,4.9,2.5c2.4,0.1,26.4,1,30.7,1.1c0,0,0.2,0.1,0.2-0.1c0.1-0.1,0.2-0.4,0.2-0.4
			s0.1,0.7,0.1,0.9c0,0.1,0,0.4,0,0.4s-0.2-0.1-0.2-0.2C43,28.4,42.8,28.4,42.8,28.4"/>
		<path fill-rule="evenodd" clip-rule="evenodd" fill="#918D8D" d="M42.4,31.3l-34,0.7l0.1-1L8.2,30l34.5,1l0.3-0.2l0.1-0.1
			c0,0-0.1,0.5-0.1,0.7c-0.1,0.2-0.2,0.6-0.2,0.6l-0.1-0.3L42.4,31.3"/>
		<path fill-rule="evenodd" clip-rule="evenodd" fill="#918D8D" d="M74.1,30.3c0,1.1-1.4,2-2.5,2h-8.8v-4h5.8c0.6,0,1.1-0.5,1.1-1.1
			v-2.6c0-0.6-0.5-1.1-1.1-1.1h-7.4V38h-4.5V19.6h14.8c1.1,0,2.5,1,2.5,2.1V30.3"/>
		<path fill-rule="evenodd" clip-rule="evenodd" fill="#918D8D" d="M164.6,33.9h-1.9c-0.4,0-0.8-0.3-1-0.6l-3.9-4.6l3.9-4.6
			c0.2-0.3,0.5-0.6,0.9-0.6c0.1,0,1.9,0,1.9,0l0-3.9l-4.5,0c-0.6,0-1.2,0.4-1.6,0.9l-4.1,4.6l-4.1-4.6c-0.4-0.5-0.9-0.9-1.6-0.9
			l-4.5,0l0,3.9c0,0,1.8,0,1.9,0c0.4,0,0.7,0.2,0.9,0.6l3.9,4.6l-3.9,4.6c-0.2,0.3-0.6,0.6-1,0.6l-14.8,0c-0.6,0-1.1-0.4-1.1-1v-2.2
			h10.2v-4h-10.2v-2c0-0.6,0.5-1.1,1-1.1h10.5v-4h-14.7c-1.1,0-1.9,0.9-1.9,2V36c0,1.1,0.7,2,1.8,2h21.8c0.6,0,1.1-0.3,1.5-0.7
			l4-4.9h0.2l4,4.9c0.4,0.5,0.9,0.7,1.5,0.7h4.6V33.9"/>
		<path fill-rule="evenodd" clip-rule="evenodd" fill="#918D8D" d="M121.7,19.6H117c-0.8,0-1.6,0.5-2.1,1.2l-5.6,10.7l-5.8-10.7
			c-0.4-0.7-1.2-1.2-2.1-1.2h-4.7v13.4c0,0.6-0.5,1-1.1,1H83.4c-0.6,0-1.1-0.4-1.1-1v-2.2h10.2v-3.9H82.4v-2.1
			c0-0.6,0.5-1.1,1.1-1.1h10.2v-4H79.2c-1.1,0-2,0.9-2,2V36c0,1.1,0.9,2,2,2l20.2,0c1.1,0,2.2-1.1,2.2-2.2v-8.3l5.4,10.1
			c0.5,0.6,4,0.6,4.5,0l5.4-10.1V38h4.8L121.7,19.6"/>
	</g>
	<g id="Teléfono">
	</g>
</g>
<g id="Grid">
</g>
</svg>
