<?xml version="1.0" encoding="utf-8"?>
<!-- Generator: Adobe Illustrator 17.1.0, SVG Export Plug-In . SVG Version: 6.00 Build 0)  -->
<!DOCTYPE svg PUBLIC "-//W3C//DTD SVG 1.1//EN" "http://www.w3.org/Graphics/SVG/1.1/DTD/svg11.dtd">
<svg version="1.1" xmlns="http://www.w3.org/2000/svg" xmlns:xlink="http://www.w3.org/1999/xlink" x="0px" y="0px" width="171.5px"
	 height="35.4px" viewBox="0 0 171.5 35.4" enable-background="new 0 0 171.5 35.4" xml:space="preserve">
<g id="Web">
	<g>
		<path fill-rule="evenodd" clip-rule="evenodd" fill="#918D8D" d="M65.7,2.5l-4.4,6.7h-3.6l-3.1,4.6h3.8L47.5,30.1
			c0,0-0.8,1.3-0.8,3.2c0,1.9,2.3,2.1,2.3,2.1h8.3l2.6-4.7h-4.1c0,0-1.6-0.2-0.8-1.5c0.7-1.3,10.2-15.4,10.2-15.4h4.8l2.6-4.6h-4.4
			l4.4-6.7H65.7L65.7,2.5z"/>
		<polygon fill-rule="evenodd" clip-rule="evenodd" fill="#918D8D" points="91.4,35.4 112.5,2.5 105.4,2.5 84.4,35.4 91.4,35.4 		
			"/>
		<polygon fill-rule="evenodd" clip-rule="evenodd" fill="#918D8D" points="150.5,35.4 171.5,2.5 164.5,2.5 143.5,35.4 150.5,35.4 
					"/>
		<path fill-rule="evenodd" clip-rule="evenodd" fill="#918D8D" d="M88.2,24.7H71.3c0,0-1.7,2.1-1.9,3.9c0,0,0,1.5,1.8,1.5
			c1.8,0,13,0,13,0l-3.4,5.3H70.2c0,0-8,0-8-4.7c0,0-0.1-3.5,5.8-11.7c5.9-8.2,9.9-8.5,16.7-8.5c6.8,0,8.6,2.1,8.4,3.9
			C92.9,16.3,92.6,17.4,88.2,24.7L88.2,24.7z M74.2,20.1h11.1c0,0,1.2-2.1,1.6-3.9c0.4-1.8-1.7-2.2-3.9-2.2
			C80.8,14,77.3,14.2,74.2,20.1L74.2,20.1z"/>
		<path fill-rule="evenodd" clip-rule="evenodd" fill="#918D8D" d="M146.6,24.7h-16.9c0,0-1.7,2.1-1.9,3.9c0,0,0,1.5,1.8,1.5
			c1.8,0,13,0,13,0l-3.4,5.3h-10.6c0,0-8,0-8-4.7c0,0-0.1-3.5,5.8-11.7c5.9-8.2,9.9-8.5,16.7-8.5c6.8,0,8.6,2.1,8.4,3.9
			C151.3,16.3,151,17.4,146.6,24.7L146.6,24.7z M132.6,20.1h11.1c0,0,1.2-2.1,1.6-3.9c0.4-1.8-1.7-2.2-3.9-2.2
			C139.2,14,135.7,14.2,132.6,20.1L132.6,20.1z"/>
		<path fill-rule="evenodd" clip-rule="evenodd" fill="#918D8D" d="M128.6,10.4l-3.4,5.2c0,0-5.6,0-6.1,0c-0.6,0-5,0.5-9,4.9
			c-4,4.5-4.3,6.6-4.5,8.1c0,0,0,1.5,1.8,1.5c1.8,0,11.3,0,11.3,0l-3.4,5.3h-8.9c0,0-8.7,0.3-8-4.7c0,0-0.1-3.5,5.8-11.7
			c0,0,5.3-8.5,16.9-8.5H128.6L128.6,10.4z"/>
		<path fill-rule="evenodd" clip-rule="evenodd" fill="#918D8D" d="M153.2,35.4l1.4-2.2h0.5l-0.4,1.8l1.9-1.8h0.5l-1.4,2.2h-0.3
			l0.8-1.3c0,0,0.1-0.1,0.1-0.2c0.1-0.1,0.1-0.2,0.2-0.3l-1.9,1.8h-0.3l0.4-1.8l0,0.1c0,0-0.1,0.1-0.2,0.2c-0.1,0.1-0.1,0.2-0.1,0.2
			l-0.8,1.3H153.2L153.2,35.4z"/>
		<polygon fill-rule="evenodd" clip-rule="evenodd" fill="#918D8D" points="156.3,35.4 156.5,35.1 156.9,35.1 156.7,35.4 
			156.3,35.4 		"/>
		<path fill-rule="evenodd" clip-rule="evenodd" fill="#918D8D" d="M159.4,33.5h0.9c0.1,0,0.2,0,0.3,0c0.1,0.1,0.1,0.2,0,0.3
			c-0.1,0.1-0.2,0.3-0.3,0.3c-0.1,0.1-0.3,0.1-0.4,0.1h-0.8L159.4,33.5L159.4,33.5z M158.2,35.4l0.6-0.9h0.8c0.1,0,0.2,0,0.3,0
			c0.1,0.1,0.1,0.1,0,0.3l-0.2,0.4c-0.1,0.1-0.1,0.1-0.1,0.2c0,0,0,0.1,0,0.1h0.4l0,0c0,0-0.1-0.1,0-0.1c0,0,0-0.1,0.1-0.2l0.2-0.3
			c0.1-0.1,0.1-0.2,0.1-0.3c0-0.1-0.1-0.1-0.1-0.1c0.1-0.1,0.3-0.1,0.4-0.2c0.1-0.1,0.2-0.2,0.3-0.3c0.2-0.3,0.2-0.4,0-0.5
			c-0.1-0.1-0.2-0.1-0.4-0.1h-1.2l-1.4,2.2H158.2L158.2,35.4z"/>
		<polygon fill-rule="evenodd" clip-rule="evenodd" fill="#918D8D" points="160.5,35.4 160.7,35.1 161.1,35.1 160.9,35.4 
			160.5,35.4 		"/>
		<polygon fill-rule="evenodd" clip-rule="evenodd" fill="#918D8D" points="1.2,28.6 23.6,28.6 23.3,28.3 25.6,28.3 25.9,28.6 
			33.2,28.6 32,30.2 27.3,30.2 27.4,30.3 26.6,31.3 25.4,30.2 0,30.3 1.2,28.6 		"/>
		<polygon fill-rule="evenodd" clip-rule="evenodd" fill="#918D8D" points="22.3,27.3 21.5,26.6 2.6,26.6 3.9,24.9 19.8,24.9 
			19.4,24.6 22.4,24.6 22.7,24.9 35.9,24.9 34.6,26.6 24.1,26.6 24.7,27.3 22.3,27.3 		"/>
		<polygon fill-rule="evenodd" clip-rule="evenodd" fill="#918D8D" points="18.3,23.6 17.6,22.9 5.4,22.9 6.6,21.3 15.3,21.3 
			15.5,20.9 21.5,20.9 21.2,21.3 38.6,21.3 37.4,22.9 20.9,22.9 21.5,23.6 18.3,23.6 		"/>
		<polygon fill-rule="evenodd" clip-rule="evenodd" fill="#918D8D" points="16.3,19.9 16.8,19.3 8,19.3 9.3,17.7 18.1,17.7 
			18.4,17.2 24.7,17.2 24.3,17.7 41.3,17.6 40.1,19.3 22.9,19.3 22.4,19.9 16.3,19.9 		"/>
		<polygon fill-rule="evenodd" clip-rule="evenodd" fill="#918D8D" points="19.2,16.2 19.6,15.6 10.8,15.6 12,14 20.9,14 21.2,13.5 
			27.9,13.5 27.5,14 44,14 42.8,15.6 26.1,15.6 25.6,16.2 19.2,16.2 		"/>
		<polygon fill-rule="evenodd" clip-rule="evenodd" fill="#918D8D" points="22,12.5 22.3,12.1 13.4,12.1 14.6,10.4 23.6,10.4 
			23.9,10 31,10 30.6,10.4 46.6,10.4 45.4,12.1 29.1,12.1 28.8,12.5 22,12.5 		"/>
		<polygon fill-rule="evenodd" clip-rule="evenodd" fill="#918D8D" points="24.7,9 25.2,8.4 16.1,8.4 17.3,6.7 26.4,6.7 26.7,6.4 
			34.1,6.4 33.8,6.7 49.4,6.7 48.1,8.4 32.4,8.4 31.8,9 24.7,9 		"/>
		<path fill-rule="evenodd" clip-rule="evenodd" fill="#918D8D" d="M27.4,5.4l0.4-0.5h-9.1l1.2-1.7c4.6,0,9.1,0,13.7,0l1.5-2.2h-0.3
			L35.6,0h1.3L36,1.1h-0.2l-1.7,2.2h2.7h15.1l-1.2,1.6l-15.4,0l-0.4,0.5H27.4L27.4,5.4z"/>
	</g>
	<g id="Teléfono">
	</g>
</g>
<g id="Grid">
</g>
</svg>
