<?xml version="1.0" encoding="utf-8"?>
<!-- Generator: Adobe Illustrator 17.1.0, SVG Export Plug-In . SVG Version: 6.00 Build 0)  -->
<!DOCTYPE svg PUBLIC "-//W3C//DTD SVG 1.1//EN" "http://www.w3.org/Graphics/SVG/1.1/DTD/svg11.dtd">
<svg version="1.1" xmlns="http://www.w3.org/2000/svg" xmlns:xlink="http://www.w3.org/1999/xlink" x="0px" y="0px" width="166px"
	 height="18.5px" viewBox="0 0 166 18.5" enable-background="new 0 0 166 18.5" xml:space="preserve">
<g id="Web">
	<g>
		<path fill-rule="evenodd" clip-rule="evenodd" fill="#918D8D" d="M164.9,16.7v0.3h0.1c0.1,0,0.1-0.1,0.1-0.1
			c0.1,0,0.1-0.1,0.1-0.1c0-0.1,0-0.1-0.1-0.1c0,0-0.1-0.1-0.1-0.1H164.9L164.9,16.7z M164.7,16.7h0.3c0.1,0,0.3,0,0.3,0.1
			c0,0,0.1,0.1,0.1,0.1c0,0.1,0,0.1-0.1,0.2c0,0-0.1,0.1-0.1,0.1l0.2,0.4h-0.2l-0.2-0.4h-0.1v0.4h-0.2V16.7L164.7,16.7z M165,16.4
			c0.1,0,0.2,0.1,0.3,0.1c0.1,0.1,0.1,0.1,0.2,0.1c0.1,0.1,0.1,0.1,0.1,0.3c0.1,0.1,0.1,0.1,0.1,0.3c0,0.1,0,0.1-0.1,0.2
			c0,0.1-0.1,0.2-0.1,0.3c-0.1,0-0.1,0.1-0.2,0.1c-0.1,0-0.2,0-0.3,0s-0.2,0-0.3,0c-0.1-0.1-0.1-0.1-0.2-0.2
			c-0.1-0.1-0.1-0.1-0.1-0.2c-0.1-0.1-0.1-0.1-0.1-0.3c0-0.1,0-0.1,0.1-0.2c0-0.1,0.1-0.2,0.1-0.3c0.1-0.1,0.1-0.1,0.2-0.1
			C164.8,16.5,164.9,16.4,165,16.4L165,16.4z M165,16.3c0.1,0,0.2,0,0.3,0.1c0.1,0,0.1,0.1,0.2,0.1c0.1,0.1,0.1,0.2,0.2,0.3
			c0.1,0.1,0.1,0.2,0.1,0.3c0,0.1,0,0.3-0.1,0.3c-0.1,0.1-0.1,0.2-0.2,0.3c-0.1,0.1-0.1,0.1-0.2,0.1c-0.1,0.1-0.2,0.1-0.3,0.1
			c-0.1,0-0.2,0-0.3-0.1c-0.1,0-0.2-0.1-0.3-0.1c-0.1-0.1-0.1-0.2-0.2-0.3c0-0.1-0.1-0.2-0.1-0.3c0-0.1,0.1-0.2,0.1-0.3
			c0.1-0.1,0.1-0.2,0.2-0.3c0.1-0.1,0.1-0.1,0.3-0.1C164.8,16.3,164.9,16.3,165,16.3L165,16.3z"/>
		<path fill-rule="evenodd" clip-rule="evenodd" fill="#918D8D" d="M98.7,8.5h-1.9v7.2h1.9c1,0,1.9-0.3,2.5-1
			c0.7-0.7,1.1-1.6,1.1-2.6c0-1-0.4-1.9-1.1-2.5C100.6,8.9,99.7,8.5,98.7,8.5L98.7,8.5z M107.1,6h11.6h0.3v0.3v3.1v0.3h-0.3h-3.5
			H115V9.4V8.5h-1.9v0.9v1.3v0.4h1.9v-0.4v-0.3h0.3h2.3h0.3v0.3v2.8v0.3h-0.3h-2.3H115v-0.3v-0.3h-1.9v2.5h1.9v-0.8v-0.3h0.3h3.5
			h0.3v0.3v3v0.3h-0.3h-11.6h-0.3v-0.3v-1.9v-0.3h0.3h2V8.5h-2h-0.3V8.2v-2V6H107.1L107.1,6z M127.9,8.5h-1.1v3.4h1.1
			c0.5,0,0.9-0.2,1.2-0.5c0.3-0.3,0.5-0.7,0.5-1.2c0-0.5-0.1-0.9-0.5-1.2C128.7,8.7,128.3,8.5,127.9,8.5L127.9,8.5z M120.6,6h8.2
			c0.1,0,0.1,0,0.1,0c0.3,0,0.7,0.1,1.1,0.1c0.3,0.1,0.7,0.1,1,0.3c1.7,0.5,3.1,1.7,3.1,3.8v0.1c0,1.4-0.7,2.4-1.7,3.1
			c-0.9,0.7-2.2,1-3.4,1H129h-2.3v1.4h2.1h0.3v0.3v1.9v0.3h-0.3h-8.2h-0.3v-0.3v-1.9v-0.3h0.3h2.1V8.5h-2.1h-0.3V8.2v-2V6H120.6
			L120.6,6z M143,8.5L143,8.5c-1,0-1.9,0.4-2.5,1.1c-0.6,0.7-1,1.5-1,2.5c0,1,0.4,1.9,1,2.6c0.7,0.7,1.5,1,2.5,1h0.1
			c0.9,0,1.8-0.3,2.5-1c0.6-0.7,1-1.6,1-2.6c0-1-0.4-1.9-1-2.5C144.8,8.9,143.9,8.5,143,8.5L143,8.5z M142.7,5.8c0.3,0,0.5,0,0.7,0
			c2,0,3.9,0.5,5.2,1.4c1.4,0.9,2.3,2.3,2.5,4.1c0,0.1,0,0.2,0,0.3l0,0v0.1c0,0.5-0.1,1.1-0.2,1.5c-0.1,0.5-0.3,1-0.6,1.4
			c-1.3,2.2-3.9,3.6-7,3.8l0,0c-0.2,0-0.3,0.1-0.5,0.1c-2.1,0.1-4-0.4-5.4-1.3c-1.5-1-2.4-2.3-2.5-4.2c0-0.1,0-0.1,0-0.3l0,0l0,0
			c0-0.6,0.1-1.1,0.1-1.6c0.1-0.5,0.3-1,0.6-1.4C136.9,7.4,139.6,6,142.7,5.8L142.7,5.8z M151.8,6h13.9h0.3v0.3v3.1v0.3h-0.3h-3.1
			h-0.3V9.4V8.5h-1.6v7.2h1.9h0.3v0.3v1.9v0.3h-0.3h-7.9h-0.3v-0.3v-1.9v-0.3h0.3h2.1V8.5H155v0.9v0.3h-0.3h-3h-0.3V9.4V6.2V6H151.8
			L151.8,6z M90.7,6h10c1.5,0,3.1,0.5,4.2,1.5c1.1,1.1,1.9,2.5,1.9,4.5c0,2.1-1,3.5-2.4,4.6c-1.4,1-3.2,1.5-4.7,1.5h-9h-0.3v-0.3
			v-1.9v-0.3h0.3h2.1V8.5h-2.1h-0.3V8.2v-2V6H90.7L90.7,6z"/>
		<path fill-rule="evenodd" clip-rule="evenodd" fill="#918D8D" d="M78,10.3c0-0.5-0.3-1-0.6-1.4c-0.4-0.5-1-0.7-1.7-0.7
			c-0.1,0-0.2,0-0.3,0c-0.7,0-1.3,0.3-1.8,0.6c-0.4,0.4-0.7,0.9-0.7,1.5H78L78,10.3z M9.6,1.2L9.6,1.2c0.3-0.1,0.5-0.1,0.7-0.1
			c2.5-0.1,4.8,0.6,6.6,1.9c1.7,1.3,2.9,3.2,3.1,5.6C20,8.8,20,8.9,20,9.1c0.1,3.8-2.1,6.7-5.3,8.2c-0.7,0.3-1.3,0.5-2.1,0.7
			c-0.7,0.1-1.5,0.3-2.2,0.3h-0.1c-0.1,0-0.3,0.1-0.5,0.1c-2.6,0.1-5-0.5-6.7-1.9c-1.8-1.2-3-3.2-3.2-5.7c0-0.1,0-0.2,0-0.3
			c-0.2-3.9,2-6.8,5.3-8.3c0.6-0.3,1.3-0.5,2-0.7C8,1.3,8.8,1.3,9.6,1.2L9.6,1.2z M10.1,4.4c-0.3,0-0.7,0.1-0.9,0.1
			C8.8,4.6,8.4,4.6,8.1,4.8c-0.3,0.1-0.7,0.3-1,0.5c-1.4,1-2.4,2.6-2.4,4.4c0,0.3,0,0.6,0.1,0.9c0.2,1.1,0.7,2.1,1.5,2.9
			C7,14.3,7.9,14.9,9,15.1c0.3,0,0.7,0.1,1,0.1c0.3,0,0.6,0,0.9-0.1c0.4-0.1,0.7-0.2,1.1-0.3c0.4-0.1,0.7-0.3,1-0.5
			c1.5-0.9,2.4-2.6,2.4-4.5c0-0.3,0-0.6-0.1-0.9c-0.1-1.1-0.7-2.1-1.4-2.9C13,5.2,12.1,4.7,11,4.5C10.7,4.4,10.4,4.4,10.1,4.4
			L10.1,4.4z M21.1,6h2.7V4.3c0-1.1,0.5-2.1,1.3-2.9c0.8-0.8,2-1.3,3.4-1.3h3.9h0.3v0.3v2v0.3h-0.3h-1.9c-0.7,0-1.3,0.1-1.7,0.3
			c-0.4,0.2-0.7,0.6-0.7,1.2V6h3.3h0.3v0.3v2v0.3h-0.3h-3.3v7.2H31h0.3v0.3v1.9v0.3H31h-9.8h-0.3v-0.3v-1.9v-0.3h0.3h2.7V8.5h-2.7
			h-0.3V8.2v-2V6H21.1L21.1,6z M33.3,6h2.6V4.3c0-1.1,0.5-2.1,1.3-2.9c0.9-0.8,2-1.3,3.5-1.3h3.9h0.3v0.3v2v0.3h-0.3h-1.9
			c-0.7,0-1.3,0.1-1.7,0.3c-0.3,0.2-0.6,0.6-0.6,1.2V6h3.2h0.3v0.3v2v0.3h-0.3h-3.2v7.2h2.8h0.3v0.3v1.9v0.3h-0.3h-9.8H33v-0.3v-1.9
			v-0.3h0.3h2.6V8.5h-2.6H33V8.2v-2V6H33.3L33.3,6z M50.1,0c0.7,0,1.5,0.3,2,0.6c0.5,0.4,0.9,1,0.9,1.6c0,0.6-0.3,1.2-0.9,1.6
			c-0.5,0.3-1.3,0.6-2,0.6c-0.8,0-1.5-0.3-2-0.6c-0.5-0.4-0.9-1-0.9-1.6c0-0.6,0.3-1.2,0.9-1.6C48.6,0.3,49.3,0,50.1,0L50.1,0z
			 M45.4,6h6.8h0.3v0.3v9.4h2.2h0.3v0.3v1.9v0.3h-0.3h-9.2h-0.3v-0.3v-1.9v-0.3h0.3H48V8.5h-2.6h-0.3V8.2v-2V6H45.4L45.4,6z
			 M66.9,6.2v3.5V10h-0.3H64h-0.3V9.8V8.5c-0.1,0-0.2,0-0.3,0c-0.2,0-0.4,0-0.5,0c-0.5,0-0.9,0.1-1.3,0.2c-0.1,0-0.1,0-0.1,0.1
			c-0.3,0.1-0.6,0.3-0.9,0.4c0,0.1-0.1,0.1-0.1,0.1c-0.1,0.1-0.2,0.2-0.3,0.3C60.1,9.7,60,9.8,59.9,10c-0.4,0.5-0.6,1.1-0.6,1.8
			c0,0.1,0,0.1,0,0.2c0.1,0.1,0.1,0.3,0.1,0.4c0.1,0.1,0.1,0.3,0.1,0.4c0.2,0.7,0.6,1.3,1.2,1.7c0.7,0.5,1.7,0.7,2.8,0.7
			c1.1,0.1,2.2-0.1,3.1-0.3l0.3-0.1v0.3v2.3v0.2l-0.2,0.1c-0.8,0.2-1.5,0.3-2.2,0.5c-0.7,0.1-1.5,0.1-2.3,0.1c-0.1,0-0.3,0-0.4,0
			c-0.5,0-1-0.1-1.5-0.1c-0.5-0.1-1-0.3-1.5-0.4C56.7,16.9,55,15.2,55,12c0,0,0,0,0-0.1l0,0c0-0.5,0.1-1,0.2-1.5
			c0.1-0.5,0.3-0.9,0.6-1.3c1.3-2.1,3.7-3.3,6.3-3.4h0.1c0.2,0,0.4,0,0.7,0c0.2,0,0.5,0,0.7,0c1.1,0.1,2.1,0.1,3.1,0.3L66.9,6V6.2
			L66.9,6.2z M76.5,15.5c0.3,0,0.5,0,0.7,0c0.2,0,0.5,0,0.7,0c1.2-0.1,2.4-0.3,3.3-0.7l0.4-0.2v0.4v2.3v0.2l-0.2,0.1
			c-0.2,0.1-0.5,0.1-0.7,0.2c-0.3,0.1-0.5,0.1-0.7,0.2c-1.3,0.3-2.8,0.4-4.2,0.4c-0.1,0-0.3,0-0.5-0.1c-0.5,0-1.1-0.1-1.6-0.1
			c-0.5-0.1-1.1-0.3-1.5-0.4C69.7,17,68,15.3,68,12.1c0-0.1,0-0.1,0-0.1c0.1-0.6,0.1-1.2,0.3-1.7c0.2-0.5,0.4-1,0.7-1.5
			c1.3-2.2,3.9-3.3,6.7-3.3h0.1c0.5,0,1.1,0.1,1.5,0.1c0.5,0.1,0.9,0.2,1.3,0.4c2.2,0.8,3.7,2.6,3.7,5.4v0.9v0.3h-9.4
			c0,0.2,0.1,0.4,0.1,0.6c0.1,0.3,0.1,0.5,0.3,0.7C73.7,15.1,75,15.5,76.5,15.5L76.5,15.5L76.5,15.5z"/>
	</g>
	<g id="Teléfono">
	</g>
</g>
<g id="Grid">
</g>
</svg>
