<?xml version="1.0" encoding="utf-8"?>
<!-- Generator: Adobe Illustrator 17.1.0, SVG Export Plug-In . SVG Version: 6.00 Build 0)  -->
<!DOCTYPE svg PUBLIC "-//W3C//DTD SVG 1.1//EN" "http://www.w3.org/Graphics/SVG/1.1/DTD/svg11.dtd">
<svg version="1.1" xmlns="http://www.w3.org/2000/svg" xmlns:xlink="http://www.w3.org/1999/xlink" x="0px" y="0px" width="167.7px"
	 height="29.4px" viewBox="0 0 167.7 29.4" enable-background="new 0 0 167.7 29.4" xml:space="preserve">
<g id="Web">
	<g>
		<g>
			<polygon fill-rule="evenodd" clip-rule="evenodd" fill="#918D8D" points="153,0 123.6,0 109,14.7 123.6,29.4 153,29.4 
				167.7,14.7 			"/>
			<path fill-rule="evenodd" clip-rule="evenodd" fill="#FFFFFF" d="M123.6,29.4l14.7-14.7L123.6,0V29.4z M138.3,14.7L153,29.4V0
				L138.3,14.7z"/>
		</g>
		<g>
			<path fill="#918D8D" d="M8,13.7h13V5.6c0-1.4-0.1-2.4-0.3-2.8c-0.1-0.3-0.4-0.6-0.9-0.9c-0.6-0.3-1.2-0.5-1.9-0.5h-1V0.6h12v0.8
				h-1c-0.7,0-1.3,0.2-1.9,0.5c-0.4,0.2-0.7,0.6-0.9,1C25.1,3.3,25,4.2,25,5.6v18.2c0,1.4,0.1,2.4,0.3,2.8c0.1,0.3,0.4,0.6,0.8,0.9
				c0.6,0.3,1.2,0.5,1.9,0.5h1v0.8H17V28h1c1.1,0,2-0.3,2.5-1c0.3-0.4,0.5-1.5,0.5-3.2v-8.6H8v8.6c0,1.4,0.1,2.4,0.3,2.8
				c0.1,0.3,0.4,0.6,0.9,0.9C9.7,27.8,10.4,28,11,28h1v0.8H0V28h1c1.2,0,2-0.3,2.5-1C3.9,26.5,4,25.5,4,23.8V5.6
				c0-1.4-0.1-2.4-0.3-2.8C3.6,2.4,3.3,2.1,2.9,1.9C2.3,1.6,1.7,1.4,1,1.4H0V0.6h12v0.8h-1c-0.7,0-1.3,0.2-1.9,0.5
				c-0.4,0.2-0.7,0.6-0.9,1C8.1,3.3,8,4.2,8,5.6V13.7z"/>
			<path fill="#918D8D" d="M47.2,0v9.7h-0.8c-0.2-1.9-0.7-3.3-1.3-4.4c-0.6-1.1-1.6-2-2.7-2.6c-1.2-0.6-2.4-1-3.7-1
				c-1.4,0-2.6,0.4-3.6,1.3c-0.9,0.9-1.4,1.9-1.4,3c0,0.9,0.3,1.6,0.9,2.3c0.9,1,2.9,2.4,6.1,4.1c2.6,1.4,4.4,2.5,5.4,3.2
				c1,0.8,1.7,1.6,2.2,2.7c0.5,1,0.8,2.1,0.8,3.2c0,2.1-0.8,4-2.5,5.5c-1.6,1.5-3.8,2.3-6.4,2.3c-0.8,0-1.6-0.1-2.3-0.2
				c-0.4-0.1-1.3-0.3-2.7-0.8c-1.3-0.4-2.2-0.7-2.6-0.7c-0.3,0-0.6,0.1-0.8,0.3c-0.2,0.2-0.3,0.6-0.4,1.3h-0.8v-9.6h0.8
				c0.4,2,0.8,3.5,1.4,4.5c0.6,1,1.5,1.8,2.8,2.5c1.2,0.7,2.6,1,4.1,1c1.7,0,3.1-0.5,4.1-1.4c1-0.9,1.5-2,1.5-3.2
				c0-0.7-0.2-1.4-0.6-2.1c-0.4-0.7-1-1.4-1.8-2c-0.5-0.4-2-1.3-4.4-2.6c-2.4-1.3-4.1-2.4-5.1-3.2c-1-0.8-1.8-1.7-2.3-2.7
				c-0.5-1-0.8-2-0.8-3.2c0-2,0.8-3.8,2.3-5.2C34.3,0.7,36.3,0,38.7,0c1.5,0,3.1,0.4,4.7,1.1c0.8,0.3,1.3,0.5,1.6,0.5
				c0.4,0,0.6-0.1,0.9-0.3c0.2-0.2,0.4-0.6,0.5-1.3H47.2z"/>
			<path fill="#918D8D" d="M68.9,14.4c1.9,0.4,3.4,1.1,4.4,2c1.3,1.3,2,2.8,2,4.7c0,1.4-0.4,2.7-1.3,4c-0.9,1.3-2.1,2.2-3.6,2.8
				c-1.5,0.6-3.9,0.9-7.1,0.9H50V28H51c1.2,0,2-0.4,2.5-1.1c0.3-0.5,0.5-1.5,0.5-3.1V5.6c0-1.7-0.2-2.8-0.6-3.3
				c-0.5-0.6-1.3-0.9-2.4-0.9H50V0.6h12.1c2.3,0,4.1,0.2,5.5,0.5c2.1,0.5,3.7,1.4,4.7,2.6C73.4,5,74,6.5,74,8.1
				c0,1.4-0.4,2.7-1.3,3.8C71.8,13,70.6,13.9,68.9,14.4z M58,13.3c0.5,0.1,1.1,0.2,1.8,0.2c0.7,0,1.4,0.1,2.2,0.1
				c2,0,3.5-0.2,4.5-0.7c1-0.4,1.8-1.1,2.3-2C69.4,10,69.6,9,69.6,8c0-1.6-0.7-3.1-2-4.2C66.3,2.6,64.3,2,61.8,2
				c-1.4,0-2.6,0.2-3.7,0.5V13.3z M58,26.7c1.6,0.4,3.2,0.6,4.8,0.6c2.5,0,4.4-0.6,5.8-1.7c1.3-1.1,2-2.5,2-4.2
				c0-1.1-0.3-2.1-0.9-3.2c-0.6-1-1.6-1.8-2.9-2.4c-1.3-0.6-3-0.9-5-0.9c-0.9,0-1.6,0-2.2,0c-0.6,0-1.1,0.1-1.5,0.1V26.7z"/>
			<path fill="#918D8D" d="M101,0l0.6,9.5H101c-0.9-2.9-2.1-4.9-3.7-6.2c-1.6-1.3-3.5-1.9-5.7-1.9c-1.9,0-3.5,0.5-5,1.4
				c-1.5,0.9-2.7,2.5-3.5,4.5c-0.9,2.1-1.3,4.6-1.3,7.7c0,2.5,0.4,4.7,1.2,6.6c0.8,1.9,2,3.3,3.7,4.3c1.6,1,3.5,1.5,5.6,1.5
				c1.8,0,3.4-0.4,4.8-1.2c1.4-0.8,2.9-2.3,4.6-4.7l0.6,0.4c-1.4,2.5-3,4.3-4.9,5.5c-1.9,1.2-4.1,1.7-6.7,1.7
				c-4.7,0-8.3-1.7-10.8-5.2c-1.9-2.6-2.9-5.6-2.9-9.1c0-2.8,0.6-5.4,1.9-7.7c1.3-2.3,3-4.2,5.2-5.5C86.3,0.6,88.7,0,91.3,0
				c2,0,4,0.5,6,1.5c0.6,0.3,1,0.5,1.2,0.5c0.4,0,0.7-0.1,1-0.4c0.4-0.4,0.6-0.9,0.8-1.5H101z"/>
		</g>
	</g>
	<g id="Teléfono">
	</g>
</g>
<g id="Grid">
</g>
</svg>
