<?xml version="1.0" encoding="utf-8"?>
<!-- Generator: Adobe Illustrator 17.1.0, SVG Export Plug-In . SVG Version: 6.00 Build 0)  -->
<!DOCTYPE svg PUBLIC "-//W3C//DTD SVG 1.1//EN" "http://www.w3.org/Graphics/SVG/1.1/DTD/svg11.dtd">
<svg version="1.1" xmlns="http://www.w3.org/2000/svg" xmlns:xlink="http://www.w3.org/1999/xlink" x="0px" y="0px" width="165.7px"
	 height="65.8px" viewBox="0 0 165.7 65.8" enable-background="new 0 0 165.7 65.8" xml:space="preserve">
<g id="Web">
	<g>
		<path fill="#918D8D" d="M87.3,18.6V3.9c0-0.8,0.2-1.4,0.5-1.7c0.3-0.3,1-0.4,1.9-0.4c2.5,0,4.2,0.6,5.1,1.7c1,1.2,1.4,3.4,1.4,6.6
			c0,3-0.6,5.1-1.9,6.4c-1.3,1.3-3.3,1.9-6.2,1.9H87.3L87.3,18.6z M87.3,20.4c3.6,0,6.2,0.8,7.7,2.4c1.6,1.6,2.4,4.2,2.4,7.8
			c0,2.8-0.6,4.9-1.8,6.3c-1.2,1.4-3,2-5.4,2c-1.1,0-1.8-0.2-2.3-0.7c-0.4-0.4-0.7-1.2-0.7-2.3V20.4L87.3,20.4z M76.9,18.6H76
			c-2.8,0-4.9-0.7-6.2-1.9c-1.3-1.3-1.9-3.5-1.9-6.4c0-3.2,0.5-5.4,1.4-6.6c1-1.2,2.7-1.7,5.1-1.7c1,0,1.6,0.1,1.9,0.4
			c0.3,0.3,0.5,0.8,0.5,1.7V18.6L76.9,18.6z M76.9,20.4v15.5c0,1.1-0.2,1.9-0.7,2.3c-0.4,0.4-1.2,0.7-2.3,0.7c-2.4,0-4.2-0.7-5.4-2
			c-1.2-1.4-1.8-3.4-1.8-6.3c0-3.6,0.8-6.2,2.4-7.8C70.7,21.2,73.3,20.4,76.9,20.4L76.9,20.4z M89.4,0H74.9h-0.4
			c-5.2,0-9.3,0.5-12.2,2.2c-2.9,1.7-4.5,4.1-4.4,7c0.1,5.6,2.1,7.7,8.1,9.7c-6.9,1.5-9.7,4.4-9.7,10.9c0,3.5,1.6,6.3,4.6,8.1
			c3,1.9,7.3,2.8,13,2.8h1h14.6h1c5.7,0,10-0.9,13-2.8c3-1.9,4.6-4.6,4.6-8.1c0-6.4-2.8-9.4-9.7-10.9c6-2,7.9-4.1,8.1-9.7
			c0.1-2.9-1.5-5.3-4.4-7C99.1,0.5,95,0,89.8,0H89.4L89.4,0z"/>
		<path fill="#918D8D" d="M165.7,57.4c0,1.4-0.3,2.7-0.8,3.9c-0.5,1.2-1.3,2.1-2.4,2.9c-0.5,0.4-1.1,0.7-1.7,0.9
			c-0.6,0.2-1.3,0.3-1.9,0.3c-0.7,0-1.3-0.1-1.9-0.3c-0.6-0.2-1.2-0.5-1.7-0.9c-1-0.8-1.8-1.8-2.4-3c-0.5-1.1-0.8-2.4-0.8-3.9
			c0-1.4,0.3-2.7,0.8-3.9c0.5-1.2,1.3-2.1,2.4-2.9c0.5-0.4,1.1-0.7,1.7-0.9c0.6-0.2,1.3-0.3,1.9-0.3c0.7,0,1.3,0.1,1.9,0.3
			c0.6,0.2,1.2,0.5,1.7,0.9c1,0.8,1.8,1.8,2.4,2.9C165.4,54.7,165.7,56,165.7,57.4L165.7,57.4z M158.9,50.1c-0.9,0-1.6,0.5-1.9,1.5
			c-0.4,1-0.6,3-0.6,5.8c0,2.8,0.2,4.7,0.6,5.7c0.4,1,1,1.5,1.9,1.5c0.9,0,1.5-0.5,1.9-1.5c0.4-1,0.6-2.9,0.6-5.7
			c0-2.9-0.2-4.8-0.6-5.8C160.4,50.6,159.8,50.1,158.9,50.1L158.9,50.1z"/>
		<path fill="#918D8D" d="M150.4,63.2c0,0.4,0.1,0.6,0.2,0.8c0.2,0.2,0.4,0.2,0.8,0.3V65h-5.4v-0.7c0.4,0,0.7-0.1,0.9-0.3
			c0.2-0.2,0.2-0.4,0.2-0.8V51.2c0-0.4-0.1-0.6-0.2-0.8c-0.2-0.2-0.4-0.3-0.9-0.3v-0.7h5.4v0.7c-0.4,0-0.7,0.1-0.8,0.3
			c-0.2,0.2-0.2,0.4-0.2,0.8V63.2L150.4,63.2z"/>
		<path fill="#918D8D" d="M141.8,51.2c0-0.4-0.1-0.7-0.3-0.8c-0.2-0.2-0.6-0.2-1.1-0.2v-0.7h5.7v0.7c-0.4,0-0.6,0.1-0.8,0.2
			c-0.1,0.2-0.2,0.4-0.2,0.8v10.2c0,0.8-0.1,1.4-0.2,1.8c-0.1,0.4-0.3,0.8-0.5,1.1c-0.4,0.5-0.9,0.8-1.6,1.1
			c-0.7,0.3-1.4,0.4-2.2,0.4c-1.1,0-2-0.3-2.7-0.8c-0.7-0.5-1.1-1.1-1.1-1.9c0-0.5,0.2-1,0.5-1.3c0.3-0.3,0.8-0.5,1.4-0.5
			c0.5,0,0.9,0.1,1.2,0.4c0.3,0.3,0.5,0.6,0.5,1c0,0.4-0.2,0.7-0.5,1c-0.3,0.3-0.7,0.4-1.2,0.4c-0.1,0-0.2,0-0.3-0.1
			c0,0-0.1,0-0.1,0l-0.1,0.1c0.2,0.2,0.4,0.4,0.8,0.5c0.3,0.1,0.6,0.2,1,0.2c0.7,0,1.1-0.2,1.4-0.7c0.3-0.5,0.4-1.2,0.4-2.3V51.2
			L141.8,51.2z"/>
		<path fill="#918D8D" d="M129.5,59.9h3.3l-1.6-6.1L129.5,59.9L129.5,59.9z M126.1,65.1v-0.7c0.4,0,0.7-0.2,1-0.5
			c0.3-0.3,0.5-0.8,0.7-1.4l3.7-13.1h1.7l3.7,13.3c0.2,0.6,0.4,1,0.6,1.3c0.2,0.2,0.5,0.4,0.9,0.4v0.7h-5.6v-0.7
			c0.4,0,0.6-0.1,0.8-0.2c0.2-0.1,0.3-0.3,0.3-0.5c0-0.1,0-0.2,0-0.4c0-0.1-0.1-0.3-0.1-0.4l-0.6-2.1h-3.8l-0.5,1.9
			c0,0.1,0,0.2-0.1,0.3c0,0.1,0,0.2,0,0.3c0,0.4,0.1,0.6,0.3,0.8c0.2,0.2,0.6,0.3,1.1,0.3v0.7H126.1L126.1,65.1z"/>
		<path fill="#918D8D" d="M113.2,64.9V64c0.5-0.1,0.9-0.2,1.1-0.4c0.2-0.2,0.3-0.5,0.3-1V47.1c0-0.5-0.1-0.8-0.3-1
			c-0.2-0.2-0.6-0.3-1.1-0.4v-0.9h6.6c2.3,0,4.1,0.4,5.4,1.2c1.3,0.8,1.9,2,1.9,3.4c0,1.3-0.5,2.4-1.5,3.2c-1,0.9-2.5,1.5-4.3,1.8
			c2.1,0.3,3.7,0.9,4.8,1.8c1.1,0.9,1.7,2,1.7,3.4c0,1.8-0.7,3.1-2,4c-1.3,0.9-3.2,1.4-5.7,1.4H113.2L113.2,64.9z M118.7,54.8v7.7
			c0,0.6,0.1,0.9,0.3,1.2c0.2,0.2,0.5,0.3,1,0.3c1.1,0,1.9-0.3,2.4-1c0.5-0.7,0.8-1.7,0.8-3.1c0-1.8-0.3-3.1-1-3.9
			C121.4,55.2,120.3,54.8,118.7,54.8L118.7,54.8z M118.7,53.9h0.4c1.3,0,2.2-0.3,2.7-1c0.6-0.6,0.8-1.7,0.8-3.2
			c0-1.6-0.2-2.7-0.6-3.3c-0.4-0.6-1.2-0.9-2.3-0.9c-0.4,0-0.7,0.1-0.9,0.2c-0.1,0.1-0.2,0.4-0.2,0.8V53.9L118.7,53.9z"/>
		<path fill="#918D8D" d="M95.7,64.9v-0.7c0.4,0,0.7-0.1,0.9-0.3c0.2-0.2,0.3-0.4,0.3-0.8V51.6c0-0.4-0.1-0.6-0.3-0.8
			c-0.2-0.2-0.5-0.3-0.9-0.3v-0.7h6l0,0.7c-0.5,0-0.9,0.1-1.1,0.3c-0.2,0.2-0.3,0.4-0.3,0.8v11.7c0,0.4,0.1,0.6,0.2,0.7
			c0.2,0.1,0.4,0.2,0.8,0.2c0.9,0,1.8-0.3,2.5-1c0.7-0.7,1.4-1.8,1.9-3.2h0.8l-0.3,5H95.7L95.7,64.9z"/>
		<path fill="#918D8D" d="M84.1,64.9v-0.7c0.4,0,0.7-0.1,0.9-0.3c0.2-0.2,0.3-0.4,0.3-0.8V51.6c0-0.2,0-0.4-0.1-0.5
			c-0.1-0.1-0.1-0.2-0.3-0.3c-0.1-0.1-0.2-0.1-0.3-0.2c-0.1,0-0.3-0.1-0.5-0.1v-0.7h10.8l0.1,4.4h-0.9c-0.4-1.3-0.9-2.2-1.5-2.8
			c-0.7-0.6-1.5-0.9-2.6-0.9c-0.4,0-0.7,0.1-0.9,0.2c-0.2,0.1-0.2,0.4-0.2,0.9v5.1c0.7-0.1,1.3-0.3,1.8-0.8c0.5-0.4,0.8-1.1,0.9-2
			h0.9v6.5h-0.9c-0.1-0.9-0.4-1.6-0.9-2.1c-0.5-0.5-1.1-0.8-1.8-0.9v5.8c0,0.4,0.1,0.6,0.2,0.7c0.2,0.1,0.4,0.2,0.8,0.2
			c1,0,1.9-0.3,2.6-1c0.7-0.7,1.3-1.7,1.8-3.2h0.9L95,64.9H84.1L84.1,64.9z"/>
		<path fill="#918D8D" d="M76,63.1c0,0.5,0.1,0.8,0.2,0.9c0.2,0.1,0.4,0.2,0.8,0.2c1.1,0,1.9-0.4,2.4-1.3c0.4-0.9,0.7-2.9,0.7-5.9
			c0-2.5-0.2-4.2-0.7-5.1c-0.4-0.9-1.2-1.4-2.3-1.4c-0.4,0-0.7,0.1-0.9,0.3c-0.2,0.2-0.3,0.5-0.3,0.9V63.1L76,63.1z M71.3,64.9v-0.7
			c0.4,0,0.8-0.1,0.9-0.3c0.2-0.2,0.3-0.4,0.3-0.8V51.6c0-0.4-0.1-0.6-0.3-0.8c-0.2-0.2-0.5-0.3-0.9-0.3v-0.7h4.4
			c1.3,0,2.3,0.1,3,0.2c0.8,0.2,1.4,0.4,2.1,0.8c1.1,0.7,1.9,1.5,2.4,2.7c0.6,1.1,0.8,2.4,0.8,3.8c0,2.4-0.7,4.3-2.1,5.6
			c-1.4,1.3-3.4,2-5.9,2H71.3L71.3,64.9z"/>
		<path fill="#918D8D" d="M63.4,57.6c0,1.4-0.3,2.6-0.8,3.7c-0.5,1.1-1.3,2.1-2.3,2.8c-0.5,0.4-1,0.7-1.7,0.9
			c-0.6,0.2-1.2,0.3-1.9,0.3c-0.6,0-1.3-0.1-1.9-0.3c-0.6-0.2-1.2-0.5-1.7-0.9c-1-0.8-1.8-1.7-2.3-2.8c-0.5-1.1-0.8-2.4-0.8-3.7
			c0-1.4,0.3-2.6,0.8-3.7c0.5-1.1,1.3-2.1,2.3-2.8c0.5-0.4,1-0.7,1.7-0.9c0.6-0.2,1.2-0.3,1.9-0.3c0.7,0,1.3,0.1,1.9,0.3
			c0.6,0.2,1.2,0.5,1.6,0.9c1,0.8,1.8,1.7,2.3,2.8C63.1,54.9,63.4,56.2,63.4,57.6L63.4,57.6z M56.8,50.5c-0.9,0-1.5,0.5-1.9,1.5
			c-0.4,1-0.5,2.9-0.5,5.6c0,2.7,0.2,4.5,0.5,5.5c0.4,1,1,1.5,1.9,1.5c0.9,0,1.5-0.5,1.9-1.5c0.4-1,0.5-2.8,0.5-5.5
			c0-2.8-0.2-4.6-0.5-5.6C58.3,51,57.6,50.5,56.8,50.5L56.8,50.5z"/>
		<path fill="#918D8D" d="M48.6,60.4h1.1v0.3c0,1.5-0.4,2.7-1.3,3.5c-0.9,0.8-2.2,1.2-3.9,1.2c-2.1,0-3.8-0.7-5-2
			c-1.2-1.3-1.8-3.2-1.8-5.6c0-2.4,0.6-4.3,1.9-5.8c1.3-1.5,2.9-2.2,4.9-2.2c0.4,0,0.9,0,1.3,0.1c0.4,0.1,0.8,0.3,1.2,0.5h0.5l1-0.6
			h1l0.1,4.9h-1.2c-0.5-1.4-1.1-2.5-1.7-3.2c-0.6-0.7-1.3-1.1-2-1.1c-0.9,0-1.6,0.5-2,1.6c-0.4,1.1-0.6,3-0.6,5.7
			c0,2.4,0.2,4.2,0.7,5.1c0.5,1,1.3,1.5,2.4,1.5c1.1,0,1.9-0.3,2.5-1c0.6-0.7,0.9-1.6,0.9-2.8V60.4L48.6,60.4z"/>
		<path fill="#918D8D" d="M27.5,53.1v9.5c0,0.7,0.1,1.1,0.4,1.4c0.2,0.2,0.7,0.4,1.3,0.5v0.7h-4.4v-0.7c0.6-0.1,1-0.2,1.2-0.5
			c0.2-0.2,0.3-0.7,0.3-1.4V51.8c0-0.4-0.1-0.6-0.3-0.7c-0.2-0.1-0.7-0.2-1.3-0.3v-0.7h4.9l5.7,9.5v-7c0-0.7-0.1-1.1-0.3-1.3
			c-0.2-0.2-0.6-0.4-1.2-0.5v-0.7h4.4v0.7c-0.6,0.1-1,0.2-1.3,0.5c-0.2,0.2-0.4,0.7-0.4,1.3v12.8h-1.6L27.5,53.1L27.5,53.1z"/>
		<path fill="#918D8D" d="M15.7,60.1h3.7l-1.8-5.9L15.7,60.1L15.7,60.1z M11.9,65.1v-0.7c0.4,0,0.8-0.2,1.1-0.5
			c0.3-0.3,0.6-0.8,0.8-1.4L17.8,50h1.9l4.1,12.9c0.2,0.6,0.4,1,0.7,1.2c0.3,0.2,0.6,0.4,1,0.4v0.7h-6.2v-0.7c0.4,0,0.7-0.1,0.9-0.2
			c0.2-0.1,0.3-0.3,0.3-0.5c0-0.1,0-0.2,0-0.3c0-0.1-0.1-0.3-0.1-0.4l-0.7-2.1h-4.2l-0.6,1.8c0,0.1,0,0.2-0.1,0.3c0,0.1,0,0.2,0,0.3
			c0,0.3,0.1,0.6,0.4,0.8c0.2,0.2,0.6,0.3,1.2,0.3v0.7H11.9L11.9,65.1z"/>
		<path fill="#918D8D" d="M0,65v-1c0.5-0.1,0.8-0.2,1-0.4c0.2-0.2,0.3-0.5,0.3-1V46.8c0-0.5-0.1-0.9-0.3-1.1c-0.2-0.2-0.5-0.3-1-0.4
			v-0.9h6.4c2.2,0,3.9,0.4,5.2,1.3c1.2,0.8,1.9,2,1.9,3.5c0,1.3-0.5,2.4-1.5,3.3c-1,0.9-2.4,1.5-4.2,1.8c2,0.3,3.6,0.9,4.7,1.8
			c1.1,0.9,1.6,2,1.6,3.4c0,1.8-0.6,3.2-1.9,4.1C10.9,64.5,9,65,6.6,65H0L0,65z M5.3,54.7v7.8c0,0.6,0.1,1,0.3,1.2
			c0.2,0.2,0.5,0.3,1,0.3c1,0,1.8-0.3,2.3-1c0.5-0.7,0.8-1.7,0.8-3.2c0-1.8-0.3-3.1-1-3.9C7.9,55.1,6.8,54.7,5.3,54.7L5.3,54.7z
			 M5.3,53.8h0.4c1.2,0,2.1-0.3,2.6-1c0.5-0.7,0.8-1.7,0.8-3.3c0-1.6-0.2-2.7-0.6-3.3c-0.4-0.6-1.1-0.9-2.2-0.9
			c-0.4,0-0.7,0.1-0.8,0.2c-0.1,0.1-0.2,0.4-0.2,0.8V53.8L5.3,53.8z"/>
	</g>
	<g id="Teléfono">
	</g>
</g>
<g id="Grid">
</g>
</svg>
