<?xml version="1.0" encoding="utf-8"?>
<!-- Generator: Adobe Illustrator 17.1.0, SVG Export Plug-In . SVG Version: 6.00 Build 0)  -->
<!DOCTYPE svg PUBLIC "-//W3C//DTD SVG 1.1//EN" "http://www.w3.org/Graphics/SVG/1.1/DTD/svg11.dtd">
<svg version="1.1" xmlns="http://www.w3.org/2000/svg" xmlns:xlink="http://www.w3.org/1999/xlink" x="0px" y="0px" width="166.8px"
	 height="59.6px" viewBox="0 0 166.8 59.6" enable-background="new 0 0 166.8 59.6" xml:space="preserve">
<g id="Web">
	<g>
		<polygon fill-rule="evenodd" clip-rule="evenodd" fill="#918D8D" points="0,0 166.8,0 166.8,55.6 0,55.6 0,0 		"/>
		<path fill-rule="evenodd" clip-rule="evenodd" fill="#FFFFFF" d="M80.5,39.9l2.9-8.2c0.9,1.8,9.6,5.8,9.9,1.9
			c0.1-1.3-4-2.2-5.5-2.4c-2.2-0.4-3.9-1.3-5.1-2.6c-1.2-1.3-1.8-3-1.8-5c0-6.8,5.8-10.4,12.4-10.4c1.7,0,3.4,0.2,5,0.6
			c1.6,0.4,2.8,1.1,4.5,2l-2.8,7.5c-1-0.7-2.1-1.3-3.1-1.7c-1-0.4-2-0.6-3-0.6c-0.7,0-1.3,0.1-1.7,0.4c-0.4,0.2-0.6,0.6-0.6,1
			c0,0.8,1.5,1.5,4.4,2.1c0.5,0.1,0.8,0.2,1.1,0.2c2,0.4,3.6,1.4,4.8,2.7c0.4,0.4,0.7,0.9,0.9,1.4c1.8-4.7,7.1-7.6,11.9-7.5
			c4.8,0.1,9.6,2.6,11.7,7.1c2.5-7.2,10.2-8.1,16.8-5.8v7.4c-1.6-1-4.5-1.6-6,0c-1.2,1.1-1.1,2.9,0.1,4c1.4,1.3,4.4,1,5.9,0v7.5
			c-4.8,2.3-9.2,2.2-13.5-1.5c-2.3-2-3-3.6-3.5-6.2c-4.7,0-9.3,0-14,0c-0.2,0.8,0.2,1.9,0.6,2.5c0.7,0.9,2.1,1.2,3,0.5
			c0.4-0.3,0.9-0.5,1.1-1.1h9.2c-2.6,5.5-5.8,7.3-11.6,7.4c-4.8,0.1-9.2-2.5-11.3-6.4c-0.1-0.2-0.2-0.3-0.3-0.5
			c-0.6,1.4-1.5,2.7-2.8,3.8c-2.4,2-5.5,3-9.2,3C86.3,43.2,84.3,42.1,80.5,39.9L80.5,39.9z M112,29.4l5,0c0-0.8-0.3-1.4-0.7-1.8
			c-0.4-0.4-1-0.6-1.8-0.6c-0.7,0-1.3,0.2-1.7,0.6C112.4,28,112.2,28.6,112,29.4L112,29.4z M64.9,29.4c1.5,0,2.8,1.3,2.8,2.9
			c0,1.6-1.3,2.9-2.8,2.9c-1.5,0-2.8-1.3-2.8-2.9C62.1,30.7,63.3,29.4,64.9,29.4L64.9,29.4z M67.3,42.5v-2.2
			c-3.3,3.2-7.9,3.4-11,0.9c-5.1-4.1-5.3-11.8-1.5-16.8c2.9-3.9,9.4-4.2,12.4-0.4v-2h9.6v20.5H67.3L67.3,42.5z M25.4,30l3.5-16.9h19
			v8.5H35.4c-0.1,0.8-0.1,1.6-0.2,2.5c2.4-0.7,6.6-2.2,11.4,1.6c5.5,4.4,3.1,11.1-0.4,14c-5.3,4.4-16.2,4.1-22.3,0.9l1.1-7.1
			c3,1.3,13.5,3.2,13.8-1.3C39.1,28.2,27.8,29.5,25.4,30L25.4,30z M64.9,12.9l5.3,6.3l-3.7,2.5L60,16L64.9,12.9L64.9,12.9z"/>
		<path fill-rule="evenodd" clip-rule="evenodd" fill="#FFFFFF" d="M53.5,0h59.7c0,3.5,0,7,0,10.5c-7.5-3.1-20.3-3.5-28.6,0
			c-6.1,2.5-18.4,2.9-31-4V0L53.5,0z"/>
		<polygon fill-rule="evenodd" clip-rule="evenodd" fill="#FFFFFF" points="53.5,47.7 113.2,47.7 113.2,59.6 53.5,59.6 53.5,47.7 		
			"/>
	</g>
	<g id="Teléfono">
	</g>
</g>
<g id="Grid">
</g>
</svg>
