<?xml version="1.0" encoding="utf-8"?>
<!-- Generator: Adobe Illustrator 17.1.0, SVG Export Plug-In . SVG Version: 6.00 Build 0)  -->
<!DOCTYPE svg PUBLIC "-//W3C//DTD SVG 1.1//EN" "http://www.w3.org/Graphics/SVG/1.1/DTD/svg11.dtd">
<svg version="1.1" xmlns="http://www.w3.org/2000/svg" xmlns:xlink="http://www.w3.org/1999/xlink" x="0px" y="0px" width="165.3px"
	 height="29.5px" viewBox="0 0 165.3 29.5" enable-background="new 0 0 165.3 29.5" xml:space="preserve">
<g id="Web">
	<g>
		<path fill-rule="evenodd" clip-rule="evenodd" fill="#918D8D" d="M5.9,14.7c-0.9-1.5-1.2-3.5-1.2-5C4.8,4.4,9.4,0,14.3,0h15.2
			l-5.9,6h-9.4C10.4,6,5.8,9.8,5.9,14.7L5.9,14.7z M11.7,10.4c0.4-1.3,1.6-2.9,2.8-3.7c-2.2,0-4.7,1.1-6.6,3.7H11.7L11.7,10.4z
			 M14.8,7.4c-0.9,0.8-1.8,1.9-2.3,3H17C16.6,9.3,15.6,8.2,14.8,7.4L14.8,7.4z M7.5,11.2c-0.6,1-0.8,2.2-0.9,3.3h4.3
			c0-1.2,0.2-2.3,0.6-3.3H7.5L7.5,11.2z M12.2,11.2c-0.4,1-0.6,2.2-0.7,3.3H18c-0.1-1.2-0.3-2.3-0.7-3.3H12.2L12.2,11.2z M21.5,10.4
			c-1.8-2.7-4.3-3.7-6.5-3.7c1.1,0.8,2.3,2.5,2.8,3.7H21.5L21.5,10.4z M18.1,11.2c0.4,1,0.6,2.2,0.6,3.3h4.3
			c-0.1-1.2-0.4-2.3-0.9-3.3H18.1L18.1,11.2z M7.9,19.1c1.9,2.8,4.4,3.7,6.6,3.7c-1.2-0.9-2.4-2.5-2.8-3.7H7.9L7.9,19.1z M14.8,22.2
			c0.8-0.8,1.8-2,2.3-3h-4.6C13,20.2,13.9,21.4,14.8,22.2L14.8,22.2z M11.4,18.5c-0.4-1.2-0.6-2.3-0.6-3.3H6.6
			c0.1,1.1,0.4,2.3,0.9,3.3H11.4L11.4,18.5z M17.3,18.5c0.4-1,0.6-2.2,0.7-3.3h-6.5c0.1,1.1,0.3,2.3,0.7,3.3H17.3L17.3,18.5z
			 M17.8,19.1c-0.5,1.2-1.6,2.8-2.8,3.7c2.2,0,4.7-0.9,6.5-3.7H17.8L17.8,19.1z M22,18.5c0.6-1,0.9-2.2,0.9-3.3h-4.3
			c0,1-0.2,2.2-0.6,3.3H22L22,18.5z M23.6,14.8c0.1,5-4.5,8.9-8.3,8.9H5.9L0,29.5h15.2c4.9,0,9.5-4.4,9.5-9.6c0-1.5-0.2-3.5-1.2-5
			V14.8L23.6,14.8z"/>
		<path fill-rule="evenodd" clip-rule="evenodd" fill="#918D8D" d="M68.1,22.8c-4,0-6.8-2.4-6.8-6.1c0-3.7,2.9-6.1,6.8-6.1
			c3.9,0,6.8,2.4,6.8,6.1C74.9,20.5,72.1,22.8,68.1,22.8L68.1,22.8z M135.8,10.9v11.7h-3.9l-0.1-1.2h-0.1c-0.4,0.4-1.3,1.4-3.9,1.4
			c-2.8,0-5.3-2.5-5.3-6.1c0-3.4,2.2-6.1,5.6-6.1c2.3,0,3.2,1,3.6,1.3h0.1l0-1.1H135.8L135.8,10.9z M105.3,10.9v11.7h-3.9l-0.1-1.2
			h-0.1c-0.4,0.4-1.3,1.4-3.9,1.4c-2.8,0-5.3-2.5-5.3-6.1c0-3.4,2.2-6.1,5.6-6.1c2.3,0,3.2,1,3.6,1.3h0.1l0-1.1H105.3L105.3,10.9z
			 M86.1,10.9h4.1v11.7h-4.1V10.9L86.1,10.9z M107.9,22.6V6.1h4.1v5.6h0c0.3-0.2,1.6-1.1,3.5-1.1c3.2,0,5.5,2.5,5.5,5.9
			c0,4.2-2.6,6.3-5.5,6.3c-2.2,0-3.3-1-3.6-1.3h-0.1l-0.1,1.1H107.9L107.9,22.6z M68.1,19.9c1.7,0,2.6-1.4,2.6-3.2
			c0-1.7-0.9-3.2-2.6-3.2c-1.8,0-2.6,1.4-2.6,3.2C65.5,18.5,66.5,19.9,68.1,19.9L68.1,19.9z M84.2,19.4c-0.2,0.1-0.7,0.2-1.1,0.2
			c-0.8,0-1.7-0.4-1.7-1.8v-3.9h2.6v-2.9h-2.6V7.2h-4.1v3.8h-1.8v2.9h1.8v4.6c0,2.5,1.2,4.4,4.2,4.4c0.9,0,1.7-0.1,2.2-0.2
			L84.2,19.4L84.2,19.4z M37.9,22.2c1.1,0.3,2.9,0.7,4.7,0.7c3.5,0,6.9-1.2,6.9-5c0-5.2-7.2-4.5-7.2-6.6c0-1.1,1.1-1.3,2.2-1.3
			c1.5,0,3.4,0.7,3.8,0.9l0.3-3.6c-1.1-0.4-2.6-0.6-4.1-0.6c-3.4,0-6.8,1.3-6.8,4.7c0,5.1,7.2,4.1,7.2,6.8c0,1-1,1.4-2.4,1.4
			c-1.8,0-3.5-0.9-4.3-1.2L37.9,22.2L37.9,22.2z M126.8,16.6c0,1.9,1.1,3.1,2.5,3.1c1.3,0,2.5-1.2,2.5-3c0-1.8-1.1-3-2.5-3
			C127.8,13.7,126.8,15,126.8,16.6L126.8,16.6z M96.3,16.6c0,1.9,1.1,3.1,2.5,3.1c1.3,0,2.5-1.2,2.5-3c0-1.8-1.1-3-2.5-3
			C97.4,13.8,96.3,15,96.3,16.6L96.3,16.6z M60.3,11.1c-0.3-0.1-1.4-0.5-2.9-0.5c-3.7,0-6.4,2.3-6.4,6.1c0,3.5,2.5,6.1,6.2,6.1
			c1.6,0,2.8-0.4,3.1-0.5l-0.2-3.4c-0.3,0.1-1.1,0.6-2.1,0.6c-1.6,0-2.8-1.2-2.8-2.8c0-1.7,1.3-2.8,2.9-2.8c0.9,0,1.7,0.4,2,0.6
			L60.3,11.1L60.3,11.1z M153.1,22.6h4.1v-5.4h0l3.6,5.4h4.5l-4.3-6.2l4.2-5.5h-4.5l-3.5,4.8h0V6.1h-4.1V22.6L153.1,22.6z
			 M138.4,22.6h4v-6c0-1.4,0.9-2.4,2.1-2.4c1.4,0,2.1,0.9,2.1,2.4v6h4v-7c0-2.6-1.7-4.9-4.8-4.9c-2.1,0-3.2,1.1-3.7,1.6H142l0-1.3
			h-3.6V22.6L138.4,22.6z M88.2,5c-1.3,0-2.3,1-2.3,2.3c0,1.3,1,2.3,2.3,2.3c1.3,0,2.3-1,2.3-2.3C90.5,6,89.4,5,88.2,5L88.2,5z
			 M116.8,16.7c0-1.6-0.9-3-2.4-3c-1.4,0-2.5,1.2-2.5,3c0,1.7,0.9,3,2.5,3C115.8,19.7,116.8,18.5,116.8,16.7L116.8,16.7z"/>
	</g>
	<g id="Teléfono">
	</g>
</g>
<g id="Grid">
</g>
</svg>
