<?xml version="1.0" encoding="utf-8"?>
<!-- Generator: Adobe Illustrator 17.1.0, SVG Export Plug-In . SVG Version: 6.00 Build 0)  -->
<!DOCTYPE svg PUBLIC "-//W3C//DTD SVG 1.1//EN" "http://www.w3.org/Graphics/SVG/1.1/DTD/svg11.dtd">
<svg version="1.1" xmlns="http://www.w3.org/2000/svg" xmlns:xlink="http://www.w3.org/1999/xlink" x="0px" y="0px" width="168.1px"
	 height="45.1px" viewBox="0 0 168.1 45.1" enable-background="new 0 0 168.1 45.1" xml:space="preserve">
<g id="Web">
	<g>
		<path fill-rule="evenodd" clip-rule="evenodd" fill="#918D8D" d="M49.4,25.7l-0.2,0l-0.2,0l-0.2,0l-0.2,0l-0.4,0.1l-0.5,0l-0.5,0
			l-0.5,0h-0.5h-0.5l-0.5,0l-0.5,0L44,26l-0.5,0l-0.5,0l-0.5,0l-0.5,0h-0.4l-0.5,0h-0.5l-0.2,0l-0.2,0l-0.1,0l-0.1,0l-0.1,0l-0.1,0
			l-0.1,0l-0.1,0l-0.1-0.1l-0.1-0.1l-0.1-0.1l0-0.1l0-0.1l0-0.1l0-0.1l0-0.1l0-0.1l0-0.1v-0.1v-0.1l0-0.1l0-0.2l0-0.3l0.1-0.3
			l0.1-0.3l0.1-0.3l0.1-0.2l0.1-0.2l0.1-0.2l0.2-0.2l0.2-0.2l0.2-0.2l0.2-0.2l0.2-0.2l0.2-0.2l0.2-0.2l0.2-0.1l0.3-0.1l0.3-0.1
			l0.3-0.1l0.3-0.1l0.3-0.1l0.3-0.1l0.3-0.1l0.3,0l0.3,0l0.3,0l0.3,0l0.3,0l0.3,0.1l0.3,0.1l0.3,0.1l0.3,0.1l0.3,0.1l0.1,0.1L47,21
			l0.1,0.1l0.1,0.1l0.1,0.1l0.1,0.1l0.1,0.1l0.1,0.1l0.1,0.1l0.1,0.1l0.1,0.1l0.1,0.1l0.1,0.1l0.1,0.1l0.1,0.2l0.1,0.2L49,23
			l0.1,0.2l0.1,0.2l0.1,0.2l0.1,0.2l0.1,0.2l0,0.2l0,0.2l0,0.2l0,0.2l0,0.2v0.2l0,0.2l0,0.2l0,0.2L49.4,25.7L49.4,25.7z M39.6,32.4
			l17,0l0.2,0c0.6,0,1.2-0.5,1.2-1.2c0-2.5,0-6-0.5-8.2c-0.6-2.5-1.8-4.4-3.6-6.2c-1.8-1.8-3.6-2.8-6.1-3.4
			c-2.3-0.6-4.9-0.5-7.2,0.1c-2.5,0.6-4.8,1.9-6.5,3.9c-2.1,2.3-3.2,5.2-3.7,8.4c-0.6,4.2-0.1,8.7,1.8,12.3c1.3,2.4,3.2,4.4,5.6,5.5
			c2.4,1.2,5,1.6,7.8,1.5c2.4-0.1,4.8-0.7,6.7-2c1.8-1.2,4.3-3.7,4.6-6.1c0-0.2,0.1-0.6,0.1-0.9c0-0.4-0.2-0.8-0.6-0.8
			c0,0-0.1,0-0.1,0v0c-0.7,0-6.5,0-6.5,0c-0.4,0.1-0.7,0.2-1,0.5c-0.6,0.6-0.6,0.8-1.2,1.2c-1.1,0.7-2.9,0.8-4.2,0.6
			c-1.7-0.3-3.2-1.4-4-2.9c-0.3-0.5-0.7-1.5-0.3-2c0,0,0.1-0.1,0.2-0.2C39.6,32.4,39.6,32.4,39.6,32.4L39.6,32.4z"/>
		<path fill-rule="evenodd" clip-rule="evenodd" fill="#918D8D" d="M104.6,44.6c1.8,0,4.9-0.1,6.5-0.1c0.5,0,1-0.5,1-1.1h0
			c0-1.4,0-3.6,0-5.3c0-0.6-0.5-1.1-1-1.1c-0.8,0-3.9,0-3.9,0c0,0,0,0-0.1,0c-0.8-0.1-0.9-1-1-1.8c0-0.1,0-0.2,0-0.3l0-12.5
			c0-0.3,0-0.5,0-0.8c0-0.4,0.3-0.6,0.6-0.6c1.3,0,4.3,0.1,4.9-0.1c0.4-0.1,0.8-0.3,0.9-0.7c0.1-0.2,0.1-0.4,0.1-0.6
			c0,0-0.1-4.2-0.1-5.1c0-0.6-0.5-1.1-1.1-1.1c-1.8,0-4.3,0-4.5,0c-0.5-0.1-1,0.1-1.2-0.4c0-0.1-0.1-0.6-0.1-0.7l0-5.5
			c0-0.6-0.5-1.1-1-1.1l0,0c-1.4,0-1.5,0-1.6,0c-0.4,0-2.9-0.1-4.8,0c-0.6,0-1.1,0.5-1.1,1.2c0,1.1,0,6.1,0,6.1
			c0,0.2-0.1,0.5-0.4,0.5c-1,0.1-2.4,0-2.5,0c-0.5,0.2-0.7,0.5-0.7,1l0,5c0,0.3,0.1,0.7,0.3,0.9c0.4,0.5,1.1,0.4,1.8,0.4l0.7,0
			c0.5,0,0.9,0.5,0.9,1c0,1,0,1,0,1c0,0,0,0.1,0,0.1l0,14c-0.1,4.4,2.1,7.6,5.9,7.6C103.3,44.5,104.6,44.6,104.6,44.6L104.6,44.6z"
			/>
		<path fill-rule="evenodd" clip-rule="evenodd" fill="#918D8D" d="M7.2,44.1c0.5,0,0.9-0.5,0.9-1c0-0.9,0-13.9,0-13.9s0-0.7,0-1.3
			c0.1-2.4,0.8-4.9,2.4-6.2c1.2-1.1,2.9-1.4,4.7-1.3c1.9,0.1,3.1,1.1,3.6,3c0.3,1.2,0.4,2.7,0.4,4c0,0.4,0,0.9,0,0.9v0.9
			c0,0,0.1,13.1,0.1,13.9c-0.1,0.5,0.3,0.9,0.8,0.9c0.5,0,4.6,0,6.4,0c0.6,0.1,1.1-0.6,0.9-1.2c0-1.1,0-11.9,0-11.9s0-1.5,0-2.6
			c0-3.8-0.2-8.1-2.2-11.2c-1.1-1.6-2.5-2.7-4.3-3.4c-2-0.8-4.7-1.1-6.8-0.6c-1.2,0.2-2.4,0.7-3.5,1.3c-0.7,0.4-1.8,1-1.8,1
			l-0.7,0.4c0,0-0.5-1-0.8-1.7c-0.2-0.5-0.3-0.6-1-0.6c-1.7,0-5.5,0-5.9,0c-0.3,0.1-0.5,0.4-0.5,0.8C0.1,15.2,0,41.1,0,43
			c-0.1,0.6,0.4,1.1,1,1.1C1.9,44.1,6.6,44.1,7.2,44.1L7.2,44.1z"/>
		<path fill-rule="evenodd" clip-rule="evenodd" fill="#918D8D" d="M75.7,27.9l0,2c0,0,0,0,0,0l9.4,13.3c0.4,0.5,1,0.8,1.6,0.8
			c0.6,0,3.2,0,4.4,0c0.4-0.1,0.7-0.4,0.6-0.8l0-4.4l0-0.1l-0.1-0.1l-0.5-0.9l-0.9-1.3l-1.1-1.6l-3.9-5.6L85.1,29c0,0,4.7-7,6.2-9.2
			c0.3-0.4,0.5-0.9,0.5-1.5c0-1.1,0-2.9,0-3.6l0-0.1c0-0.5-0.4-0.9-0.9-0.9c0,0,0,0,0,0c-0.7,0-3.7,0-4.2,0c-0.9,0-1.2,0.4-1.8,1.2
			c-0.7,1-1.6,2.2-2.4,3.4c-0.8,1.2-2.2,2.9-3.3,4.4C78.4,23.9,75.7,27.9,75.7,27.9L75.7,27.9z"/>
		<path fill-rule="evenodd" clip-rule="evenodd" fill="#918D8D" d="M75.1,29.9l0-2c0,0,0,0,0,0l-9.4-13.2c-0.1-0.1-0.1-0.2-0.2-0.2
			c-0.3-0.5-0.9-0.8-1.5-0.9c-1.3,0-3.8,0-4.3,0c-0.5,0-0.8,0.4-0.8,0.9c0,0,0,0,0,0c0,0.5,0,2.7,0,3.8c-0.1,0.6,0,1.1,0.4,1.5
			c0,0,0.1,0.2,0.1,0.2l0.3,0.5l5.6,7.8l0.2,0.3l0.1,0.2l0.1,0.1c0,0-4.7,6.9-6.3,9.1c-0.3,0.5-0.5,1-0.5,1.6c0,0.9,0,2.4,0,3
			c0,0,0,0,0,0c0,0.6,0.4,1.2,1,1.3c0.6,0,2.9,0,4.1,0c0.5,0,0.9-0.2,1.2-0.6l0.2-0.3c0,0,0.1-0.1,0.2-0.3
			C65.9,42.5,74.9,30.3,75.1,29.9L75.1,29.9z"/>
		<path fill-rule="evenodd" clip-rule="evenodd" fill="#918D8D" d="M132.8,25.7l-0.2,0l-0.2,0l-0.2,0l-0.2,0l-0.4,0.1l-0.5,0l-0.5,0
			l-0.5,0h-0.5h-0.5l-0.5,0l-0.5,0l-0.5,0l-0.5,0l-0.5,0l-0.5,0l-0.5,0h-0.4l-0.5,0h-0.5l-0.2,0l-0.2,0l-0.1,0l-0.1,0l-0.1,0l-0.1,0
			l-0.1,0l-0.1,0l-0.1-0.1l-0.1-0.1l-0.1-0.1l0-0.1l0-0.1l0-0.1l0-0.1l0-0.1l0-0.1l0-0.1v-0.1v-0.1l0-0.1l0-0.2l0-0.3l0.1-0.3
			l0.1-0.3l0.1-0.3l0.1-0.2l0.1-0.2l0.1-0.2l0.2-0.2l0.2-0.2L124,22l0.2-0.2l0.2-0.2l0.2-0.2l0.2-0.2l0.2-0.1l0.3-0.1l0.3-0.1
			l0.3-0.1l0.3-0.1l0.3-0.1l0.3-0.1l0.3-0.1l0.3,0l0.3,0l0.3,0l0.3,0l0.3,0l0.3,0.1l0.3,0.1l0.3,0.1l0.3,0.1l0.3,0.1l0.1,0.1
			l0.2,0.1l0.1,0.1l0.1,0.1l0.1,0.1l0.1,0.1l0.1,0.1l0.1,0.1l0.1,0.1l0.1,0.1l0.1,0.1l0.1,0.1l0.1,0.1l0.1,0.1l0.1,0.2l0.1,0.2
			l0.1,0.2l0.1,0.2l0.1,0.2l0.1,0.2l0.1,0.2l0.1,0.2l0,0.2l0,0.2l0,0.2l0,0.2l0,0.2v0.2l0,0.2l0,0.2l0,0.2L132.8,25.7L132.8,25.7z
			 M123.1,32.4l17,0l0.2,0c0.6,0,1.2-0.5,1.2-1.2c0-2.5,0-6-0.5-8.2c-0.6-2.5-1.8-4.4-3.6-6.2c-1.8-1.8-3.6-2.8-6.1-3.4
			c-2.3-0.6-4.9-0.5-7.2,0.1c-2.5,0.6-4.8,1.9-6.5,3.9c-2.1,2.3-3.2,5.2-3.7,8.4c-0.6,4.2-0.1,8.7,1.8,12.3c1.3,2.4,3.2,4.4,5.6,5.5
			c2.4,1.2,5,1.6,7.8,1.5c2.4-0.1,4.8-0.7,6.7-2c1.8-1.2,4.3-3.7,4.6-6.1c0-0.2,0.1-0.6,0.1-0.9c0-0.4-0.2-0.8-0.6-0.8
			c0,0-0.1,0-0.1,0l0,0c-0.7,0-6.5,0-6.5,0c-0.4,0.1-0.7,0.2-1,0.5c-0.6,0.6-0.6,0.8-1.2,1.2c-1.1,0.7-2.9,0.8-4.2,0.6
			c-1.7-0.3-3.2-1.4-4-2.9c-0.3-0.5-0.7-1.5-0.3-2c0,0,0.1-0.1,0.2-0.2C123,32.4,123,32.4,123.1,32.4L123.1,32.4z"/>
		<path fill-rule="evenodd" clip-rule="evenodd" fill="#918D8D" d="M157.9,37.8c0-0.4-0.3-0.8-0.7-0.8c0,0-0.1,0-0.1,0l-2.5,0
			c-0.2,0-0.3,0-0.3,0c-0.1,0-0.2,0-0.2,0c-0.4,0-0.6-0.1-0.8-0.4c-0.2-0.3-0.2-0.5-0.3-0.8c-0.3-1.7-0.3-6.6-0.3-7.4
			c0-2.2,0-27.1,0-27.2c0-1-0.2-1.1-1.2-1.2c-0.4,0-4.2,0-6.1,0L145,0c-0.3,0-0.6,0.3-0.7,0.6l0,0c0,0.4,0,0.6,0,0.7l0,30.2
			c0,3.4,0.2,7.3,2,9.9c0.9,1.3,2.1,2.2,3.5,2.7c1.5,0.5,5.7,0.4,4.8,0.4c1.2,0,1.7,0.1,2.5-0.1c0.5-0.1,0.8-0.5,0.8-1
			C157.9,42,157.9,38.3,157.9,37.8L157.9,37.8z"/>
		<path fill="#918D8D" d="M163.5,43.6v-3.8h1.5c0.4,0,0.7,0,0.9,0.1c0.2,0.1,0.3,0.2,0.5,0.4c0.1,0.2,0.2,0.4,0.2,0.6
			c0,0.3-0.1,0.5-0.3,0.7c-0.1,0.1-0.3,0.2-0.5,0.3l0.8,1.7l-0.7,0l-0.7-1.6l-1.1,0v1.6H163.5L163.5,43.6z M164.1,41.4h0.6
			c0.4,0,0.8,0,0.9,0c0.1,0,0.2-0.1,0.2-0.2c0.1-0.1,0.1-0.2,0.1-0.3c0-0.1,0-0.2-0.1-0.3c-0.1-0.1-0.2-0.1-0.3-0.1
			c-0.1,0-0.5,0-0.8,0h-0.6V41.4L164.1,41.4z"/>
		<path fill-rule="evenodd" clip-rule="evenodd" fill="#918D8D" d="M164.8,38.6c1.5,0,2.8,1.3,2.8,3c0,1.7-1.3,3-2.8,3
			c-1.5,0-2.8-1.3-2.8-3C162,39.9,163.3,38.6,164.8,38.6L164.8,38.6z M164.8,38.1c1.8,0,3.3,1.6,3.3,3.5c0,1.9-1.5,3.5-3.3,3.5
			c-1.8,0-3.3-1.6-3.3-3.5C161.5,39.7,163,38.1,164.8,38.1L164.8,38.1z"/>
	</g>
	<g id="Teléfono">
	</g>
</g>
<g id="Grid">
</g>
</svg>
