<?xml version="1.0" encoding="utf-8"?>
<!-- Generator: Adobe Illustrator 17.1.0, SVG Export Plug-In . SVG Version: 6.00 Build 0)  -->
<!DOCTYPE svg PUBLIC "-//W3C//DTD SVG 1.1//EN" "http://www.w3.org/Graphics/SVG/1.1/DTD/svg11.dtd">
<svg version="1.1" xmlns="http://www.w3.org/2000/svg" xmlns:xlink="http://www.w3.org/1999/xlink" x="0px" y="0px" width="165.6px"
	 height="31.1px" viewBox="0 0 165.6 31.1" enable-background="new 0 0 165.6 31.1" xml:space="preserve">
<g id="Web">
	<g>
		<path fill-rule="evenodd" clip-rule="evenodd" fill="#918D8D" d="M48.7,7.8c-4.5-0.1-8.6,3.4-9.5,8.2c-1.1,4.8,2,8.9,7.1,8.8
			c5.2-0.2,9.2-2.2,10.5-8.5C57.9,10.8,53.5,7.9,48.7,7.8L48.7,7.8L48.7,7.8z M50.1,13c-0.6,2.5-1.2,5.1-2,7.6c-0.2,1-0.9,2.2-1.9,2
			c-0.8-0.2-0.8-1.5-0.7-2.5c0.5-2.7,1.2-5.3,2.1-7.9C48,11,48.4,9.9,49.5,10C50.9,10.1,50.3,12,50.1,13L50.1,13L50.1,13z"/>
		<path fill-rule="evenodd" clip-rule="evenodd" fill="#918D8D" d="M29.8,7.8c-4.6-0.1-8.6,3.4-9.6,8.2c-1,4.8,2,8.9,7.2,8.8
			c5.1-0.2,9.3-2.2,10.5-8.5C39,10.8,34.5,7.9,29.8,7.8L29.8,7.8L29.8,7.8z M31.2,13c-0.6,2.5-1.2,5.1-2,7.6c-0.2,1-0.9,2.2-2,2
			c-0.8-0.2-0.8-1.5-0.6-2.5c0.4-2.7,1.2-5.3,1.9-7.9c0.6-1.2,0.8-2.3,1.9-2.2C32,10.1,31.4,12,31.2,13L31.2,13L31.2,13z"/>
		<path fill-rule="evenodd" clip-rule="evenodd" fill="#918D8D" d="M10.5,20.3c-0.2,0.6-0.6,1.2-1.5,1.2C7.9,21.6,7.9,20.6,8,20l0,0
			l2.1-7.7c0.2-0.9,0.8-1.7,2.3-1.6c1.1,0,1.8,0.6,2.6,1.3l0,0l1.7-2.3c-1.6-1.2-3.3-1.7-5.3-1.7c-6.6,0.1-10,4-11,7.6
			c-1.2,3.4,0,8.9,5.8,9.1l0,0h10.3l2.3-9.2h-7.1L10.5,20.3L10.5,20.3z"/>
		<path fill-rule="evenodd" clip-rule="evenodd" fill="#918D8D" d="M85.7,7.5c0.1-0.1,0.1-0.2,0.1-0.2c-0.2-0.9-0.2-1.7-0.2-2.5l0,0
			h0.1l-0.4-0.7l-5.6,3.7c0.3,1,1,2.1,1.4,3.1l0,0L85.7,7.5L85.7,7.5z"/>
		<path fill-rule="evenodd" clip-rule="evenodd" fill="#918D8D" d="M85.2,20.8c0.4-0.5,0.9-0.9,1.4-1.4l0,0l0.5-0.4l0.6-0.4l0.6-0.4
			l0.7-0.5l0.6-0.3l0.7-0.4l0.7-0.4l0.8-0.3l0.1-0.1l-1.3-2.4c-0.5,0.6-1.2,1.2-1.7,1.7l0,0l-1.2-1.2L87,13.4
			c-0.1-0.3-0.3-0.7-0.4-0.9l0,0l-4.7,2.9l3.1,5.6L85.2,20.8L85.2,20.8z"/>
		<path fill-rule="evenodd" clip-rule="evenodd" fill="#918D8D" d="M85.8,12l-4.4-0.2c0.2,0.6,0.2,1.2,0,1.9c0,0.2-0.1,0.7-0.2,1.2
			l0,0L85.8,12L85.8,12z"/>
		<path fill-rule="evenodd" clip-rule="evenodd" fill="#918D8D" d="M85.7,8.4l-3.8,2.8l4.2,0.2c-0.1-0.2-0.1-0.5-0.2-0.8l0,0l-0.2-1
			C85.7,9.1,85.7,8.7,85.7,8.4L85.7,8.4L85.7,8.4z"/>
		<polygon fill-rule="evenodd" clip-rule="evenodd" fill="#918D8D" points="119.2,17.4 123,17.4 123.9,14.1 120,14.1 120.7,11 
			126.7,11 127.4,8.1 113.9,8.1 109.8,24.7 123.3,24.7 124.2,21.4 118.2,21.4 119.2,17.4 		"/>
		<polygon fill-rule="evenodd" clip-rule="evenodd" fill="#918D8D" points="109.1,8.1 104.4,13.6 102.9,8.1 94.7,8.1 97.6,17.4 
			95.7,24.7 103.7,24.7 105.3,17.8 113.2,8.1 109.1,8.1 		"/>
		<path fill-rule="evenodd" clip-rule="evenodd" fill="#918D8D" d="M160.6,8.1h-11.6l-4.6,16.7h8l1.8-6.1l1.6,6.1h7.8l-1.7-6.4
			c2.3-1.3,3.2-2.7,3.7-5.5C166,8.6,162.6,8.1,160.6,8.1L160.6,8.1L160.6,8.1z M157.7,11.2c-0.1,1.3-0.4,2.6-0.7,3.8
			c-0.2,0.7-0.3,1.5-1.5,1.5l0,0h-1l1.3-6.4h1.2C157.7,10,158,10.6,157.7,11.2L157.7,11.2z"/>
		<path fill-rule="evenodd" clip-rule="evenodd" fill="#918D8D" d="M134.7,8.1l-10.1,16.7h3.6l1.7-2.8h5.4l0.4,2.8h7.6l-2-16.7
			H134.7L134.7,8.1z M131.7,18.8l2.7-4.4l0.4,4.4H131.7L131.7,18.8z"/>
		<path fill-rule="evenodd" clip-rule="evenodd" fill="#918D8D" d="M70.6,8.1h-10l-4.2,16.7H66c7.2-0.1,9.8-4.7,10.5-9.3
			C77.2,10.9,74.3,8.3,70.6,8.1L70.6,8.1z M69.7,12.6l-2.1,7.6c-0.2,1-0.7,1.8-2.1,1.9l0,0h-1.2l3.1-11.5h1.7
			C69.7,10.6,70.1,11.5,69.7,12.6L69.7,12.6L69.7,12.6z"/>
		<path fill-rule="evenodd" clip-rule="evenodd" fill="#918D8D" d="M98.1,6.9c-0.1-0.6-0.7-0.8-1.2-1.1c1.2-0.3,2.2-0.5,2.5-0.8
			c0.1-0.1-0.2-0.4-0.7-0.9l0,0l6.1-0.1c2.2,0,4.8-2,4.9-4c-0.6,0.3-1.6,0.7-2.4,0.8l0,0L94.4,0.7c-2.2-0.2-4.7,0-6,0.7
			C86.5,2.8,86.7,5,87,7.1c-0.2,2.4,0.3,5.1,1.8,6.5c0.8-0.8,1.5-1.7,1.7-3c0.2,0.4,0.7,0.7,1.2,0.8c0.3-0.8,0.3-1.6,0.3-2.4
			c0.2,0.3,0.6,0.7,1.1,0.8c0.4-1.2,0.5-2.2,0.5-3.2C95.1,7.5,96.8,7.6,98.1,6.9L98.1,6.9L98.1,6.9z M90,8.9
			c-0.5-0.2-0.9-0.7-1.5-0.9c0-0.6,0-1.2-0.3-1.7c0.6,0.4,1.2,0.6,2,0.7C90,7.6,89.9,8.2,90,8.9L90,8.9L90,8.9z M93.6,4.2
			c-0.5,0.7-1.1,0.9-2,0.7c-0.8,0.5-1.7,0.4-2.6-0.1c0.8-0.3,1.6-0.7,1.9-1.4c1.1,0.2,1.9,0.2,2.2-0.8c0.8,0.5,1.7,0.4,2.5,0.1
			C95.5,3.7,94.8,4.2,93.6,4.2L93.6,4.2L93.6,4.2z"/>
		<path fill-rule="evenodd" clip-rule="evenodd" fill="#918D8D" d="M92.2,16.9l-0.7,0.4l-0.7,0.2L90,18l-0.6,0.4l-0.6,0.4l-0.7,0.4
			l-0.4,0.4L87.2,20l-0.9,0.9l-0.9,0.9c-1.1,1.2-2.2,2.3-3.4,3.5l0,0l-0.8,0.9l-0.5,0.4l-0.5,0.4l-0.5,0.5l-0.5,0.3l-0.7,0.4
			L78,28.7L77.2,29l-0.6,0.4l-0.8,0.3l-0.6,0.3l0.8,1.1c8.2-3.4,8.6-9.3,17.1-13.1l0,0l-0.7-1.2L92.2,16.9L92.2,16.9z"/>
		<path fill-rule="evenodd" clip-rule="evenodd" fill="#918D8D" d="M76.1,28.6l0.7-0.3l0.5-0.4l0.7-0.2l0.5-0.4l0.6-0.4l0.4-0.4
			l1-0.7l0.8-0.8c1-1,1.9-2.2,2.9-3.2l0,0l0.2-0.2L81,15.4c-1.1,2.3-3.8,5.8-4.2,9.5c-1.5,1.2-3.5,2.5-2.2,4.4l0,0h0.1l0.7-0.3
			L76.1,28.6L76.1,28.6z"/>
	</g>
	<g id="Teléfono">
	</g>
</g>
<g id="Grid">
</g>
</svg>
