<?xml version="1.0" encoding="utf-8"?>
<!-- Generator: Adobe Illustrator 17.1.0, SVG Export Plug-In . SVG Version: 6.00 Build 0)  -->
<!DOCTYPE svg PUBLIC "-//W3C//DTD SVG 1.1//EN" "http://www.w3.org/Graphics/SVG/1.1/DTD/svg11.dtd">
<svg version="1.1" xmlns="http://www.w3.org/2000/svg" xmlns:xlink="http://www.w3.org/1999/xlink" x="0px" y="0px" width="167.4px"
	 height="36.5px" viewBox="0 0 167.4 36.5" enable-background="new 0 0 167.4 36.5" xml:space="preserve">
<g id="Web">
	<g>
		<path fill-rule="evenodd" clip-rule="evenodd" fill="#918D8D" d="M93.3,23.2c0,0.3,0,0.7-0.1,0.9c-0.4,1.2-1.6,2.2-3.2,2.2
			c-1.3,0-2.3-0.7-2.3-2.3c0-2.4,2.6-3,5.6-3V23.2L93.3,23.2z M98,19.1c0-3.9-1.7-7.4-7.4-7.4c-2.9,0-5.2,0.8-6.5,1.6l0.9,3.2
			c1.2-0.7,3-1.3,4.7-1.3c2.9,0,3.4,1.6,3.4,2.7V18c-6.3,0-10.3,2.2-10.3,6.6c0,2.7,2,5.3,5.5,5.3c2.2,0,4-0.9,5.1-2.2h0.1
			c0,0,0.7,3,4.7,1.9c-0.2-1.3-0.3-2.6-0.3-4.2V19.1L98,19.1z"/>
		<path fill-rule="evenodd" clip-rule="evenodd" fill="#918D8D" d="M0,6.3c0,0,4.1,16.8,4.8,19.6c0.8,3.2,2.1,4.4,6.1,3.6L13.5,19
			c0.7-2.6,1.1-4.4,1.5-7.1H15c0.3,2.7,0.7,4.5,1.2,7.1c0,0,1,4.7,1.6,7.2c0.5,2.5,2,4.1,5.9,3.2l6.1-23.2H25l-2.1,10
			c-0.6,2.9-1.1,5.2-1.5,7.9h-0.1c-0.4-2.6-0.8-4.8-1.4-7.7L17.8,6.3h-5.1l-2.3,9.9c-0.7,3-1.3,5.5-1.7,8H8.6
			c-0.4-2.4-0.9-5.5-1.5-8.4c0,0-1.4-7.1-1.9-9.6H0L0,6.3z"/>
		<path fill-rule="evenodd" clip-rule="evenodd" fill="#918D8D" d="M39.2,23.2c0,0.3,0,0.7-0.1,0.9c-0.4,1.2-1.6,2.2-3.2,2.2
			c-1.3,0-2.3-0.7-2.3-2.3c0-2.4,2.6-3,5.6-3V23.2L39.2,23.2z M43.9,19.1c0-3.9-1.7-7.4-7.4-7.4c-2.9,0-5.2,0.8-6.5,1.6l0.9,3.2
			c1.2-0.7,3-1.3,4.7-1.3c2.9,0,3.4,1.6,3.4,2.7V18c-6.3,0-10.3,2.2-10.3,6.6c0,2.7,2,5.3,5.5,5.3c2.2,0,4-0.9,5.1-2.2h0.1
			c0,0,0.7,3,4.7,1.9c-0.2-1.3-0.3-2.6-0.3-4.2V19.1L43.9,19.1z"/>
		<polygon fill-rule="evenodd" clip-rule="evenodd" fill="#918D8D" points="51.8,24.5 51.8,6.3 47.1,6.3 47.1,29.4 51.8,29.4 
			51.8,24.5 		"/>
		<path fill-rule="evenodd" clip-rule="evenodd" fill="#918D8D" d="M113.3,6.3v17.1c0,2.3,0.4,4,1.4,5c0.8,0.9,2.2,1.4,3.8,1.4
			c1.4,0,2.8-0.3,3.4-0.5l-0.1-3.7c-0.5,0.1-1,0.2-1.8,0.2c-1.6,0-2.1-1-2.1-3.1v-6.5h4.1v-4.4h-4.1V6.3H113.3L113.3,6.3z"/>
		<path fill-rule="evenodd" clip-rule="evenodd" fill="#918D8D" d="M101.1,12v17.4h4.8v-8.9c0-0.5,0-0.9,0.1-1.3
			c0.4-1.9,1.8-3.1,3.8-3.1c0.6,0,1,0.1,1.4,0.1v-4.6c-0.4-0.1-0.6-0.1-1.1-0.1c-1.8,0-3.9,1.2-4.7,3.7h-0.1V12H101.1L101.1,12z"/>
		<path fill-rule="evenodd" clip-rule="evenodd" fill="#918D8D" d="M55.1,12v17.4h4.7V19.2c0-0.5,0.1-1,0.2-1.4
			c0.4-1,1.3-2.2,2.9-2.2c1.9,0,2.8,1.6,2.8,3.9v9.9h4.7V19.1c0-0.5,0.1-1,0.2-1.4c0.4-1.2,1.4-2.1,2.8-2.1c1.9,0,2.9,1.6,2.9,4.3
			v9.5H81V19.2c0-5.4-2.7-7.5-5.8-7.5c-1.4,0-2.5,0.3-3.4,0.9c-0.8,0.5-1.6,1.2-2.2,2.2h-0.1c-0.7-1.9-2.5-3.1-4.8-3.1
			c-2.9,0-4.3,1.5-5.1,2.8h-0.1V12H55.1L55.1,12z"/>
		<path fill-rule="evenodd" clip-rule="evenodd" fill="#918D8D" d="M148.4,12.3c0.9,0,1.6-0.4,1.7-1l0.8-9.6c0-0.9-1.1-1.7-2.5-1.7
			c-1.4,0-2.5,0.8-2.5,1.7l0.8,9.6C146.8,11.9,147.5,12.3,148.4,12.3L148.4,12.3L148.4,12.3z"/>
		<path fill-rule="evenodd" clip-rule="evenodd" fill="#918D8D" d="M143.2,15.3c0.4-0.7,0.4-1.6-0.1-1.9l-7.9-5.5
			c-0.8-0.5-2,0.1-2.7,1.3c-0.7,1.2-0.6,2.6,0.2,3l8.7,4.1C142,16.4,142.8,16,143.2,15.3L143.2,15.3L143.2,15.3z"/>
		<path fill-rule="evenodd" clip-rule="evenodd" fill="#918D8D" d="M153.5,15.3c0.4,0.7,1.2,1.1,1.7,0.9l8.7-4.1
			c0.8-0.5,0.9-1.8,0.2-3c-0.7-1.2-1.9-1.8-2.7-1.3l-7.9,5.5C153.1,13.7,153.1,14.5,153.5,15.3L153.5,15.3L153.5,15.3z"/>
		<path fill-rule="evenodd" clip-rule="evenodd" fill="#918D8D" d="M148.4,24.2c0.9,0,1.6,0.4,1.7,1l0.8,9.6c0,0.9-1.1,1.7-2.5,1.7
			c-1.4,0-2.5-0.8-2.5-1.7l0.8-9.6C146.8,24.7,147.5,24.2,148.4,24.2L148.4,24.2L148.4,24.2z"/>
		<path fill-rule="evenodd" clip-rule="evenodd" fill="#918D8D" d="M153.5,21.3c0.4-0.7,1.2-1.1,1.7-0.9l8.7,4
			c0.8,0.5,0.9,1.8,0.2,3c-0.7,1.2-1.9,1.8-2.7,1.3l-7.9-5.5C153.1,22.8,153.1,22,153.5,21.3L153.5,21.3L153.5,21.3z"/>
		<path fill-rule="evenodd" clip-rule="evenodd" fill="#918D8D" d="M143.2,21.3c0.4,0.7,0.4,1.6-0.1,1.9l-7.9,5.5
			c-0.8,0.5-2-0.1-2.7-1.3c-0.7-1.2-0.6-2.6,0.2-3l8.7-4C142,20.1,142.8,20.5,143.2,21.3L143.2,21.3L143.2,21.3z"/>
		<path fill-rule="evenodd" clip-rule="evenodd" fill="#918D8D" d="M164.7,30.3c0.1,0.1,0.2,0.1,0.4,0.1c0.2,0,0.3-0.1,0.3-0.2
			c0-0.1-0.1-0.2-0.3-0.2c-0.2-0.1-0.4-0.2-0.4-0.4c0-0.2,0.2-0.4,0.5-0.4c0.2,0,0.3,0,0.4,0.1l-0.1,0.2c-0.1,0-0.2-0.1-0.3-0.1
			c-0.2,0-0.2,0.1-0.2,0.2c0,0.1,0.1,0.2,0.3,0.2c0.3,0.1,0.4,0.2,0.4,0.4c0,0.2-0.2,0.4-0.6,0.4c-0.2,0-0.3,0-0.4-0.1L164.7,30.3
			L164.7,30.3z"/>
		<path fill-rule="evenodd" clip-rule="evenodd" fill="#918D8D" d="M167.2,30c0-0.2,0-0.4,0-0.6h0c0,0.2-0.1,0.4-0.2,0.6l-0.2,0.6
			h-0.2l-0.2-0.6c-0.1-0.2-0.1-0.4-0.1-0.6h0c0,0.2,0,0.4,0,0.6l0,0.6h-0.3l0.1-1.5h0.4l0.2,0.6c0.1,0.2,0.1,0.3,0.1,0.5h0
			c0-0.2,0.1-0.3,0.1-0.5l0.2-0.6h0.4l0.1,1.5h-0.3L167.2,30L167.2,30z"/>
	</g>
	<g id="Teléfono">
	</g>
</g>
<g id="Grid">
</g>
</svg>
