<?xml version="1.0" encoding="utf-8"?>
<!-- Generator: Adobe Illustrator 17.1.0, SVG Export Plug-In . SVG Version: 6.00 Build 0)  -->
<!DOCTYPE svg PUBLIC "-//W3C//DTD SVG 1.1//EN" "http://www.w3.org/Graphics/SVG/1.1/DTD/svg11.dtd">
<svg version="1.1" xmlns="http://www.w3.org/2000/svg" xmlns:xlink="http://www.w3.org/1999/xlink" x="0px" y="0px" width="142.8px"
	 height="169.6px" viewBox="0 0 142.8 169.6" enable-background="new 0 0 142.8 169.6" xml:space="preserve">
<g id="Web">
	<g>
		<path fill="#918D8D" d="M111.1,111.3c-0.9-1.2-2-2.3-3.2-3.2c-2.4-3.1-3.9-7.1-3.9-11.4c0-4.3,1.5-8.3,4-11.4
			c4.4-3.4,7.2-8.7,7.2-14.7c0-10.3-8.3-18.6-18.6-18.6c-2,0-4,0.3-5.8,0.9c-2,0.7-3.9,1.7-5.6,3c-1.2,0.9-2.1,2.1-3.2,3.2
			C79.3,61.9,75,63,70.7,63c-6,0.5-12.1-3.9-14.6-7.1c-1.9-2.3-3.8-7-3.8-11.2c0-4.3,1.1-8.7,4-11.5c1.1-1.1,2.3-2,3.2-3.2
			c1.3-1.7,2.4-3.6,3.1-5.7c0.6-1.8,0.9-3.8,0.9-5.8C63.5,8.3,55.2,0,44.9,0C34.7,0,26.4,8.3,26.4,18.6c0,2,0.3,4,0.9,5.8
			c0.7,2,1.7,3.9,3,5.6c0.9,1.2,2,2.3,3.2,3.2c2.4,3.1,3.9,7.1,3.9,11.4c0,4.3-1.5,8.3-4,11.4c-4.4,3.4-7.2,8.7-7.2,14.7
			c0,2,0.3,4,0.9,5.8c0.7,2,1.7,3.9,3,5.6c0.9,1.2,2,2.3,3.2,3.2c2.4,3.1,3.9,7.1,3.9,11.4c0,4.3-1.5,8.3-4,11.4
			c-4.4,3.4-7.2,8.7-7.2,14.7c0,10.3,8.3,18.6,18.6,18.6c2,0,4-0.3,5.8-0.9c2-0.7,3.9-1.7,5.6-3c1.2-0.9,2.3-2,3.2-3.2
			c3.1-2.4,7.1-3.9,11.3-3.9c4.3,0,8.3,1.5,11.5,4c-0.6-0.8-1.2-1.6-1.6-2.5c3.2,5.7,9.2,9.5,16.2,9.5c10.3,0,18.6-8.3,18.6-18.6
			c0-2-0.3-4-0.9-5.8C113.4,114.8,112.4,113,111.1,111.3z M70.5,115.4c-10.4,0-18.9-8.4-18.9-18.9c0-10.4,8.4-18.9,18.9-18.9
			c10.4,0,18.9,8.4,18.9,18.9C89.4,107,81,115.4,70.5,115.4z"/>
		<g>
			<path fill="#918D8D" d="M92.4,169.1c0,0.3-0.3,0.6-0.7,0.6h-3.5c-0.4,0-0.7-0.2-0.7-0.6v-19.8c0-0.3,0.3-0.6,0.7-0.6h3.5
				c0.4,0,0.7,0.2,0.7,0.6V169.1z"/>
			<path fill="#918D8D" d="M142.8,169.1c0,0.3-0.3,0.6-0.7,0.6h-3.5c-0.4,0-0.7-0.2-0.7-0.6v-19.8c0-0.3,0.3-0.6,0.7-0.6h3.5
				c0.4,0,0.7,0.2,0.7,0.6V169.1z"/>
			<path fill="#918D8D" d="M82.7,169.2c0,0.2-0.3,0.4-0.7,0.4h-3.5c-0.4,0-0.7-0.2-0.7-0.4v-15.6c0-0.2,0.3-0.4,0.7-0.4H82
				c0.4,0,0.7,0.2,0.7,0.4V169.2z"/>
			<path fill="#918D8D" d="M82.7,150.9c0,0-0.3,0.1-0.7,0.1h-3.5c-0.4,0-0.7,0-0.7-0.1v-2.1c0,0,0.3-0.1,0.7-0.1H82
				c0.4,0,0.7,0,0.7,0.1V150.9z"/>
			<path fill="#918D8D" d="M20.4,167.8c0,0-0.2,1.4,1,1.5c1.2,0.1,2.3,0.1,2.3,0.1s1.2,0.3,1.2-1.2s0-11.1,0-11.1s-0.3-2,1.4-2
				c1.7,0,2.2,0,2.2,0s1.3-0.1,1.3,0.6c0,0.8,0,1,0,1s0.4,0.9,1.1,0.9c0.7,0,2.3,0,2.6,0c0.4,0,0.7-0.6,0.8-0.9
				c0.1-0.3,0-3.3-3.6-3.5c-3.6-0.2-6.2-0.2-6.2-0.2s-3.2,0.3-4.2,2.5L20.4,167.8z"/>
			<path fill="#918D8D" d="M57.9,155.7l0,3.7c0,0,0.2,2.6,4,2.7c3.7,0.1,5,0.1,5,0.1s1.6-0.1,1.6,1.1c0,1.2,0,3.3,0,3.3
				s0,1.2-1.4,1.2c-1.4,0-3.5,0-3.5,0s-1.3-0.5-1.7-2c-0.9-0.8-4.1-1.1-4.1,0.8c0.1,1.9,2.5,2.8,5.1,2.8c2.6,0,5.6,0,5.6,0
				s3.3-0.1,4.1-2.2c0.3-2,0-4.2,0-4.2s-1.1-1.9-3.2-2.1c-2.1-0.2-5.7-0.3-5.7-0.3s-1.7,0-1.6-1.8c0.1-1.7,0.1-2.8,0.1-2.8
				s0-1,1.7-0.9c1.8,0.1,3.4,0.1,3.4,0.1s1.1,0.1,1.1,1.4c0,1.2,0.1,1,1.1,1c1,0,2.9,0,2.9,0l0.1-2.1c0,0-0.7-2.1-3.8-2.1
				c-3.1,0-6.2-0.1-6.2-0.1S58.7,153.1,57.9,155.7z"/>
			<path fill="#918D8D" d="M108,161.2l0,5c0,0,0,1.4-1.6,1.4c-1.6,0-2.8,0-2.8,0s-1.5-0.5-1.8-1.2c-0.2-0.7-2.5-2-4-0.7
				c-1.5,1.2,2.3,3.3,3.1,3.4c0.8,0.1,7,0.2,7,0.2s3.7-0.2,4.6-2.2c-0.1-2.2-0.1-6.2-0.1-6.2s-0.5-2.1-3.8-2.3
				c-3.3-0.3-5.5-0.3-5.5-0.3s-1.2,0.2-1.2-1.5c0-1.7,0.1-4.8,0.1-4.8s0.2-1.3,1.9-1.2c1.8,0,2.4,0.1,2.4,0.1s1.4-0.1,1.5,0.8
				c0.2,0.9,0.2,1.6,1.6,1.7c1.4,0.1,2.4-0.1,2.6-0.1c0.2,0,2-1.9-0.8-3.2c-2.9-1.3-11.9-2.1-13.7,1.3c0.1,5,0.1,6.2,0.1,6.2
				s0.7,2.2,4,2.5c3.3,0.2,4.5,0.1,4.5,0.1S107.9,159.8,108,161.2z"/>
			<path fill="#918D8D" d="M117.8,153.8c0,0,2.1-2.4,4.7,0.1l-0.1,12.1c0,0-0.1,1.7,1.8,1.8c1.9,0.1,2.5,0,2.5,0s1.7,0.1,1.7-1.5
				c0-1.7-0.1-12.4-0.1-12.4s2.6-2.2,4.5,0.3c0,3.1,0,12.6,0,12.6s-0.6,2.8-4.5,2.9c-3.9,0.1-6.6,0-6.6,0s-3.3,0-4-2.5
				C117.8,164.2,117.8,153.8,117.8,153.8z"/>
			<path fill="#918D8D" d="M14.9,158.1c0-0.8,0.1-6.7,0.1-6.7s-0.4-2.4-3.8-2.5c-3.4-0.1-6.1-0.1-6.4-0.1c-0.2,0-4.1-0.2-4.7,2.3
				L0,166.7c0,0,0.3,2.4,3.2,2.5c3,0,7.7,0.2,7.7,0.2s3.4-0.2,4.1-2.5l0.1-6.6c0,0-1-0.9-2.5-0.9C12.6,159.3,14.9,158.9,14.9,158.1z
				 M10.5,167.5c0,0.3-0.3,0.6-0.6,0.6H5.1c-0.3,0-0.6-0.3-0.6-0.6v-6.7c0-0.3,0.3-0.6,0.6-0.6h4.8c0.3,0,0.6,0.3,0.6,0.6V167.5z
				 M10.5,157.9c0,0.3-0.3,0.6-0.6,0.6H5.1c-0.3,0-0.6-0.3-0.6-0.6v-6.7c0-0.3,0.3-0.6,0.6-0.6h4.8c0.3,0,0.6,0.3,0.6,0.6V157.9z"/>
			<path fill="#918D8D" d="M48,153.2l-6,0c-1.3,0-3.3,1.2-4,2.2c-0.7,1-0.8,3,4,1.6c-0.2-2,1.3-2.1,1.3-2.1s0.9,0,2.7,0
				c1.8,0,2.2,1.1,2.2,1.1s0.1,1.9,0.1,3.1c0,1.1-1.6,1.2-1.6,1.2s-1.8,0-4.6,0.1c-2.8,0.1-4.3,2.8-4.3,2.8s-0.1,1.6-0.1,3.9
				c0,2.3,3.6,2.3,3.6,2.3s4.9,0.1,7.8,0c2.9-0.1,3.5-2.5,3.5-2.5l0-11.2C51.8,153.3,48,153.2,48,153.2z M48.1,167.6
				c0,0.3-0.3,0.5-0.7,0.5h-5.2c-0.4,0-0.7-0.2-0.7-0.5v-5.3c0-0.3,0.3-0.5,0.7-0.5h5.2c0.4,0,0.7,0.2,0.7,0.5V167.6z"/>
		</g>
	</g>
	<g id="Teléfono">
	</g>
</g>
<g id="Grid">
</g>
</svg>
