<?xml version="1.0" encoding="utf-8"?>
<!-- Generator: Adobe Illustrator 17.1.0, SVG Export Plug-In . SVG Version: 6.00 Build 0)  -->
<!DOCTYPE svg PUBLIC "-//W3C//DTD SVG 1.1//EN" "http://www.w3.org/Graphics/SVG/1.1/DTD/svg11.dtd">
<svg version="1.1" xmlns="http://www.w3.org/2000/svg" xmlns:xlink="http://www.w3.org/1999/xlink" x="0px" y="0px" width="167.4px"
	 height="58.5px" viewBox="0 0 167.4 58.5" enable-background="new 0 0 167.4 58.5" xml:space="preserve">
<g id="Web">
	<g>
		<path fill="#918D8D" d="M28.1,0c1.3,0,2.6,0.4,3.6,1.2c0.5,0.5,1,1.1,1.3,1.8c0.2,0.3,0.3,0.7,0.4,1c0.1,0.8,0.1,1.6,0.1,2.4
			c0,0.5,0.1,0.9,0.1,1.4c0,1.4,0,2.8,0,4.3c0,0.5,0.1,1,0.1,1.5c0.1,0,0.2,0,0.2,0c0.4-0.5,0.8-1,1.2-1.5c0.6-0.6,1.2-1.2,1.8-1.9
			c0.5-0.6,1.2-1,1.8-1.5c0.6-0.5,1.3-0.9,2-1.3c0.7-0.4,1.5-0.8,2.3-1.1c1.9-0.8,4-1.3,6.1-1.5c0.6-0.1,1.3-0.1,1.9-0.2
			c0.7-0.1,1.4,0,2.1,0.1c0.9,0,1.8,0.2,2.6,0.4c0.4,0.1,0.9,0.1,1.3,0.3c0.7,0.2,1.4,0.5,2.1,0.8c0.7,0.3,1.3,0.7,2,1.1
			c0.3,0.2,0.5,0.4,0.8,0.6c0.4,0.4,0.9,0.8,1.3,1.2c0.8,0.9,1.5,2,1.6,3.3c0.3,0,0.6,0,0.8-0.1c0.8-0.1,1.6,0,2.3,0
			c0.6,0,1.2,0.1,1.8,0.1c0.6,0,1.3,0.1,1.9,0.2c0.4,0,0.8,0.2,1.2,0.3c0.3-0.2,0.5-0.4,0.7-0.6c0.7-0.6,1.5-1,2.4-1.3
			c1.7-0.6,3.5-0.8,5.3-0.7c0.9,0,1.9,0.2,2.8,0.5c1.3,0.4,2.5,0.9,3.6,1.7c0.2,0.1,0.4,0.2,0.6,0.3c0.4-1.1,0.9-2.1,1.5-3
			c0.4-0.6,0.9-1.2,1.5-1.7c0.5-0.4,1.1-0.7,1.7-0.9c0.9-0.3,1.8-0.4,2.7-0.5c1.3-0.1,2.6,0,4,0c0.3,0,0.6,0.1,0.9,0
			c0.3-0.2,0.5-0.5,0.9-0.7c0.9-0.5,1.9-0.6,2.9-0.7c1-0.1,2,0,3,0.2c0.8,0.2,1.5,0.5,2.2,1c0.4,0.4,0.8,0.8,0.9,1.3
			c0.2,0.7,0.4,1.3,0.4,2c0,0.4,0,0.8,0,1.2c-0.1,0.8-0.3,1.6-0.4,2.4c2.2,0.7,4.1,2.1,5.5,3.8c0.2,0.2,0.4,0.5,0.6,0.7
			c0.1,0,0.2,0,0.2,0c0.2-0.4,0.3-0.8,0.5-1.1c0.2-0.4,0.4-0.8,0.6-1.1c0.4-0.9,1-1.7,1.6-2.5c0.6-0.8,1.2-1.6,2-2.3
			c0.8-0.8,1.7-1.4,2.5-2.1c0.9-0.8,2.1-1.3,3.1-1.8c0.6-0.3,1.2-0.6,1.9-0.7c0.7-0.1,1.3-0.4,2-0.5c1.5-0.4,3-0.6,4.5-0.7
			c0.6,0,1.1-0.1,1.7-0.1c1.3,0,2.6,0,3.9,0c0.5,0,1.1,0,1.6,0c0.6,0.1,1.2,0,1.8,0.1c1,0.1,2,0.3,3,0.5c1.1,0.3,2.1,0.7,2.9,1.4
			c0.4,0.4,0.8,0.9,1,1.5c0.1,0.5,0.4,0.9,0.4,1.5c0,0.6-0.1,1.2-0.1,1.8c0.8,0.2,1.7,0.3,2.5,0.6c0.5,0.2,1,0.3,1.5,0.6
			c0.4,0.2,0.9,0.4,1.3,0.7c0.3,0.2,0.6,0.4,0.9,0.6c0.4,0.3,0.7,0.6,1.1,1c0.9,0.9,1.5,2.1,2,3.2c0.2,0.7,0.4,1.4,0.4,2.1
			c0.1,0.8,0.1,1.6,0,2.4c-0.1,0.7-0.1,1.5-0.4,2.2c-0.1,0.4-0.2,0.8-0.2,1.2c0.5,0.3,1,0.5,1.5,0.8c0.6,0.3,1.1,0.7,1.6,1.1
			c0.5,0.3,0.8,0.7,1.2,1.1c0.3,0.3,0.6,0.6,0.9,1c0.5,0.6,0.9,1.3,1.2,2.1c0.8,2,0.7,4.3-0.2,6.2c-0.5,0.9-1.1,1.7-1.9,2.3
			c-0.6,0.4-1.2,0.8-1.8,1c-1.7,0.5-3.5,0.3-5.2-0.3c-3.5,3-7.1,5.7-11.1,8.1c-1.3,0.8-2.7,1.6-4.1,2.3c-0.7,0.4-1.5,0.7-2.2,1.1
			c-6.8,3.2-14.3,5.2-21.9,5.6c-0.9,0.1-1.8,0-2.7,0.1c-0.6,0.1-1.3-0.1-1.9,0c-0.9,0-1.7,0-2.6,0c-0.7-0.1-1.5,0-2.2-0.1
			c-2.7-0.1-5.4-0.4-8.1-0.7c-3-0.4-5.9-1.1-8.8-1.7c-1.1-0.2-2.2-0.5-3.3-0.7c-4-0.8-8-1.2-12-1.4c-1.4-0.1-2.9-0.1-4.4-0.1
			c-0.9,0-1.7,0-2.6,0.1c-0.6,0.1-1.2,0-1.7,0.1c-4.6,0.3-9.1,0.7-13.6,1.5c-2.3,0.4-4.6,0.9-6.8,1.6c-0.1-2.1-0.4-4.2-1.1-6.2
			c-0.2-0.6-0.4-1.1-0.6-1.6c-0.3-0.7-0.7-1.3-1.1-1.9c-0.3-0.5-0.7-0.9-1.1-1.3c-0.1-0.1-0.3-0.1-0.5-0.1c-2.4,0-4.9-0.2-7.2-0.8
			c-0.7-0.2-1.3-0.5-2-0.7c0,0.5,0,1,0,1.4c-0.1,0.9-0.5,1.8-0.9,2.6c-0.5,0.7-1.2,1.3-1.9,1.7c-1.6,0.8-3.6,0.7-5.1-0.3
			c-0.7-0.4-1.1-1-1.6-1.6c-0.9-1-1.7-2.1-2.5-3.2c-0.7-0.9-1.3-1.8-2-2.6c-0.5-0.5-0.8-1.2-1.3-1.8c-0.3-0.3-0.5-0.7-0.8-1
			c-0.2-0.1-0.4,0-0.6,0.1c-1.7,0.6-3.4,1.2-5,1.8c-1,0.3-2,0.7-3,1c-0.9,0.3-1.8,0.7-2.8,0.9c-2.1,0.5-4.4-0.5-5.5-2.3
			c-0.5-0.8-0.8-1.7-0.7-2.6c0-1.1,0.4-2.1,0.8-3c0.3-0.5,0.7-1,1-1.5c0.6-1,1.4-1.9,2-2.9c0.5-0.7,1-1.5,1.6-2.2
			c0.5-0.8,1.1-1.4,1.5-2.2c0.1-0.3,0.4-0.5,0.5-0.8c-0.4-0.6-0.9-1.1-1.3-1.7c-0.6-0.9-1.3-1.8-1.9-2.6c-0.9-1.2-1.8-2.5-2.8-3.7
			c-0.3-0.4-0.6-0.9-0.9-1.2c-0.2-0.2-0.4-0.6-0.5-0.9c-0.3-0.8-0.5-1.8-0.3-2.7c0.2-1.7,1.4-3.3,3-4c0.9-0.4,1.9-0.6,2.8-0.4
			C7,8.5,8.1,8.9,9.2,9.2c0.8,0.3,1.7,0.5,2.5,0.7c0.6,0.2,1.2,0.3,1.8,0.5c0.5,0.2,1.1,0.3,1.6,0.4c0.8,0.2,1.6,0.5,2.4,0.7
			c0.5-0.7,0.9-1.3,1.4-1.9c0.6-0.9,1.2-1.7,1.8-2.6c0.3-0.4,0.6-0.8,0.9-1.2c0.5-0.9,1.1-1.7,1.7-2.5c0.5-0.6,0.8-1.3,1.4-1.8
			C25.6,0.7,26.8,0.1,28.1,0L28.1,0z"/>
		<path fill="#FFFFFF" stroke="#FFFFFF" stroke-width="9.375000e-02" stroke-miterlimit="10" d="M27.6,5.3C27.8,5,28,4.8,28.4,4.7
			c0.4-0.1,0.9,0.1,1,0.5c0.1,0.4,0.1,0.8,0.1,1.2c0,2.4,0.1,4.8,0.1,7.2c0,2.1,0.1,4.1,0.1,6.2c1.3,0.4,2.5,0.8,3.8,1.1
			c0.4,0.1,0.8,0.2,1.1,0.4c-0.1,0.4-0.4,0.9-0.5,1.3c-0.9,2.2-1.6,4.5-1.8,6.9c-0.8,0.3-1.6,0.6-2.4,0.8c0,2.8,0.1,5.6,0.1,8.5
			c0,1.9,0.1,3.7,0.1,5.6c0,0.4-0.2,0.8-0.5,1c-0.4,0.1-0.8,0.1-1-0.3c-0.6-0.7-1.1-1.4-1.7-2.1c-2.1-2.8-4.2-5.6-6.3-8.4
			c-0.2-0.2-0.3-0.5-0.5-0.7c-0.4,0-0.7,0.2-1,0.3c-3.8,1.3-7.6,2.6-11.4,4c-0.4,0.1-0.9,0.4-1.3,0.4c-0.4,0-0.8-0.4-0.7-0.8
			c0-0.6,0.4-1,0.7-1.5c2.3-3.3,4.6-6.6,6.9-10c0.2-0.3,0.4-0.5,0.5-0.8c0-0.2-0.1-0.3-0.2-0.4c-0.5-0.6-0.9-1.3-1.4-1.9
			c-2.2-3-4.4-5.9-6.6-8.8c-0.2-0.2-0.3-0.5-0.3-0.8c0-0.4,0.3-0.8,0.7-0.8c0.6,0,1.2,0.2,1.8,0.4c3.6,1.1,7.2,2.2,10.8,3.3
			c0.4,0.1,0.8,0.3,1.2,0.3c0.2,0.1,0.2-0.1,0.3-0.2C22.5,12.7,25.1,9,27.6,5.3L27.6,5.3z"/>
		<path fill="#FFFFFF" stroke="#FFFFFF" stroke-width="9.375000e-02" stroke-miterlimit="10" d="M103.4,8.7c0.8,0,1.6-0.1,2.4,0
			c0.2,0,0.4,0,0.5,0.1c0.2,0.3,0.2,0.6,0.2,0.9c0,1.1-0.3,2.3-1,3.1c-0.6,0.7-1.5,1.3-2.4,1.2c-0.3,0-0.6-0.2-0.6-0.5
			c-0.1-0.3,0.2-0.5,0.4-0.7c0.5-0.5,0.8-1.1,1-1.8C104,10.2,103.7,9.4,103.4,8.7L103.4,8.7z"/>
		<path fill="#FFFFFF" stroke="#FFFFFF" stroke-width="9.375000e-02" stroke-miterlimit="10" d="M45.7,11c2.1-0.9,4.3-1.4,6.6-1.4
			c1.7,0,3.5,0.3,5,1.2c1.1,0.7,2,1.8,2.2,3.1c0.2,1.4-0.4,2.9-1.6,3.7c-0.2,0.2-0.5,0.2-0.8,0.2c-1.4,0-2.8,0-4.2,0
			c0.4-0.4,0.8-0.8,1.1-1.3c0.6-1,0.6-2.4-0.1-3.4c-0.4-0.6-1.1-0.9-1.8-1c-1.3-0.1-2.6,0.4-3.7,1.1c-1.6,1-2.8,2.4-3.9,3.9
			c-2,2.8-3.4,5.8-4.4,9.1c-0.5,1.7-0.9,3.4-0.9,5.2c0,1.2,0.2,2.4,0.5,3.5c0.3,0.8,0.8,1.6,1.5,2c0.8,0.6,1.8,0.8,2.8,0.8
			c1.1,0,2.2-0.3,3.2-0.7c2.4-1,4.4-2.7,5.8-4.9c0.3-0.4,0.3-0.9,0.4-1.3c0.3-1.8,0.9-3.5,1.7-5.1c0.8-1.6,1.9-3.2,3.2-4.5
			c1.1-1.2,2.5-2.2,4-2.8c1.6-0.7,3.4-1.1,5.2-1.1c1.1,0,2.2,0.1,3.2,0.5c0.4,0.1,0.8,0.3,1.2,0.5c-0.3,0.8-0.6,1.6-0.9,2.4
			c-1.3-0.4-2.6-0.6-3.9-0.4c-1.1,0.1-2,0.6-2.9,1.2c-1.6,1.2-2.8,3-3.7,4.8c-0.9,1.7-1.5,3.5-1.9,5.4c-0.1,0.7-0.3,1.4-0.2,2.1
			c0,0.3,0.2,0.7,0.5,0.8c0.5,0.2,0.9-0.1,1.3-0.3c0.9-0.5,1.7-1.2,2.4-1.9c0.3-0.3,0.6-0.6,0.8-1.1c1-2.7,2-5.5,3-8.2
			c0.1-0.3,0.2-0.5,0.3-0.8c0.2,0,0.3,0,0.5,0c1.5,0,3,0,4.5,0c-0.1,0.4-0.3,0.8-0.4,1.2c-1.2,3.2-2.4,6.5-3.6,9.7
			c-0.2,0.5-0.4,1-0.3,1.5c0.7-0.2,1.1-0.7,1.6-1.1c1.1-1.2,2.1-2.5,3-3.8c1.9-2.8,3.5-5.9,4.7-9.1c-0.3-0.2-0.6-0.4-0.8-0.7
			c-0.3-0.4-0.2-1-0.2-1.5c0.1-1,0.5-1.9,1.2-2.7c0.4-0.5,1-0.9,1.6-1.1c0.5-0.2,1.1-0.2,1.6,0c0.4,0.2,0.6,0.7,0.7,1.2
			c0.1,0.7-0.1,1.4-0.3,2c1.5,0,3,0,4.6,0c0.7,0,1.5,0.3,1.8,1c0.3,0.8,0.1,1.7-0.2,2.5c-1.6,4.1-3.1,8.2-4.6,12.3
			c-0.1,0.3-0.1,0.5-0.1,0.8c0.4,0,0.8-0.1,1.1-0.4c1.5-0.9,2.9-2,4.3-3.2c0.4-0.3,0.5-0.8,0.6-1.2c2.3-6.1,4.7-12.3,7-18.4
			c1.6,0,3.3,0,4.9,0c-0.2,0.7-0.5,1.3-0.7,2c-2.6,6.8-5.1,13.5-7.7,20.3C91,33.9,91,34.2,91,34.5c0.3,0,0.7-0.1,1-0.2
			c0.9-0.5,1.7-1.1,2.4-1.7c0.8-0.8,1.5-1.8,2.2-2.6c2.3-3,4.5-6.2,6.6-9.3c0.7-1.1,1.4-2.1,2-3.2c1.5,0,3,0,4.5,0
			c0.1,2.2,0.3,4.4,0.4,6.6c0.1,1.4,0.3,2.8,0.1,4.2c1-0.1,2-0.2,2.9-0.6c0.5-0.2,0.9-0.4,1.3-0.6c0.2-0.1,0.5-0.1,0.7,0
			c0.2,0.2,0.2,0.4,0.1,0.6c-0.1,0.6-0.6,1.2-1.2,1.5c-1.3,0.7-2.8,1-4.3,1.2c-0.4,1.5-1.2,3-2.3,4.1c-1,1-2.3,1.7-3.7,2.1
			c-1.4,0.4-2.8,0.5-4.2,0.4c-1.3-0.1-2.6-0.5-3.5-1.5c-0.4-0.4-0.6-0.8-0.7-1.3c-1,0.9-2,1.6-3.2,2.2c-0.8,0.4-1.6,0.6-2.4,0.6
			c-0.8,0-1.7-0.1-2.4-0.6c-0.5-0.3-0.8-0.9-1-1.5c-0.1-0.3-0.1-0.7-0.1-1c-1.2,1-2.5,2-4,2.6c-0.7,0.3-1.4,0.5-2.1,0.4
			c-0.8,0-1.7-0.2-2.4-0.7c-0.6-0.5-0.9-1.2-0.9-2c0-1.2,0.4-2.3,0.8-3.4c1.2-3.1,2.3-6.1,3.5-9.2c0.1-0.4,0.3-0.7,0.4-1.1
			c-0.8,0-1.7,0-2.5,0c-0.8,1.8-1.7,3.6-2.7,5.4c-1.1,2.1-2.4,4.1-3.8,6c-1,1.4-2.2,2.6-3.5,3.7c-0.9,0.6-1.8,1.2-2.9,1.3
			c-0.7,0.1-1.5,0-2.2-0.3c-0.5-0.2-1-0.6-1.2-1c-0.2-0.3-0.3-0.7-0.3-1c-1.2,1-2.5,1.8-3.9,2.2c-0.8,0.2-1.7,0.2-2.5,0.1
			c-0.7-0.1-1.4-0.5-1.9-1.1c-0.3-0.3-0.4-0.7-0.6-1c-1.2,1.5-2.7,2.8-4.4,3.8c-1.4,0.8-3,1.4-4.7,1.7c-1.1,0.2-2.3,0.2-3.5,0.1
			c-1.4-0.1-2.8-0.4-4-1.1c-1-0.5-1.8-1.2-2.5-2.1c-0.9-1.2-1.4-2.8-1.5-4.3c-0.2-2.3,0.1-4.7,0.7-6.9c1-3.5,2.7-6.8,4.9-9.6
			C40.6,14.2,43,12.2,45.7,11L45.7,11z"/>
		<path fill="#FFFFFF" stroke="#FFFFFF" stroke-width="9.375000e-02" stroke-miterlimit="10" d="M126.3,13c3.1-2.2,7-3.2,10.8-3.2
			c2.6,0,5.2,0,7.8,0c-0.2,0.7-0.5,1.4-0.8,2c-1.9,4.8-3.7,9.7-5.6,14.5c-0.2,0.4-0.4,0.9-0.5,1.4c1-0.3,1.9-0.6,2.8-1.1
			c1.1-0.6,2.1-1.4,2.9-2.4c0.9-1.1,1.6-2.3,2.2-3.6c-0.4-0.1-0.9-0.2-1.2-0.5c-0.4-0.4-0.4-0.9-0.4-1.4c0.1-1,0.5-2,1.1-2.8
			c0.5-0.6,1.1-1.1,1.8-1.3c0.5-0.1,1.1-0.1,1.5,0.2c0.4,0.3,0.6,0.9,0.6,1.4c0,0.6-0.1,1.2-0.3,1.7c1.3,0,2.5,0,3.8,0
			c0.6,0,1.2,0,1.7,0.2c0.5,0.2,0.9,0.6,1,1.1c0.2,0.7,0,1.5-0.3,2.2c-1.6,4.1-3.1,8.2-4.6,12.3c-0.1,0.3-0.1,0.6-0.1,0.8
			c0.3,0,0.5,0,0.8-0.2c0.8-0.4,1.6-1,2.4-1.6c1.1-0.9,2.2-1.8,3.2-2.8c0.2-0.2,0.5-0.5,0.9-0.5c0.2,0,0.3,0.2,0.3,0.3
			c0.2,0.5,0.1,1-0.1,1.4c-0.3,0.7-1,1.3-1.5,1.8c-1.4,1.3-2.8,2.5-4.5,3.4c-0.9,0.4-1.8,0.8-2.8,0.8c-0.8,0-1.7-0.1-2.4-0.6
			c-0.6-0.4-1-1.2-1-1.9c-0.1-1,0.2-2,0.5-2.9c1.4-3.6,2.8-7.3,4.1-10.9c-0.8,0-1.7,0-2.5,0c-0.8,2.1-2,4.1-3.6,5.6
			c-2,2-4.6,3.2-7.4,3.7c-1.2,2.9-2.8,5.6-5.1,7.7c-1.7,1.6-3.8,2.7-6.1,3.2c-1.4,0.2-2.8,0.3-4.2,0c-1.1-0.2-2.1-0.6-3-1.2
			c-0.7-0.5-1.4-1.1-1.8-1.8c-0.5-1-0.6-2.1-0.3-3.2c0.3-1,0.9-1.9,1.7-2.5c1-0.9,2.2-1.4,3.5-1.9c1.6-0.6,3.3-1,5.1-1.2
			c1.6-0.3,3.3-0.5,5-0.6c2.1-5.6,4.3-11.1,6.4-16.7c-0.8,0-1.6,0-2.4,0c-1.2,0.1-2.4,0.3-3.5,0.8c-1.7,0.7-3.2,1.7-4.3,3.2
			c-1.2,1.6-1.9,3.5-2.1,5.4c-0.1,1.3,0.2,2.6,0.8,3.7c-0.9,0-1.9,0-2.8,0c-0.2,0-0.5,0-0.7-0.1c-1-0.7-1.7-1.9-1.9-3.2
			c-0.2-1.6,0.3-3.2,1-4.5C123.4,15.5,124.7,14.1,126.3,13L126.3,13z"/>
		<path fill="#918D8D" d="M18.8,19.3c0.1-0.2,0.3-0.2,0.5-0.2c0.5,0.1,1,0.4,1.4,0.8c0.2,0.2,0.2,0.4,0.2,0.7
			c-0.4,0-0.8-0.3-1.2-0.3c-0.3,0-0.6-0.1-0.9-0.3C18.7,19.8,18.7,19.5,18.8,19.3L18.8,19.3z"/>
		<path fill="#918D8D" d="M104.2,23c0.4-0.6,0.8-1.2,1.2-1.8c0.1,1.1,0.1,2.2,0.1,3.3c0,1.3-0.1,2.6-0.3,3.9c-1.7,0.1-3.4,0-5,0.4
			C101.5,26.9,102.9,25,104.2,23L104.2,23z"/>
		<path fill="#918D8D" d="M19.5,21.9c0.3-0.1,0.6-0.1,0.9,0c0.3,0.2,0.5,0.4,0.7,0.6c0.2,0.1,0.3,0.2,0.5,0.3c0.1,0.2,0,0.5-0.2,0.7
			c-0.2,0.2-0.4,0.2-0.7,0.2c-0.4,0-0.7-0.3-1-0.5c-0.4,0-0.9,0.2-1.4,0c-0.4-0.1-0.6-0.6-0.3-1C18.6,22.1,19,22,19.5,21.9
			L19.5,21.9z"/>
		<path fill="#918D8D" d="M27,22.3c0.2-0.3,0.5-0.3,0.8-0.3c0.5,0,1.1,0,1.4,0.4c0.1,0.3,0,0.6-0.3,0.7c-0.3,0.1-0.6-0.1-0.9-0.2
			c-0.3-0.2-0.7-0.2-1.1-0.2C27,22.6,27,22.5,27,22.3L27,22.3z"/>
		<path fill="#FFFFFF" stroke="#FFFFFF" stroke-width="9.375000e-02" stroke-miterlimit="10" d="M40.9,26.4c0.3-1,0.6-2,1-2.9
			c0.4,0.1,0.8,0.2,1.2,0.4c0.3,0.1,0.5,0.3,0.5,0.6c0.1,0.3-0.1,0.6-0.3,0.8c-0.2,0.3-0.6,0.4-0.9,0.5C42,26,41.5,26.2,40.9,26.4
			L40.9,26.4z"/>
		<path fill="#918D8D" d="M25,23.8c0.4,0,0.9,0,1.3-0.1c0.3,0,0.6,0,0.9,0.2c0.2,0.3,0.4,0.7,0.6,0.9c0.2,0.2,0.4,0.3,0.5,0.5
			c0.1,0.4-0.4,0.6-0.7,0.6c-0.5-0.1-0.8-0.5-1.2-0.7c-0.4-0.2-0.9,0-1.2-0.3C24.7,24.7,24.7,24.2,25,23.8L25,23.8z"/>
		<path fill="#918D8D" d="M21.2,25.3c0.3-0.1,0.6-0.1,0.9,0c0.6,0.1,1.2,0.3,1.6,0.8c0.2,0.2,0.3,0.4,0.2,0.7
			c-0.2,0.3-0.7,0.2-1,0.2c-0.7-0.1-1.5-0.5-1.9-1.1C20.9,25.6,21,25.3,21.2,25.3L21.2,25.3z"/>
		<path fill="#918D8D" d="M17.4,25.9c0.3-0.2,0.6-0.3,0.9-0.4c0,0.2,0.1,0.3,0.1,0.5c-0.1,0.2-0.2,0.4-0.3,0.6
			c0,0.2,0.1,0.4,0.2,0.5c0.8,1.4,2.1,2.5,3.7,2.9c1.4,0.3,2.9-0.1,4.1-0.9c0-0.3,0-0.6,0.1-0.9c0.1,0,0.3,0,0.4,0
			c0.2,0.2,0.2,0.4,0.4,0.6c0.1,0.3,0.3,0.5,0.5,0.7c0,0.2,0,0.3,0,0.4c-0.3-0.1-0.6-0.1-0.9-0.1c-0.3,0.1-0.5,0.3-0.8,0.4
			c-0.8,0.4-1.6,0.9-2.5,1c-1.1,0.2-2.3-0.1-3.2-0.7c-1-0.7-1.8-1.6-2.2-2.7c-0.1-0.3-0.2-0.6-0.4-0.9c-0.2-0.1-0.5-0.2-0.8-0.2
			c0-0.1,0-0.3,0.1-0.4C16.7,26.1,17.1,26,17.4,25.9L17.4,25.9z"/>
		<path fill="#918D8D" d="M99.7,31.7c0.8-0.7,1.8-1.1,2.8-1.1c0.7,0,1.4,0,2.2,0c-0.3,0.9-0.6,1.9-1.2,2.7c-0.5,0.8-1.2,1.4-2.1,1.8
			c-0.5,0.2-1,0.2-1.5,0.2c-0.6-0.1-1.1-0.6-1.2-1.2C98.8,33.1,99.1,32.2,99.7,31.7L99.7,31.7z"/>
		<path fill="#918D8D" d="M125.1,31.8c1.9-0.7,3.9-1,5.9-1.2c-0.3,0.8-0.7,1.6-1.1,2.4c-0.7,1.3-1.4,2.7-2.3,3.8
			c-0.6,0.7-1.4,1.4-2.3,1.7c-0.8,0.3-1.7,0.3-2.4,0c-0.6-0.2-1.2-0.8-1.4-1.4c-0.4-1.1-0.2-2.5,0.6-3.4
			C122.9,32.8,124,32.3,125.1,31.8L125.1,31.8z"/>
		<path fill="#FFFFFF" stroke="#FFFFFF" stroke-width="9.375000e-02" stroke-miterlimit="10" d="M159.9,32.9c0.7-0.2,1.6,0,2.1,0.6
			c0.6,0.8,0.5,2-0.1,2.7c-0.5,0.6-1.3,1-2.1,0.9c-0.6-0.1-1.2-0.4-1.5-1c-0.3-0.6-0.3-1.2-0.1-1.8
			C158.6,33.6,159.2,33.1,159.9,32.9L159.9,32.9z"/>
		<path fill="#FFFFFF" stroke="#FFFFFF" stroke-width="9.375000e-02" stroke-miterlimit="10" d="M139.9,36.4
			c0.2-0.3,0.4-0.5,0.6-0.8c0.2,0.7,0.4,1.3,0.7,1.9c0.7,1.4,1.7,2.7,3,3.7c0.3,0.2,0.6,0.5,0.9,0.7c-4,2-8.3,3.5-12.7,4.5
			c-3.4,0.7-6.8,1.1-10.2,1.3c-1.7,0-3.4,0-5.1,0c-2.8-0.1-5.6-0.4-8.4-0.8c-2.8-0.4-5.6-0.8-8.4-1.3c-2.1-0.4-4.2-0.8-6.3-1.3
			c-2.4-0.6-4.8-1.3-7.1-2c0.4,0,0.9,0,1.3,0c2.2,0.1,4.4,0.2,6.6,0.3c2.4,0.1,4.8,0.1,7.2-0.1c2.2-0.2,4.4-0.4,6.5-1.2
			c1.1-0.4,2.2-1,2.8-2.1c0.1-0.1,0.3-0.2,0.2-0.4l0.1,0c0.1,0.5,0.2,1.1,0.5,1.5c0.5,1,1.2,1.8,2,2.5c1.4,1.1,3,1.7,4.7,2.2
			c2.3,0.6,4.7,0.9,7,0.6c1.4-0.1,2.8-0.3,4.2-0.8c1.9-0.6,3.7-1.8,5.2-3.1c0.5-0.5,1.1-1,1.6-1.5c0.4-0.4,0.8-0.8,1.2-1.3
			C138.7,38.1,139.3,37.2,139.9,36.4L139.9,36.4z"/>
		<path fill="#FFFFFF" stroke="#FFFFFF" stroke-width="9.375000e-02" stroke-miterlimit="10" d="M55.1,46.1c0.5-0.6,1.2-1,2-1.1
			c0.7-0.1,1.3,0.1,2,0.1c-0.1,0.5-0.3,0.9-0.5,1.4c-0.2-0.2-0.4-0.3-0.6-0.4c-0.6-0.1-1.2,0-1.7,0.4c-0.4,0.3-0.4,0.8-0.3,1.2
			c0.1,0.3,0.5,0.6,0.8,0.6c0.5,0.1,1.1,0,1.5-0.3c0.2-0.1,0.3-0.3,0.4-0.5c0.3,0.4,0.6,0.8,0.9,1.2c-0.6,0.2-1.1,0.5-1.8,0.6
			c-0.6,0.1-1.3,0.1-1.9-0.2c-0.7-0.3-1.2-1-1.2-1.8C54.6,47,54.7,46.5,55.1,46.1L55.1,46.1z"/>
		<path fill="#FFFFFF" stroke="#FFFFFF" stroke-width="9.375000e-02" stroke-miterlimit="10" d="M66.3,45.2c0.5,0,1,0,1.5,0
			c0.1,0.4,0.2,0.7,0.4,1.1c0.4,0.8,0.8,1.7,1.2,2.5c-0.4,0-0.8,0-1.2,0c-0.1-0.2-0.1-0.7-0.4-0.7c-0.5-0.1-1.1,0-1.6,0
			c0,0.2-0.1,0.5-0.2,0.7c-0.4,0-0.7,0-1.1,0c0.3-0.7,0.6-1.4,0.8-2C66,46.3,66.3,45.8,66.3,45.2L66.3,45.2z"/>
		<path fill="#FFFFFF" stroke="#FFFFFF" stroke-width="9.375000e-02" stroke-miterlimit="10" d="M70.1,45.2c0.7,0,1.5,0,2.2,0.1
			c0.4,0,0.8,0,1.1,0.3c0.3,0.3,0.4,0.8,0.3,1.2c-0.1,0.4-0.5,0.5-0.7,0.7c0.3,0.5,0.5,1,1,1.3c-0.5,0-1.1,0-1.7,0
			c0-0.1,0.1-0.2,0.2-0.3c-0.2-0.4-0.3-0.8-0.6-1.1c-0.2,0-0.4,0-0.6,0c0,0.4,0,0.7,0,1.1c0.1,0.1,0.2,0.2,0.3,0.2c-0.5,0-1,0-1.4,0
			c0.2-0.5,0.2-1.1,0.2-1.6C70.2,46.5,70.3,45.9,70.1,45.2L70.1,45.2z"/>
		<path fill="#FFFFFF" stroke="#FFFFFF" stroke-width="9.375000e-02" stroke-miterlimit="10" d="M62.8,45.3c0.5,0,1,0,1.4,0
			c-0.3,0.3-0.2,0.8-0.2,1.2c0.1,0.7,0.1,1.3,0.1,2c0,0.2,0.2,0.4,0.3,0.5C64,49,63.5,49,63,49c0.2-0.5,0.1-1,0.1-1.5
			c-0.5,0-1.1,0.1-1.6,0.1c0,0.5-0.1,1.1,0.2,1.5c-0.5,0-0.9,0-1.3,0.1c0.2-0.6,0-1.3,0-1.9c0-0.6,0-1.2-0.3-1.8
			c0.5,0,0.9,0,1.4-0.1c-0.2,0.4-0.2,0.9-0.1,1.3c0.5,0,1.1,0,1.6-0.1C63,46.2,63,45.7,62.8,45.3L62.8,45.3z"/>
		<path fill="#FFFFFF" stroke="#FFFFFF" stroke-width="9.375000e-02" stroke-miterlimit="10" d="M75,45.4c0.8,0.1,1.6,0.1,2.4,0.2
			c0.3,0,0.6,0.1,0.8,0.2c0.2,0.2,0.2,0.5,0.2,0.7c0,0.3-0.2,0.5-0.4,0.7c0.1,0.2,0.3,0.3,0.4,0.5c0.1,0.4,0,0.8-0.3,1.1
			c-0.3,0.3-0.7,0.2-1.1,0.2c-0.8,0-1.6-0.1-2.4-0.2c0.1-0.1,0.2-0.1,0.3-0.2c0-0.9,0.1-1.8,0.1-2.7C75.2,45.8,75.1,45.6,75,45.4
			L75,45.4z"/>
		<path fill="#FFFFFF" stroke="#FFFFFF" stroke-width="9.375000e-02" stroke-miterlimit="10" d="M79.9,45.8c0.7,0.1,1.4,0.2,2.1,0.3
			c0.4,0,0.8,0.1,1.1,0.4c0.4,0.3,0.4,0.9,0.2,1.3c-0.2,0.3-0.5,0.4-0.8,0.6c0.2,0.5,0.4,0.9,0.7,1.4c-0.5,0-1-0.1-1.5-0.1
			c0.1-0.4-0.1-0.9-0.3-1.3c-0.2-0.2-0.5-0.1-0.7-0.2c-0.1,0.4-0.1,0.9,0,1.3c-0.4,0-0.8-0.1-1.2-0.1c0.2-0.8,0.2-1.6,0.3-2.4
			C79.9,46.5,79.9,46.1,79.9,45.8L79.9,45.8z"/>
		<path fill="#918D8D" d="M71.2,46c0.3,0,0.7,0,1,0c0.2,0,0.3,0,0.5,0.2c0.1,0.2,0.1,0.4,0,0.5c-0.1,0.1-0.3,0.1-0.4,0.1
			c-0.4,0-0.7,0-1.1,0C71.2,46.5,71.2,46.2,71.2,46L71.2,46z"/>
		<path fill="#918D8D" d="M66.5,47.5c0.1-0.5,0.3-0.9,0.5-1.3c0.2,0.4,0.4,0.9,0.6,1.3C67.3,47.5,66.9,47.5,66.5,47.5L66.5,47.5z"/>
		<path fill="#918D8D" d="M76.2,46.2c0.4,0,0.8,0,1.2,0.1c0.3,0.1,0.2,0.6-0.1,0.6c-0.4,0.1-0.8,0-1.1,0
			C76.2,46.7,76.2,46.4,76.2,46.2L76.2,46.2z"/>
		<path fill="#918D8D" d="M80.9,46.6c0.4,0,0.9,0,1.3,0.2c0.3,0.1,0.3,0.5,0.1,0.7c-0.5,0.1-0.9,0-1.4-0.1
			C80.9,47.2,80.9,46.9,80.9,46.6L80.9,46.6z"/>
		<path fill="#FFFFFF" stroke="#FFFFFF" stroke-width="9.375000e-02" stroke-miterlimit="10" d="M85.5,46.6c0.9-0.2,1.9,0.1,2.4,0.9
			c0.5,0.7,0.3,1.8-0.4,2.3c-0.4,0.3-0.9,0.4-1.4,0.3c-0.6,0-1.2-0.3-1.7-0.7c-0.4-0.5-0.5-1.3-0.2-1.9C84.5,47,85,46.7,85.5,46.6
			L85.5,46.6z"/>
		<path fill="#FFFFFF" stroke="#FFFFFF" stroke-width="9.375000e-02" stroke-miterlimit="10" d="M89.5,47.2c0.4,0.1,0.9,0.2,1.3,0.3
			c-0.2,0.2-0.3,0.4-0.3,0.6c-0.1,0.7-0.2,1.3-0.4,2c-0.1,0.3,0,0.5,0.1,0.7c-0.5-0.1-0.9-0.2-1.4-0.3c0.4-0.4,0.3-0.9,0.4-1.3
			C89.4,48.6,89.6,47.9,89.5,47.2L89.5,47.2z"/>
		<path fill="#918D8D" d="M85.7,47.5c0.4-0.1,0.8-0.1,1.1,0.1c0.5,0.3,0.5,1.1,0.1,1.4c-0.4,0.4-1.1,0.3-1.5-0.1
			C85,48.6,85.1,47.7,85.7,47.5L85.7,47.5z"/>
		<path fill="#918D8D" d="M76.1,47.5c0.4,0,0.8,0,1.2,0.1c0.3,0.1,0.3,0.7-0.1,0.7c-0.4,0.1-0.8,0-1.2,0
			C76.1,48.1,76.1,47.8,76.1,47.5L76.1,47.5z"/>
		<path fill="#FFFFFF" stroke="#FFFFFF" stroke-width="9.375000e-02" stroke-miterlimit="10" d="M92.1,47.7c0.4,0.1,0.8,0.2,1.2,0.3
			c-0.3,0.8-0.5,1.7-0.6,2.5c0.8,0.1,1.5,0.5,2.3,0.4c-0.1,0.4-0.2,0.7-0.2,1c-0.3-0.2-0.6-0.3-0.9-0.3c-0.8-0.2-1.6-0.4-2.4-0.5
			c0.3-0.7,0.4-1.5,0.6-2.2C92.1,48.5,92.1,48.1,92.1,47.7L92.1,47.7z"/>
		<path fill="#FFFFFF" stroke="#FFFFFF" stroke-width="9.375000e-02" stroke-miterlimit="10" d="M134.6,49.2
			c0.7-0.6,1.8-0.6,2.7-0.8c0,0.3-0.1,0.5-0.1,0.8c-0.6-0.1-1.2-0.1-1.7,0.2c-0.2,0.1-0.2,0.3-0.3,0.4c0.8,0.1,1.6-0.3,2.5-0.1
			c0.4,0.1,0.5,0.7,0.3,1.1c-0.2,0.3-0.5,0.5-0.8,0.6c-0.7,0.3-1.5,0.3-2.2,0.4c0-0.3,0-0.5,0-0.8c0.7,0.2,1.4,0.1,2-0.2
			c0.2-0.1,0.2-0.3,0.2-0.4c-0.4,0-0.7,0-1.1,0.1c-0.5,0.1-1,0.2-1.5,0C134.1,50.2,134.2,49.5,134.6,49.2L134.6,49.2z"/>
		<path fill="#FFFFFF" stroke="#FFFFFF" stroke-width="9.375000e-02" stroke-miterlimit="10" d="M96.1,48.8c0.9,0.2,1.8,0.4,2.7,0.6
			c0.3,0.1,0.5,0.1,0.8,0c-0.1,0.3-0.1,0.6-0.2,0.9c-0.2-0.1-0.4-0.2-0.6-0.3c-0.6-0.1-1.2-0.3-1.8-0.4c0,0.2,0,0.4-0.1,0.6
			c0.5,0.1,1.1,0.2,1.6,0.3c-0.1,0.3-0.1,0.6-0.2,0.8c-0.5-0.3-1.1-0.4-1.6-0.5c0,0.2,0,0.5-0.1,0.7c0.5,0.1,1.1,0.3,1.6,0.4
			c0.2,0.1,0.5,0,0.7,0c-0.1,0.3-0.1,0.6-0.2,0.9c-0.4-0.2-0.8-0.3-1.2-0.3c-0.8-0.2-1.6-0.3-2.3-0.5c0.1-0.2,0.3-0.3,0.3-0.5
			c0.1-0.6,0.2-1.2,0.4-1.7C96.2,49.4,96.2,49.1,96.1,48.8L96.1,48.8z"/>
		<path fill="#FFFFFF" stroke="#FFFFFF" stroke-width="9.375000e-02" stroke-miterlimit="10" d="M131.3,49.8
			c0.5-0.1,1.1-0.3,1.7-0.2c0.5,0.1,0.8,0.7,0.6,1.2c-0.1,0.2-0.3,0.4-0.5,0.6c0.4,0.3,0.7,0.6,1.1,0.9c-0.4,0.1-0.9,0.2-1.3,0.3
			c-0.2-0.4-0.5-0.7-0.9-0.9c-0.2,0-0.4,0.1-0.6,0.1c0.1,0.4,0.2,0.8,0.4,1.1c-0.4,0.1-0.8,0.2-1.2,0.2c-0.2-0.9-0.5-1.8-0.7-2.7
			c-0.1-0.1-0.2-0.1-0.3-0.2C130.2,50.1,130.8,50,131.3,49.8L131.3,49.8z"/>
		<path fill="#FFFFFF" stroke="#FFFFFF" stroke-width="9.375000e-02" stroke-miterlimit="10" d="M100.6,49.7
			c0.8,0.1,1.6,0.3,2.4,0.4c0.5,0.1,1,0.5,1.1,1c0.1,0.6,0,1.4-0.5,1.9c-0.4,0.3-0.9,0.4-1.3,0.4c-0.8-0.1-1.6-0.3-2.3-0.4
			c0.1-0.1,0.3-0.2,0.3-0.4c0.2-0.6,0.2-1.2,0.4-1.8C100.6,50.4,100.6,50.1,100.6,49.7L100.6,49.7z"/>
		<path fill="#FFFFFF" stroke="#FFFFFF" stroke-width="9.375000e-02" stroke-miterlimit="10" d="M106.6,50.1
			c0.9,0.1,1.9,0.2,2.8,0.3c0.4,0,0.8,0.1,1.1,0.4c0.3,0.3,0.3,0.7,0.2,1.1c-0.1,0.2-0.4,0.3-0.6,0.4c0.2,0.2,0.5,0.3,0.6,0.6
			c0.2,0.5-0.1,1.1-0.6,1.2c-0.4,0.2-0.9,0.2-1.3,0.1c-0.9-0.1-1.7-0.2-2.6-0.2c0.1-0.3,0.2-0.5,0.2-0.9c0.1-0.8,0.2-1.6,0.3-2.4
			C106.8,50.5,106.7,50.3,106.6,50.1L106.6,50.1z"/>
		<path fill="#FFFFFF" stroke="#FFFFFF" stroke-width="9.375000e-02" stroke-miterlimit="10" d="M128.5,50.4c0.2,0,0.4-0.1,0.5-0.2
			c0,0.3,0.1,0.6,0.2,0.9c-0.8,0-1.6,0.2-2.5,0.3c0.1,0.2,0.1,0.3,0.1,0.5c0.5-0.1,1.1-0.1,1.6-0.4c0,0.3,0.1,0.5,0.1,0.8
			c-0.5,0-1.1,0.1-1.6,0.2c0.1,0.2,0.1,0.4,0.1,0.6c0.8-0.1,1.7-0.2,2.5-0.5c0,0.3,0.1,0.6,0.1,0.8c-0.3,0-0.6,0-0.9,0
			c-0.9,0.2-1.8,0.3-2.7,0.4c0.1-0.6-0.1-1.2-0.2-1.8c-0.1-0.4-0.1-0.9-0.4-1.2C126.5,50.7,127.5,50.5,128.5,50.4L128.5,50.4z"/>
		<path fill="#918D8D" d="M131,50.5c0.5-0.1,0.9-0.3,1.4-0.2c0.2,0,0.3,0.4,0.1,0.5c-0.4,0.2-0.9,0.2-1.3,0.3
			C131.2,50.9,131.1,50.7,131,50.5L131,50.5z"/>
		<path fill="#918D8D" d="M101.6,50.7c0.3,0,0.6,0,0.9,0.1c0.3,0.1,0.6,0.3,0.6,0.7c0,0.4-0.1,0.8-0.4,1c-0.4,0.2-0.9,0-1.4,0
			C101.4,51.9,101.5,51.3,101.6,50.7L101.6,50.7z"/>
		<path fill="#918D8D" d="M107.9,51.1c0.6,0.1,1.2,0,1.8,0.3c0,0.2,0.1,0.4-0.1,0.4c-0.6,0.1-1.1-0.1-1.7-0.1
			C107.8,51.5,107.8,51.3,107.9,51.1L107.9,51.1z"/>
		<path fill="#FFFFFF" stroke="#FFFFFF" stroke-width="9.375000e-02" stroke-miterlimit="10" d="M122.4,51.1c0.7-0.2,1.4,0,2.1,0
			c-0.1,0.3-0.2,0.6-0.3,0.9c-0.5-0.4-1.2-0.4-1.8-0.1c-0.5,0.3-0.5,1-0.1,1.4c0.2,0.2,0.6,0.3,0.9,0.3c0.2,0,0.5,0,0.7-0.1
			c0.1-0.1,0.1-0.3,0.1-0.5c-0.3,0-0.6,0.1-0.9,0.2c0-0.3,0-0.6-0.1-0.9c0.6,0.2,1.2,0,1.9,0c0,0.4,0,0.9,0.3,1.2
			c-0.6,0.4-1.4,0.6-2.1,0.7c-0.5,0-1,0-1.4-0.3c-0.6-0.4-0.8-1.2-0.6-1.8C121.3,51.6,121.8,51.3,122.4,51.1L122.4,51.1z"/>
		<path fill="#FFFFFF" stroke="#FFFFFF" stroke-width="9.375000e-02" stroke-miterlimit="10" d="M111.7,51.2c0.4,0,0.9,0,1.3,0
			c-0.1,0.6-0.1,1.2-0.2,1.9c0,0.2,0,0.4,0.2,0.5c0.2,0.2,0.6,0.2,0.9,0.1c0.2,0,0.4-0.2,0.4-0.4c0.1-0.7,0.1-1.4,0-2.1
			c0.4,0,0.9,0,1.3,0c-0.1,0.1-0.2,0.3-0.2,0.4c-0.1,0.6,0,1.2-0.1,1.8c-0.1,0.5-0.5,0.8-0.9,0.9c-0.4,0.1-0.8,0.1-1.2,0
			c-0.4-0.1-0.9-0.2-1.1-0.6C111.5,53.1,112.1,52.1,111.7,51.2L111.7,51.2z"/>
		<path fill="#FFFFFF" stroke="#FFFFFF" stroke-width="9.375000e-02" stroke-miterlimit="10" d="M116.5,51.4c0.9,0,1.7,0,2.6,0
			c0.4,0,0.8,0.1,1,0.5c0.1,0.3,0.1,0.6,0,0.9c-0.2,0.2-0.4,0.4-0.7,0.5c0.3,0.4,0.6,0.8,0.9,1.1c-0.5,0-0.9,0-1.4,0
			c0-0.4-0.3-0.8-0.6-1.1c-0.2,0-0.4,0-0.7,0c0,0.4-0.1,0.8,0.2,1.2c-0.4,0-0.8,0-1.2,0c0.1-0.5,0.1-0.9,0.1-1.4
			C116.6,52.5,116.7,51.9,116.5,51.4L116.5,51.4z"/>
		<path fill="#918D8D" d="M117.6,52c0.4,0,0.7-0.1,1.1,0c0.1,0,0.3,0,0.4,0.2c0.1,0.2,0,0.5-0.2,0.5c-0.4,0.1-0.9,0-1.3,0
			C117.6,52.5,117.6,52.3,117.6,52L117.6,52z"/>
		<path fill="#918D8D" d="M107.7,52.5c0.5,0,1,0.1,1.4,0.1c0.2,0,0.4,0.1,0.5,0.3c0.1,0.2,0,0.5-0.2,0.5c-0.6,0.1-1.2,0-1.8-0.1
			C107.7,53,107.7,52.8,107.7,52.5L107.7,52.5z"/>
	</g>
	<g id="Teléfono">
	</g>
</g>
<g id="Grid">
</g>
</svg>
