<?xml version="1.0" encoding="utf-8"?>
<!-- Generator: Adobe Illustrator 17.1.0, SVG Export Plug-In . SVG Version: 6.00 Build 0)  -->
<!DOCTYPE svg PUBLIC "-//W3C//DTD SVG 1.1//EN" "http://www.w3.org/Graphics/SVG/1.1/DTD/svg11.dtd">
<svg version="1.1" xmlns="http://www.w3.org/2000/svg" xmlns:xlink="http://www.w3.org/1999/xlink" x="0px" y="0px" width="168px"
	 height="36px" viewBox="0 0 168 36" enable-background="new 0 0 168 36" xml:space="preserve">
<g id="Web">
	<g>
		<path fill-rule="evenodd" clip-rule="evenodd" fill="#918D8D" d="M15.9,36c2.3-2.8,13.7-10.6,16.5-10.9C31.2,24,12.3,9.5,12,9.4
			C11.4,9,12.2,8,13,8.6c0.5,0.4,6.5,4.8,7.3,5.4c3.9,3,10,0.5,12.3-1.4C31.2,11.5,16.8,0.8,16.4,0l0.1,0.1
			C14.8,3,3.1,10.8,0.3,11.2c1.3,1.1,19.6,15.5,19.9,15.7c1,0.6,0.1,1.3-0.9,0.7c-0.5-0.4-6.9-5.3-7.7-5.8C8.2,19.4,2.1,21,0,23.5
			C1.4,24.7,15.5,35.3,15.9,36L15.9,36z"/>
		<path fill-rule="evenodd" clip-rule="evenodd" fill="#918D8D" d="M45.2,20.6c-3.5-0.8-5-3.2-5-5.9c0-4.3,4.3-6.7,11.2-6.7
			c5.8,0,11.2,2.1,11.2,6.9h-8.3c-0.1-1.6-2.2-2.5-3.6-2.4c-1.5,0.1-2.7,0.8-2.7,1.4c0,1.2,1.2,1.2,2.2,1.4c1.8,0.5,5.5,0.9,7.8,1.8
			c3,1.1,5.1,3.2,5.1,5.7c0,5.1-5.4,7.3-12,7.2c-6.9-0.1-11.3-1.7-11.3-7.1h9.2c0,0.6,0.3,1.4,0.8,1.7c0.5,0.2,2,0.6,2.9,0.6
			c1.4,0,2.2-0.8,2.2-1.7c0-0.8-0.7-1.4-2-1.5C51.9,21.6,47.2,21.3,45.2,20.6L45.2,20.6z"/>
		<path fill-rule="evenodd" clip-rule="evenodd" fill="#918D8D" d="M86.4,22.3c0,5.7-3.2,7.6-10.8,7.6c-7.1,0-11.1-1.5-11.1-7.6V8.5
			h7.1v13.4c0,2,1.6,2.9,4.1,2.9c2.2,0,3.8-1,3.8-2.9V8.5h7V22.3L86.4,22.3z"/>
		<polygon fill-rule="evenodd" clip-rule="evenodd" fill="#918D8D" points="87.9,24.9 98.9,13.9 88.4,13.9 88.4,8.5 110.1,8.5 
			110.1,13 99.1,24.2 110,24.2 110,29.4 87.9,29.4 87.9,24.9 		"/>
		<path fill-rule="evenodd" clip-rule="evenodd" fill="#918D8D" d="M133.7,22.3c0,5.9-4.1,7.6-11.2,7.6c-7.1,0-10.7-1.2-10.7-7.6
			V8.5h7v13.4c0,1.6,1.6,2.7,3.7,2.7c2.5,0,4.1-1.1,4.1-2.7V8.5h7.1V22.3L133.7,22.3z"/>
		<polygon fill-rule="evenodd" clip-rule="evenodd" fill="#918D8D" points="135.3,8.5 142.5,8.5 142.5,15.8 142.5,15.8 150.6,8.5 
			159.7,8.5 149,18.7 159.4,29.5 150.1,29.5 142.5,22.1 142.5,22.1 142.5,29.5 135.3,29.5 135.3,8.5 		"/>
		<polygon fill-rule="evenodd" clip-rule="evenodd" fill="#918D8D" points="160.8,8.5 168,8.5 168,29.4 160.8,29.4 160.8,8.5 		"/>
	</g>
	<g id="Teléfono">
	</g>
</g>
<g id="Grid">
</g>
</svg>
